{"glyphs":{"0":{"ha":1033,"x_min":71,"x_max":964,"o":"m 515 1094 q 760 1015 658 1094 q 913 808 861 936 q 964 536 964 681 q 912 260 964 390 q 756 51 860 131 q 508 -29 653 -29 q 270 50 369 -29 q 121 258 171 129 q 71 531 71 386 q 122 806 71 676 q 273 1015 172 935 q 515 1094 374 1094 m 510 0 q 697 76 619 0 q 815 274 775 151 q 854 535 854 396 q 815 795 854 674 q 700 992 776 917 q 515 1067 624 1067 q 333 990 408 1067 q 218 791 257 914 q 179 529 179 668 q 217 271 179 392 q 329 75 254 150 q 510 0 404 0 z "},"1":{"ha":525,"x_min":90,"x_max":393,"o":"m 392 0 l 299 0 l 299 882 q 181 808 236 840 l 151 792 q 99 764 103 767 l 90 783 q 181 853 126 806 q 371 1067 292 951 l 393 1067 l 392 0 z "},"2":{"ha":979,"x_min":93,"x_max":882,"o":"m 229 57 q 686 85 475 63 q 882 110 793 96 l 882 0 l 99 0 q 144 203 93 115 q 271 350 194 290 q 471 486 347 410 q 619 584 564 544 q 715 674 674 624 q 769 783 757 724 q 774 821 774 803 q 744 926 774 876 q 667 1004 714 975 q 575 1033 621 1033 q 453 989 518 1033 q 274 843 389 944 l 221 797 l 128 857 q 357 1012 251 957 q 514 1067 463 1067 q 696 1018 610 1067 q 831 897 782 969 q 874 756 881 824 q 830 653 867 696 q 744 582 793 610 q 618 521 694 554 q 542 486 565 499 q 342 338 411 429 q 251 170 272 246 q 229 57 229 94 z "},"3":{"ha":1051,"x_min":104,"x_max":940,"o":"m 489 615 q 653 674 576 633 q 757 786 731 715 q 767 838 767 810 q 735 934 767 888 q 655 1008 703 981 q 563 1036 607 1036 q 441 992 506 1036 q 261 846 376 947 l 208 800 l 115 860 q 344 1015 239 960 q 501 1069 450 1069 q 673 1024 588 1069 q 813 913 758 979 q 867 792 867 847 q 861 758 867 771 q 817 692 844 717 q 755 653 789 667 q 654 621 721 640 q 613 610 640 618 q 693 621 650 621 q 823 583 767 621 q 910 482 879 544 q 940 347 940 419 q 886 172 940 260 q 732 28 832 85 q 504 -28 632 -28 q 258 54 365 -28 q 104 261 151 136 l 122 269 q 287 86 197 133 q 489 39 376 39 q 647 76 569 39 q 773 185 724 113 q 822 357 822 257 q 804 448 822 397 q 740 538 786 499 q 618 576 694 576 q 489 551 558 576 l 489 615 z "},"4":{"ha":1064,"x_min":83,"x_max":981,"o":"m 733 347 l 733 0 l 640 0 l 640 346 l 83 347 l 643 1067 l 733 1067 l 733 411 q 918 433 844 417 q 981 447 928 435 l 981 347 l 733 347 m 243 433 q 640 408 450 406 l 640 1010 l 243 433 z "},"5":{"ha":1032,"x_min":83,"x_max":922,"o":"m 260 706 q 497 743 383 743 q 711 700 617 743 q 861 568 806 657 q 919 347 917 479 q 867 172 922 260 q 713 28 813 85 q 483 -28 613 -28 q 240 53 344 -28 q 83 261 135 135 l 101 269 q 267 86 176 133 q 468 39 357 39 q 626 75 549 39 q 755 182 704 111 q 806 350 806 253 q 713 587 806 500 q 443 674 621 674 q 129 619 304 674 l 301 1067 l 303 1065 l 879 1065 l 879 956 q 753 982 832 968 q 375 1014 607 1008 l 260 706 z "},"6":{"ha":947,"x_min":69,"x_max":864,"o":"m 686 1074 q 408 938 524 1042 q 235 690 293 833 q 178 393 178 546 q 207 200 178 290 q 303 52 236 110 q 474 -6 369 -6 q 629 46 565 -6 q 725 181 693 97 q 757 356 757 264 q 685 590 757 517 q 499 664 614 664 q 251 603 367 664 l 243 619 q 399 692 329 667 q 546 717 469 717 q 689 678 615 717 q 813 558 763 639 q 864 358 864 478 q 815 157 864 244 q 678 21 767 69 q 474 -28 589 -28 q 265 22 357 -28 q 121 159 172 71 q 69 360 69 247 q 145 701 69 544 q 360 962 221 858 q 682 1094 500 1065 l 686 1074 z "},"7":{"ha":824,"x_min":83,"x_max":782,"o":"m 782 985 q 538 742 647 900 q 367 388 429 583 q 304 0 304 192 l 172 0 q 261 369 196 190 q 726 986 419 783 l 83 986 l 83 1067 l 781 1067 l 782 985 z "},"8":{"ha":978,"x_min":83,"x_max":894,"o":"m 585 636 q 810 503 726 586 q 894 296 894 419 q 842 124 894 197 q 697 12 789 51 q 494 -28 606 -28 q 288 12 382 -28 q 139 124 194 51 q 83 294 83 197 q 126 440 83 372 q 238 554 168 507 q 393 624 308 601 q 244 708 304 647 q 185 857 185 768 q 231 983 185 929 q 348 1066 276 1038 q 494 1094 419 1094 q 643 1064 575 1094 q 751 979 711 1033 q 792 857 792 925 q 735 723 792 779 q 585 636 678 667 m 197 290 q 235 144 197 211 q 340 39 272 78 q 494 0 408 0 q 640 36 575 0 q 742 138 706 72 q 779 292 779 204 q 685 485 779 407 q 456 599 590 564 q 318 542 376 586 q 228 431 260 497 q 197 290 197 365 m 283 858 q 367 735 294 792 q 549 656 440 678 q 659 728 624 671 q 694 858 694 785 q 640 1010 694 954 q 494 1067 586 1067 q 382 1041 431 1067 q 307 974 333 1015 q 281 886 281 932 q 283 858 281 878 z "},"9":{"ha":949,"x_min":78,"x_max":865,"o":"m 247 -6 q 526 119 411 21 q 700 356 642 217 q 758 649 758 496 q 690 946 758 821 q 464 1071 621 1071 q 374 1055 421 1071 q 297 1013 328 1039 q 208 892 238 961 q 178 743 178 824 q 255 527 178 599 q 451 456 332 456 q 582 476 515 456 q 710 533 649 496 l 719 518 q 383 410 526 410 q 136 543 225 410 q 78 729 78 632 q 131 908 78 824 q 272 1042 183 992 q 463 1093 360 1093 q 678 1035 588 1093 q 817 876 769 978 q 865 643 865 774 q 790 319 865 460 q 576 90 714 178 q 253 -28 439 1 l 247 -6 z "},"\u0000":{"ha":0,"x_min":0,"x_max":0,"o":""},"\r":{"ha":694,"x_min":0,"x_max":0,"o":""},"\n":{"ha":817,"x_min":76,"x_max":789,"o":"m 789 638 l 629 638 l 629 0 l 518 0 l 518 638 l 358 638 l 358 722 l 518 722 q 514 835 518 797 q 485 883 510 872 l 422 914 q 399 953 396 924 q 286 884 329 918 q 218 800 243 850 q 188 675 193 750 l 188 0 l 76 0 l 76 665 q 84 742 76 706 q 130 827 92 779 q 249 914 168 875 l 556 1050 q 619 1067 593 1067 q 678 1051 650 1067 q 761 997 707 1036 l 751 982 q 685 1003 713 1003 q 651 996 668 1003 l 493 925 q 486 915 486 922 q 493 904 486 908 l 564 869 q 611 823 593 854 q 629 756 629 792 l 629 722 l 789 722 l 789 638 z "}," ":{"ha":542,"x_min":0,"x_max":0,"o":""}," ":{"ha":542,"x_min":0,"x_max":0,"o":""},"!":{"ha":413,"x_min":124,"x_max":289,"o":"m 217 0 q 206 -7 213 -7 q 194 0 201 -7 l 129 65 q 124 76 124 74 q 129 88 124 79 l 194 153 q 206 158 200 158 q 217 153 213 158 l 282 88 q 289 76 289 81 q 282 65 289 72 l 217 0 m 271 1067 q 226 275 240 678 l 188 275 q 142 1067 178 556 l 271 1067 z "},"\"":{"ha":650,"x_min":124,"x_max":526,"o":"m 282 1058 q 289 1047 289 1051 q 282 1036 289 1043 q 258 1001 267 1018 q 221 882 232 944 l 190 882 q 133 1032 174 982 l 129 1036 q 124 1047 124 1044 q 129 1058 124 1050 l 194 1124 q 206 1129 200 1129 q 217 1124 213 1129 l 282 1058 m 367 1036 q 361 1047 361 1044 q 367 1058 361 1050 l 432 1124 q 443 1129 438 1129 q 454 1124 450 1129 l 519 1058 q 526 1047 526 1051 q 519 1036 526 1043 q 496 1001 504 1018 q 458 882 469 944 l 428 882 q 371 1032 411 982 l 367 1036 z "},"#":{"ha":994,"x_min":125,"x_max":869,"o":"m 731 669 l 665 396 l 869 396 l 869 338 l 651 338 l 572 0 l 486 0 l 567 338 l 318 338 l 239 0 l 153 0 l 233 338 l 125 338 l 125 396 l 247 396 l 313 669 l 125 669 l 125 729 l 328 729 l 408 1067 l 492 1067 l 411 729 l 661 729 l 742 1067 l 825 1067 l 744 729 l 869 729 l 869 669 l 731 669 m 581 396 l 646 669 l 397 669 l 332 396 l 581 396 z "},"$":{"ha":875,"x_min":56,"x_max":818,"o":"m 403 483 q 233 519 300 497 q 119 592 165 540 q 69 736 72 643 q 119 888 71 825 q 242 985 167 951 q 403 1025 317 1019 l 403 1111 l 465 1111 l 465 1028 q 652 963 564 1024 q 804 799 740 901 l 715 739 q 604 910 665 849 q 465 988 543 972 l 465 571 q 643 526 569 554 q 767 433 717 497 q 818 254 817 368 q 763 87 818 151 q 628 -6 708 22 q 465 -37 549 -35 l 465 -121 l 403 -121 l 403 -35 q 211 31 304 -32 q 56 194 118 93 l 144 254 q 403 6 243 35 l 403 483 m 163 769 q 193 667 163 706 q 274 611 224 629 q 403 582 325 593 l 403 992 q 292 963 347 988 q 199 889 236 938 q 163 769 163 840 m 465 4 q 643 67 574 7 q 713 242 713 128 q 465 474 713 429 l 465 4 z "},"%":{"ha":1467,"x_min":139,"x_max":1328,"o":"m 1079 496 q 1215 461 1158 496 q 1299 369 1271 426 q 1328 249 1328 313 q 1299 128 1328 185 q 1215 35 1271 71 q 1079 0 1158 0 q 944 35 1000 0 q 859 128 888 71 q 831 249 831 185 q 859 369 831 313 q 944 461 888 426 q 1079 496 1000 496 m 249 775 q 312 663 271 707 q 408 618 353 618 q 453 625 433 618 q 524 676 501 640 q 546 761 546 713 q 526 869 546 808 q 463 978 504 932 q 367 1025 422 1025 q 322 1017 346 1025 q 231 881 231 989 q 249 775 231 829 m 1040 1067 l 1135 1067 l 401 0 l 308 0 l 1040 1067 m 388 571 q 252 606 308 571 q 167 699 196 642 q 139 819 139 756 q 167 940 139 883 q 252 1032 196 997 q 388 1067 308 1067 q 523 1032 467 1067 q 608 940 579 997 q 636 819 636 883 q 608 699 636 756 q 523 606 579 642 q 388 571 467 571 m 940 204 q 1003 92 963 136 q 1100 47 1044 47 q 1144 54 1125 47 q 1215 106 1193 69 q 1238 190 1238 142 q 1218 299 1238 238 q 1155 408 1196 361 q 1058 454 1114 454 q 1014 446 1038 454 q 922 310 922 418 q 940 204 922 258 z "},"&":{"ha":1743,"x_min":97,"x_max":1617,"o":"m 775 1344 q 1125 1264 965 1344 q 1400 1038 1285 1183 q 1581 700 1515 893 q 1617 472 1617 593 q 1572 227 1617 342 q 1442 43 1528 113 q 1239 -26 1357 -26 q 1063 11 1151 -26 q 864 143 974 49 q 709 13 774 53 q 564 -28 644 -28 q 392 11 465 -28 q 281 116 319 50 q 243 261 243 182 q 308 464 243 365 q 506 631 374 563 q 482 768 482 697 q 516 926 482 854 q 610 1039 550 997 q 746 1081 671 1081 q 892 1035 821 1081 q 1019 901 964 990 l 908 831 q 872 945 903 894 q 799 1024 842 996 q 713 1053 756 1053 q 637 1029 674 1053 q 576 960 600 1006 q 553 856 553 915 q 603 666 553 775 q 735 447 654 557 q 903 254 817 338 q 970 418 953 344 q 1000 601 988 492 l 1004 640 l 1161 640 q 1068 447 1143 581 q 932 225 993 314 q 1233 76 1092 76 q 1379 126 1315 76 q 1483 262 1443 176 q 1533 451 1522 347 q 1538 529 1538 492 q 1445 904 1538 725 q 1190 1194 1353 1083 q 826 1306 1026 1306 q 228 900 431 1306 q 97 961 144 940 q 399 1247 218 1149 q 775 1344 579 1344 m 324 331 q 359 203 324 263 q 453 108 394 143 q 578 74 513 74 q 722 91 657 74 q 838 167 786 108 q 515 604 610 378 q 369 475 414 546 q 324 331 324 404 z "},"'":{"ha":249,"x_min":51,"x_max":225,"o":"m 60 969 q 60 988 51 978 l 129 1057 q 146 1057 140 1068 l 217 988 q 217 969 225 978 l 78 828 l 57 850 l 111 917 l 60 969 z "},"(":{"ha":608,"x_min":83,"x_max":497,"o":"m 497 1133 q 323 956 396 1074 q 212 688 250 839 q 174 378 174 538 q 212 65 174 217 q 323 -203 250 -86 q 497 -381 396 -321 l 486 -403 q 263 -212 354 -337 q 128 68 172 -86 q 83 375 83 222 q 128 681 83 526 q 263 963 172 836 q 486 1156 354 1090 l 497 1133 z "},")":{"ha":608,"x_min":111,"x_max":525,"o":"m 122 1156 q 345 963 254 1090 q 481 681 436 836 q 525 375 525 526 q 481 68 525 222 q 345 -212 436 -86 q 122 -403 254 -337 l 111 -381 q 285 -203 213 -321 q 397 65 358 -86 q 435 378 435 217 q 397 688 435 538 q 285 956 358 839 q 111 1133 213 1074 l 122 1156 z "},"*":{"ha":635,"x_min":113,"x_max":524,"o":"m 442 856 q 392 865 421 865 q 333 857 361 865 q 425 796 372 811 q 455 775 444 790 q 465 740 465 760 q 447 700 465 714 q 410 688 433 688 q 367 705 385 688 q 350 746 349 722 q 318 844 356 788 q 285 742 279 793 q 267 702 285 719 q 225 685 249 685 q 197 693 213 685 q 176 715 183 701 q 168 742 168 728 q 180 776 168 761 q 213 796 192 790 q 260 819 238 803 q 300 857 283 836 q 244 865 275 865 q 189 854 213 865 q 169 851 182 851 q 129 867 146 851 q 113 907 113 883 q 131 949 113 933 q 172 964 149 964 q 199 957 186 964 q 221 938 213 950 q 307 875 243 899 q 271 976 304 943 q 258 1008 258 992 q 274 1045 258 1028 q 313 1067 290 1063 q 358 1051 339 1068 q 376 1010 376 1033 q 363 975 376 990 q 328 875 331 938 q 417 940 393 899 q 464 964 433 964 q 505 949 486 964 q 524 910 524 935 q 506 869 524 886 q 464 851 489 851 q 442 856 453 851 z "},"+":{"ha":938,"x_min":125,"x_max":813,"o":"m 125 499 l 125 567 l 435 567 l 435 874 l 503 874 l 503 567 l 813 567 l 813 499 l 503 499 l 503 193 l 435 193 l 435 499 l 125 499 z "},",":{"ha":375,"x_min":39,"x_max":240,"o":"m 74 74 q 74 92 65 82 l 143 161 q 161 161 153 171 l 232 92 q 232 74 240 82 l 60 -103 l 39 -81 l 118 26 l 74 74 z "},"-":{"ha":714,"x_min":125,"x_max":589,"o":"m 125 390 l 125 492 l 589 492 l 589 390 l 125 390 z "},".":{"ha":371,"x_min":68,"x_max":233,"o":"m 161 3 q 150 -4 157 -4 q 139 3 146 -4 l 74 68 q 68 79 68 76 q 74 90 68 82 l 139 156 q 150 161 144 161 q 161 156 157 161 l 226 90 q 233 79 233 83 q 226 68 233 75 l 161 3 z "},"/":{"ha":640,"x_min":83,"x_max":571,"o":"m 488 1067 l 571 1067 l 169 0 l 83 0 l 488 1067 z "},":":{"ha":375,"x_min":65,"x_max":240,"o":"m 74 492 q 74 510 65 500 l 143 579 q 161 579 153 589 l 232 510 q 232 492 240 500 l 161 421 q 143 421 153 413 l 74 492 m 74 74 q 74 92 65 82 l 143 161 q 161 161 153 171 l 232 92 q 232 74 240 82 l 161 3 q 143 3 153 -6 l 74 74 z "},";":{"ha":378,"x_min":39,"x_max":240,"o":"m 74 492 q 74 510 65 500 l 143 579 q 161 579 153 589 l 232 510 q 232 492 240 500 l 161 421 q 143 421 153 413 l 74 492 m 118 26 l 74 74 q 74 92 65 82 l 143 161 q 161 161 153 171 l 232 92 q 232 74 240 82 l 60 -103 l 39 -81 l 118 26 z "},"<":{"ha":781,"x_min":83,"x_max":669,"o":"m 669 224 l 669 146 l 83 472 l 83 533 l 669 860 l 669 782 l 171 503 l 669 224 z "},"=":{"ha":944,"x_min":125,"x_max":819,"o":"m 125 718 l 819 718 l 819 650 l 125 650 l 125 718 m 125 417 l 819 417 l 819 349 l 125 349 l 125 417 z "},">":{"ha":781,"x_min":111,"x_max":697,"o":"m 111 860 l 697 533 l 697 472 l 111 146 l 111 224 l 610 503 l 111 782 l 111 860 z "},"?":{"ha":915,"x_min":97,"x_max":789,"o":"m 785 793 q 723 666 764 715 q 613 561 682 617 q 526 484 558 518 q 473 399 494 450 q 451 278 451 349 l 415 278 q 447 472 415 400 q 529 596 478 544 q 571 637 539 606 q 628 701 603 668 q 669 767 654 733 q 692 878 692 815 q 667 999 692 942 q 592 1094 642 1057 q 475 1131 543 1131 q 400 1117 433 1131 q 333 1078 367 1104 q 231 992 299 1051 l 190 956 l 97 1015 q 297 1135 213 1107 q 454 1164 382 1164 q 617 1114 539 1164 q 742 987 694 1064 q 789 836 789 910 q 785 793 789 814 m 357 68 q 351 79 351 76 q 357 90 351 82 l 422 156 q 433 161 428 161 q 444 156 440 161 l 510 90 q 517 79 517 83 q 510 68 517 75 l 444 3 q 433 -4 440 -4 q 422 3 429 -4 l 357 68 z "},"@":{"ha":1317,"x_min":99,"x_max":1219,"o":"m 663 1093 q 942 1017 814 1093 q 1144 813 1069 942 q 1219 533 1219 685 q 1190 366 1217 447 q 1114 231 1164 285 q 1045 181 1083 199 q 968 164 1007 164 q 883 189 922 164 q 818 263 843 214 q 607 169 721 169 q 544 176 579 169 q 388 269 449 196 q 328 467 328 343 q 338 571 328 518 q 393 722 353 656 q 491 827 433 789 q 613 865 549 865 q 744 822 679 865 q 864 689 808 778 l 882 818 l 986 815 l 929 400 q 924 328 924 347 q 932 278 924 297 q 961 251 940 260 q 988 246 974 246 q 1062 297 1032 246 q 1110 414 1092 349 q 1132 579 1132 493 q 1128 653 1132 615 q 1034 884 1111 781 q 842 1029 957 988 q 701 1053 776 1053 q 508 1008 601 1053 q 340 881 414 964 q 226 688 265 799 q 192 490 192 588 q 256 240 192 353 q 431 61 321 126 q 669 -4 540 -4 q 943 75 813 -4 l 963 61 q 657 -28 824 -28 q 378 47 507 -28 q 174 250 250 122 q 99 529 99 378 q 174 814 99 685 q 378 1018 249 943 q 663 1093 507 1093 m 442 547 q 433 461 433 504 q 472 299 433 367 q 574 218 511 232 q 626 213 596 213 q 750 250 696 213 q 817 360 804 288 l 854 618 q 836 689 858 658 q 661 797 753 797 q 525 726 586 797 q 442 547 464 654 z "},"A":{"ha":1051,"x_min":49,"x_max":1003,"o":"m 726 364 q 704 382 719 379 q 683 383 697 383 q 640 378 658 383 l 607 367 l 469 301 q 339 261 392 261 q 250 325 272 261 q 217 196 233 253 q 192 94 203 144 q 174 0 181 44 l 49 0 l 517 1067 l 533 1067 l 1003 0 l 886 0 l 726 364 m 261 354 q 271 334 258 343 q 296 326 283 325 q 328 336 308 328 q 371 356 347 344 q 410 374 394 367 l 521 426 q 608 449 567 449 q 665 435 642 449 q 713 399 688 422 l 490 908 q 358 613 433 789 q 261 354 283 436 z "},"B":{"ha":917,"x_min":83,"x_max":875,"o":"m 569 664 q 704 619 632 664 q 826 499 776 575 q 875 335 875 422 q 782 94 875 188 q 481 0 689 0 l 83 0 l 83 1068 l 465 1068 q 663 1015 583 1068 q 742 847 742 961 q 724 763 742 794 q 677 713 706 731 q 597 675 649 696 q 569 664 592 674 m 476 29 q 606 71 547 29 q 701 181 665 113 q 740 325 736 249 q 709 456 743 390 q 610 563 675 521 q 457 606 544 606 q 258 551 365 606 q 211 509 229 535 q 193 453 193 483 l 193 26 l 476 29 m 193 551 q 251 586 215 571 q 349 622 288 601 q 491 680 436 654 q 585 747 546 706 q 625 847 625 789 q 571 981 625 928 q 426 1035 517 1035 l 193 1033 l 193 551 z "},"C":{"ha":1099,"x_min":42,"x_max":1057,"o":"m 1057 375 q 867 83 994 193 q 554 -28 739 -28 q 274 51 390 -28 q 100 259 158 131 q 42 533 42 388 q 99 799 42 679 q 258 996 156 919 q 494 1089 361 1072 q 575 1093 536 1093 q 787 1043 685 1093 q 1006 865 889 993 l 896 793 q 737 983 819 919 q 547 1047 654 1047 q 394 1019 474 1047 q 200 864 265 976 q 135 607 135 751 q 174 381 135 493 q 273 214 208 288 q 422 99 338 140 q 597 57 506 57 q 756 95 671 57 q 917 208 842 133 q 1038 388 993 283 l 1057 375 z "},"D":{"ha":1050,"x_min":83,"x_max":1008,"o":"m 1008 533 q 939 260 1008 381 q 747 70 869 139 q 471 0 625 1 l 83 0 l 83 1067 l 471 1067 q 747 999 625 1067 q 939 810 869 932 q 1008 533 1008 689 m 419 29 q 667 97 557 29 q 838 281 776 165 q 899 531 899 396 q 837 769 899 653 q 665 960 775 886 q 419 1033 556 1033 l 193 1032 l 193 26 l 419 29 z "},"E":{"ha":892,"x_min":83,"x_max":836,"o":"m 193 38 q 650 75 419 39 q 836 110 731 86 l 836 0 l 83 0 l 83 1067 l 836 1067 l 836 957 q 650 992 731 981 q 193 1029 446 1024 l 193 542 q 254 608 214 583 q 353 633 294 633 q 426 624 381 633 q 529 593 472 613 q 565 582 535 592 q 619 572 596 572 q 710 611 661 572 l 725 599 q 638 526 686 556 q 536 497 589 497 q 481 507 508 497 l 453 515 q 351 544 386 536 q 288 553 315 553 q 257 549 272 553 q 214 519 232 542 q 193 469 196 496 l 193 38 z "},"F":{"ha":806,"x_min":83,"x_max":792,"o":"m 792 957 q 628 982 718 972 q 193 1011 428 1006 l 193 528 q 250 593 214 569 q 333 617 286 617 q 383 610 353 617 q 478 581 442 594 q 531 565 506 571 q 575 558 557 558 q 667 597 618 558 l 682 585 q 594 513 643 542 q 493 483 546 483 q 438 493 465 483 q 340 521 374 513 q 282 529 306 529 q 254 526 274 529 q 210 500 226 521 q 193 450 193 479 l 193 0 l 83 0 l 83 1067 l 792 1067 l 792 957 z "},"G":{"ha":1107,"x_min":49,"x_max":1057,"o":"m 763 567 q 846 590 800 590 q 948 558 899 590 q 1027 474 997 526 q 1057 365 1057 422 q 1035 278 1057 321 l 1033 275 q 834 59 958 144 q 561 -26 710 -26 q 281 53 397 -26 q 107 260 165 132 q 49 535 49 389 q 106 802 49 681 q 265 1000 163 924 q 501 1093 368 1076 q 582 1097 543 1097 q 794 1047 692 1097 q 1013 869 896 997 l 903 797 q 744 988 826 924 q 554 1051 661 1051 q 401 1024 481 1051 q 208 867 272 981 q 143 607 143 754 q 182 381 143 493 q 357 147 236 235 q 625 58 478 58 q 787 94 718 58 q 911 188 856 129 q 957 258 942 219 q 972 339 972 297 q 960 410 972 376 q 924 467 947 443 q 877 501 900 490 q 824 513 854 513 q 647 454 764 513 l 501 381 l 493 400 l 763 567 z "},"H":{"ha":947,"x_min":83,"x_max":864,"o":"m 864 0 l 754 0 l 754 535 q 721 574 754 567 l 704 575 q 635 562 674 575 q 497 506 597 549 l 358 446 q 283 428 318 428 q 193 476 228 428 l 193 0 l 83 0 l 83 1067 l 193 1067 l 193 532 q 201 512 193 521 q 219 503 208 503 q 295 522 247 503 q 517 617 343 540 q 543 628 531 622 q 565 638 556 633 q 635 653 600 653 q 701 638 669 653 q 754 594 733 622 l 754 1067 l 864 1067 l 864 0 z "},"I":{"ha":374,"x_min":132,"x_max":242,"o":"m 132 0 l 132 1067 l 242 1067 l 242 0 l 132 0 z "},"J":{"ha":628,"x_min":0,"x_max":544,"o":"m 544 -58 q 505 -183 539 -121 q 365 -294 471 -244 l 10 -444 l 1 -425 q 217 -315 125 -372 q 372 -187 310 -257 q 433 -42 433 -117 l 433 906 q 254 813 339 846 l 8 708 l 0 728 q 192 836 104 781 q 344 950 278 890 q 433 1067 410 1010 l 544 1067 l 544 -58 z "},"K":{"ha":1000,"x_min":83,"x_max":1125,"o":"m 678 426 q 768 263 714 378 q 860 91 819 160 q 966 -50 900 22 q 1125 -178 1032 -122 l 1108 -199 q 829 -14 933 -119 q 636 272 725 92 q 552 403 603 343 q 444 493 501 464 q 350 517 394 517 q 263 485 299 517 l 193 422 l 193 0 l 83 0 l 83 1067 l 193 1067 l 193 482 q 525 817 336 625 l 599 892 q 769 1067 693 986 l 896 1067 l 340 556 q 418 567 375 567 q 559 529 492 567 q 678 426 626 492 z "},"L":{"ha":885,"x_min":90,"x_max":829,"o":"m 200 56 q 650 85 401 57 q 829 110 749 96 l 829 0 l 90 0 l 90 1067 l 200 1067 l 200 56 z "},"M":{"ha":1408,"x_min":42,"x_max":1367,"o":"m 1238 0 l 938 990 l 864 704 q 679 0 747 246 l 639 0 l 340 990 q 235 534 271 721 q 156 0 200 347 l 42 0 l 313 1067 l 429 1067 l 696 218 l 911 1067 l 1028 1067 l 1367 0 l 1238 0 z "},"N":{"ha":1064,"x_min":83,"x_max":981,"o":"m 896 -14 q 832 -29 858 -29 q 753 -4 790 -29 q 675 75 717 21 q 589 234 628 136 q 501 485 550 332 q 395 776 439 671 q 293 946 351 882 q 232 996 269 972 q 171 1019 194 1019 q 143 983 143 1019 q 178 219 143 521 q 213 0 192 92 l 83 0 l 83 1035 l 176 1079 q 239 1094 210 1094 q 282 1086 261 1094 q 328 1058 303 1078 q 443 923 392 1010 q 531 740 494 836 q 617 494 568 643 q 697 265 664 350 q 769 126 731 181 q 826 73 783 106 q 892 40 868 40 q 919 82 919 40 q 885 836 919 503 q 851 1067 871 974 l 981 1067 l 981 25 l 896 -14 z "},"O":{"ha":1111,"x_min":42,"x_max":1069,"o":"m 554 1094 q 274 1015 390 1094 q 100 808 158 936 q 42 533 42 679 q 100 259 42 388 q 274 51 158 131 q 554 -28 390 -28 q 835 51 719 -28 q 1010 259 951 131 q 1069 533 1069 388 q 1010 808 1069 679 q 835 1015 951 936 q 554 1094 719 1094 m 172 394 q 135 614 135 501 q 201 869 135 758 q 397 1022 267 979 q 524 1044 463 1044 q 773 940 664 1044 q 935 676 882 836 q 974 447 974 563 q 912 199 974 307 q 721 49 850 92 q 582 25 651 25 q 343 122 447 25 q 172 394 239 218 z "},"P":{"ha":896,"x_min":83,"x_max":847,"o":"m 193 526 q 206 481 193 493 q 250 468 219 468 q 551 499 444 468 q 702 596 658 529 q 746 776 746 663 q 633 978 746 926 q 343 1031 519 1031 q 226 1028 296 1031 l 193 1026 l 193 526 m 83 1068 l 361 1068 q 578 1051 479 1068 q 757 970 676 1035 q 847 776 838 906 q 690 502 847 574 q 308 431 533 431 l 258 431 l 193 431 l 193 0 l 83 0 l 83 1068 z "},"Q":{"ha":1201,"x_min":35,"x_max":1326,"o":"m 939 154 q 1031 329 1000 232 q 1063 533 1063 426 q 1003 808 1063 679 q 828 1015 944 936 q 547 1094 713 1094 q 267 1015 383 1094 q 93 808 151 936 q 35 533 35 679 q 93 259 35 388 q 267 51 151 131 q 547 -28 383 -28 q 861 76 731 -28 q 1052 -92 953 -33 q 1313 -193 1151 -150 l 1326 -169 q 1107 -40 1197 -121 q 939 154 1017 42 m 211 271 q 150 435 172 346 q 128 613 128 524 q 191 867 128 757 q 388 1022 254 978 q 513 1044 450 1044 q 693 994 608 1044 q 840 858 778 943 q 938 668 903 772 q 974 454 974 564 q 908 199 974 304 q 781 363 832 311 q 575 435 704 435 q 506 429 539 435 q 454 417 474 424 q 322 351 393 396 q 251 300 294 336 q 230 284 240 292 q 211 271 219 276 m 253 201 q 243 235 243 215 q 261 279 243 261 q 345 340 294 311 q 440 379 396 368 q 500 386 475 386 q 609 360 561 386 q 691 295 657 333 q 769 197 725 257 l 786 174 q 832 111 810 140 q 578 21 713 21 q 397 68 482 21 q 253 201 311 115 z "},"R":{"ha":992,"x_min":83,"x_max":1117,"o":"m 669 429 q 601 487 639 469 q 513 507 564 504 q 662 550 593 515 q 772 644 731 585 q 814 781 814 703 q 741 974 814 910 q 574 1053 668 1038 q 361 1068 481 1068 l 83 1068 l 83 0 l 193 0 l 193 492 l 260 492 q 425 469 361 488 q 538 406 489 451 q 628 275 586 361 q 821 -11 717 94 q 1100 -196 925 -117 l 1117 -175 q 958 -47 1024 -119 q 851 94 892 25 q 760 265 811 163 q 669 429 706 381 m 193 1026 q 257 1029 213 1026 q 371 1033 311 1033 q 615 981 522 1033 q 708 778 708 928 q 675 648 708 703 q 541 559 642 593 q 250 526 440 525 q 206 539 219 526 q 193 585 193 551 l 193 1026 z "},"S":{"ha":1015,"x_min":56,"x_max":960,"o":"m 960 289 q 894 106 960 178 q 731 2 828 35 q 542 -31 635 -31 q 250 48 381 -31 q 56 283 119 126 l 82 297 q 195 160 122 218 q 358 71 268 101 q 536 40 447 40 q 753 108 667 40 q 840 304 840 175 q 801 422 840 379 q 703 483 761 464 q 544 519 644 501 l 493 529 l 440 538 q 274 570 343 550 q 151 641 204 590 q 99 783 99 692 q 165 954 100 885 q 328 1058 229 1024 q 535 1092 428 1092 q 763 1027 656 1092 q 946 850 871 963 l 843 788 q 694 988 779 921 q 499 1054 610 1054 q 364 1028 432 1054 q 250 948 296 1001 q 204 817 204 894 q 247 705 204 744 q 353 650 289 665 q 529 619 417 635 q 753 577 668 601 q 899 485 839 553 q 960 289 960 417 z "},"T":{"ha":992,"x_min":21,"x_max":971,"o":"m 444 1013 q 132 978 253 999 q 21 956 97 972 l 21 1067 l 971 1067 l 971 956 q 861 978 893 972 q 556 1013 746 999 l 556 0 l 444 0 l 444 1013 z "},"U":{"ha":1043,"x_min":49,"x_max":994,"o":"m 863 1067 q 972 543 950 661 q 994 390 994 425 q 933 165 994 260 q 758 22 871 71 q 497 -28 646 -28 q 262 23 364 -28 q 104 160 160 74 q 49 346 49 246 q 117 574 49 465 q 335 767 185 682 q 371 808 371 790 q 365 825 371 819 l 92 1067 l 257 1067 l 468 875 q 485 842 485 858 q 458 806 485 822 l 356 735 q 210 570 257 660 q 164 385 164 481 q 210 199 164 286 q 333 59 256 111 q 497 7 410 7 q 681 51 590 7 q 828 174 771 96 q 886 347 886 251 q 870 447 886 361 q 824 681 854 532 q 775 929 794 831 l 749 1067 l 863 1067 z "},"V":{"ha":1050,"x_min":49,"x_max":1008,"o":"m 994 792 q 1008 708 1008 751 q 960 557 1008 625 l 556 0 l 426 0 l 49 1067 l 183 1067 l 508 121 q 526 100 514 108 q 553 92 539 92 q 588 108 575 92 l 818 456 q 892 686 892 567 q 875 790 892 739 l 779 1067 l 900 1067 l 994 792 z "},"W":{"ha":1411,"x_min":49,"x_max":1369,"o":"m 1353 642 q 1369 549 1369 596 q 1318 386 1369 464 l 1049 0 l 954 0 l 810 397 l 532 0 l 428 0 l 49 1067 l 179 1067 l 507 111 q 519 97 511 101 q 533 92 526 92 q 556 106 547 92 l 782 475 l 576 1067 l 697 1067 l 1029 111 q 1041 98 1033 103 q 1056 93 1049 93 q 1078 107 1069 93 l 1207 328 q 1258 514 1258 415 q 1242 618 1258 568 l 1079 1067 l 1201 1067 l 1353 642 z "},"X":{"ha":1065,"x_min":49,"x_max":1017,"o":"m 492 490 q 345 283 415 393 q 199 0 275 174 l 49 0 l 488 550 l 117 1069 l 253 1069 l 557 644 q 684 842 629 750 q 797 1069 739 935 l 947 1069 l 582 611 l 1017 3 l 878 3 l 511 514 l 492 490 z "},"Y":{"ha":985,"x_min":42,"x_max":943,"o":"m 582 560 q 549 478 549 514 l 549 0 l 436 0 l 436 478 q 403 560 436 514 l 42 1068 l 185 1068 q 345 751 261 890 q 493 539 429 613 q 641 751 557 613 q 801 1068 725 890 l 943 1068 l 582 560 z "},"Z":{"ha":1054,"x_min":42,"x_max":1013,"o":"m 610 572 q 426 438 531 528 q 244 242 321 349 q 167 47 167 136 q 758 85 468 57 q 1013 111 917 99 l 1013 0 l 42 0 q 97 211 42 119 q 231 365 153 303 q 433 504 310 426 q 590 611 549 578 q 789 817 708 704 q 869 1018 869 931 q 283 982 479 1001 q 49 957 158 969 l 49 1068 l 1000 1068 q 951 854 1000 942 q 832 713 901 767 q 650 596 763 660 l 610 572 z "},"[":{"ha":472,"x_min":125,"x_max":403,"o":"m 403 1067 l 403 1011 l 219 1011 l 219 -390 l 403 -390 l 403 -444 l 125 -444 l 125 1067 l 403 1067 z "},"\\":{"ha":640,"x_min":69,"x_max":557,"o":"m 69 1067 l 153 1067 l 557 0 l 471 0 l 69 1067 z "},"]":{"ha":472,"x_min":69,"x_max":347,"o":"m 69 -444 l 69 -390 l 253 -390 l 253 1011 l 69 1011 l 69 1067 l 347 1067 l 347 -444 l 69 -444 z "},"^":{"ha":881,"x_min":83,"x_max":797,"o":"m 161 693 l 83 693 l 440 1333 l 797 693 l 719 693 l 440 1192 l 161 693 z "},"_":{"ha":944,"x_min":56,"x_max":889,"o":"m 56 -278 l 889 -278 l 889 -346 l 56 -346 l 56 -278 z "},"`":{"ha":400,"x_min":69,"x_max":331,"o":"m 69 1269 l 142 1333 q 275 1213 208 1268 q 331 1165 307 1188 l 311 1144 l 69 1269 z "},"a":{"ha":857,"x_min":42,"x_max":843,"o":"m 696 89 q 543 1 632 32 q 363 -29 454 -29 q 202 1 275 -29 q 85 92 129 31 q 42 243 42 153 q 81 389 42 325 q 186 488 119 453 q 333 524 253 524 q 567 447 453 524 l 538 519 q 461 626 507 589 q 349 663 415 663 q 271 651 315 663 q 160 610 217 636 q 57 556 103 585 l 47 574 l 231 696 q 374 738 297 738 q 535 690 461 738 q 638 563 608 642 l 843 0 l 731 0 l 696 89 m 146 243 q 177 110 146 165 q 261 28 208 56 q 376 0 314 0 q 524 40 451 0 q 649 154 597 79 q 658 186 658 168 q 650 219 658 206 l 585 389 q 532 444 571 428 q 356 488 433 488 q 200 421 254 488 q 146 243 146 354 z "},"b":{"ha":914,"x_min":75,"x_max":865,"o":"m 568 1046 q 376 944 458 999 q 240 824 294 890 q 186 685 186 757 l 186 540 q 347 675 257 629 q 529 721 438 721 q 697 676 621 721 q 819 548 774 632 q 865 349 865 464 q 817 149 865 229 q 688 28 768 68 q 511 -11 608 -11 q 341 19 426 -11 q 186 106 256 50 l 186 0 l 75 0 l 75 701 q 115 826 81 764 q 254 938 150 888 l 560 1065 l 568 1046 m 186 275 q 197 217 186 242 q 326 70 249 121 q 485 19 403 19 q 614 57 554 19 q 710 169 674 94 q 750 349 747 243 q 721 512 753 439 q 629 626 689 585 q 494 667 569 667 q 324 615 414 667 q 217 540 247 571 q 186 474 186 508 l 186 275 z "},"c":{"ha":867,"x_min":43,"x_max":832,"o":"m 656 525 q 403 721 549 721 q 319 707 361 721 q 190 611 231 678 q 149 456 149 544 q 176 292 149 382 q 287 104 221 169 q 449 39 353 39 q 483 40 471 39 q 671 117 585 60 q 806 285 757 175 l 832 272 q 693 78 768 147 q 528 -12 618 10 q 432 -26 490 -26 q 220 28 308 -26 q 88 172 132 83 q 43 363 43 261 q 88 553 43 464 q 220 697 132 642 q 432 751 308 751 q 618 702 536 751 q 749 585 700 653 l 656 525 z "},"d":{"ha":914,"x_min":49,"x_max":839,"o":"m 660 938 q 799 826 765 888 q 839 701 833 764 l 839 0 l 728 0 l 728 106 q 573 19 658 50 q 403 -11 488 -11 q 226 28 306 -11 q 97 149 146 68 q 49 349 49 229 q 94 548 49 464 q 215 676 139 632 q 382 719 290 719 q 563 674 472 719 q 728 540 654 629 l 728 685 q 673 823 728 756 q 536 944 618 890 q 346 1046 451 1000 l 354 1065 l 660 938 m 164 363 q 200 176 164 253 q 296 60 236 99 q 426 21 356 21 q 586 72 508 21 q 717 217 664 122 q 728 275 728 242 l 728 474 q 697 540 728 508 q 590 615 667 571 q 419 667 500 667 q 288 628 346 667 q 197 519 229 589 q 164 363 164 450 z "},"e":{"ha":867,"x_min":43,"x_max":832,"o":"m 806 283 q 670 108 756 172 q 488 26 585 44 q 456 25 476 25 q 292 91 360 25 q 185 265 224 157 l 799 504 q 667 683 760 615 q 432 750 574 750 q 220 695 308 750 q 88 551 132 640 q 43 361 43 463 q 88 171 43 260 q 220 27 132 82 q 432 -28 308 -28 q 528 -14 490 -28 q 693 77 618 8 q 832 271 768 146 l 806 283 m 176 290 q 149 456 149 381 q 190 611 149 544 q 319 707 231 678 q 406 722 368 722 q 556 665 492 722 q 664 514 621 607 l 176 290 z "},"f":{"ha":486,"x_min":28,"x_max":458,"o":"m 458 638 l 299 638 l 299 0 l 188 0 l 188 638 l 28 638 l 28 722 l 188 722 q 183 835 188 797 q 154 883 179 872 l 92 914 q 74 929 81 919 q 68 951 68 939 q 92 989 68 979 q 156 1018 133 1006 l 225 1050 q 289 1067 263 1067 q 348 1051 319 1067 q 431 997 376 1036 l 421 982 q 354 1003 382 1003 q 321 996 338 1003 l 163 925 q 156 915 156 922 q 163 904 156 908 l 233 869 q 281 823 263 854 q 299 756 299 792 l 299 722 l 458 722 l 458 638 z "},"g":{"ha":968,"x_min":29,"x_max":939,"o":"m 661 115 q 785 171 718 171 q 893 124 847 171 q 939 13 939 76 q 888 -112 939 -51 q 728 -215 836 -172 l 240 -444 l 232 -425 q 442 -311 308 -386 q 765 -97 669 -179 q 815 -1 815 -53 q 788 65 815 39 q 721 85 760 90 q 645 51 682 78 q 550 -29 608 24 q 408 -141 469 -103 q 269 -179 346 -179 q 145 -151 200 -179 q 60 -77 90 -124 q 29 25 29 -31 q 72 149 29 89 q 200 257 114 210 q 135 349 157 297 q 113 454 113 400 q 156 599 113 531 q 283 708 199 667 q 489 750 368 750 q 597 738 538 750 q 629 733 617 733 q 681 746 649 733 q 753 775 728 761 l 781 788 l 792 772 l 697 706 l 706 701 q 825 595 783 661 q 867 456 867 529 q 823 311 867 379 q 694 201 779 243 q 489 160 608 160 q 258 214 351 160 q 229 222 244 222 q 197 213 213 222 q 171 188 181 203 q 138 85 138 136 q 162 1 138 39 q 225 -58 186 -36 q 306 -79 264 -79 q 469 -34 385 -79 q 661 115 554 11 m 222 457 q 286 268 222 343 q 489 193 350 193 q 692 267 629 193 q 754 457 754 342 q 691 642 754 569 q 489 715 628 715 q 285 642 349 715 q 222 457 222 569 z "},"h":{"ha":793,"x_min":69,"x_max":738,"o":"m 736 563 q 738 514 738 546 l 736 418 l 736 0 l 625 0 l 625 519 q 591 627 625 588 q 497 667 557 667 q 449 661 471 667 q 214 571 365 640 q 181 521 183 557 l 181 0 l 69 0 l 69 701 q 110 826 75 764 q 249 938 144 888 l 554 1065 l 563 1046 q 371 944 453 999 q 235 824 289 890 q 181 685 181 757 l 181 578 q 453 703 264 619 q 554 726 503 726 q 679 683 626 726 q 736 563 732 639 z "},"i":{"ha":331,"x_min":63,"x_max":268,"o":"m 108 0 l 108 722 l 219 722 l 219 0 l 108 0 m 69 996 q 63 1007 63 1000 q 69 1018 63 1014 l 160 1065 q 171 1065 165 1067 l 261 1018 q 268 1007 268 1015 q 261 996 268 1000 l 171 947 q 160 947 165 946 l 69 996 z "},"j":{"ha":333,"x_min":-319,"x_max":271,"o":"m 224 722 l 224 -58 q 184 -183 218 -121 q 44 -294 150 -244 l -311 -444 l -319 -425 q -104 -315 -196 -372 q 51 -187 -11 -257 q 113 -42 113 -117 l 113 722 l 224 722 m 72 994 q 65 1006 65 999 q 72 1017 65 1013 l 163 1064 q 174 1064 168 1065 l 264 1017 q 271 1006 271 1014 q 264 994 271 999 l 174 946 q 163 946 168 944 l 72 994 z "},"k":{"ha":749,"x_min":75,"x_max":735,"o":"m 599 0 l 283 392 l 186 344 l 186 0 l 75 0 l 75 701 q 115 826 81 764 q 254 938 150 888 l 560 1065 l 568 1046 q 376 944 458 999 q 240 824 294 890 q 186 685 186 757 l 186 386 l 460 514 q 499 540 483 524 q 515 575 515 556 q 503 608 515 592 l 439 679 q 408 706 421 697 q 372 722 394 715 l 469 722 q 532 708 501 722 q 583 669 563 694 l 622 622 q 635 589 635 608 q 626 560 635 574 q 604 540 618 547 l 382 433 l 735 0 l 599 0 z "},"l":{"ha":335,"x_min":76,"x_max":467,"o":"m 76 724 q 108 851 76 779 q 253 976 140 922 l 458 1064 l 467 1044 q 417 1022 464 1043 q 296 953 369 1000 q 225 876 260 931 q 188 733 190 822 l 188 0 l 76 0 l 76 724 z "},"m":{"ha":1138,"x_min":56,"x_max":1075,"o":"m 1074 563 q 1075 514 1075 546 l 1074 418 l 1074 0 l 963 0 l 963 519 q 930 626 963 585 q 846 667 897 667 q 794 657 819 667 q 650 572 733 632 q 621 515 621 551 l 619 418 l 619 0 l 508 0 l 508 519 q 476 626 508 585 q 392 667 443 667 q 340 657 365 667 q 196 572 279 632 q 167 515 167 551 l 167 0 l 56 0 l 56 722 l 167 722 l 167 578 q 343 696 257 649 q 454 726 399 726 q 563 686 518 726 q 618 578 608 646 q 797 696 731 660 q 910 726 853 726 q 1024 683 978 726 q 1074 563 1069 639 z "},"n":{"ha":799,"x_min":69,"x_max":736,"o":"m 625 0 l 625 519 q 504 657 625 657 q 377 632 443 657 q 214 563 311 607 q 181 510 181 547 l 181 0 l 69 0 l 69 722 l 181 722 l 181 578 q 453 703 264 619 q 554 726 503 726 q 679 683 626 726 q 736 563 732 639 l 736 0 l 625 0 z "},"o":{"ha":865,"x_min":43,"x_max":822,"o":"m 432 750 q 220 695 308 750 q 88 551 132 640 q 43 361 43 463 q 88 171 43 260 q 220 27 132 82 q 432 -28 308 -28 q 644 27 556 -28 q 778 171 733 82 q 822 361 822 260 q 778 551 822 463 q 644 695 733 640 q 432 750 556 750 m 181 276 q 149 453 149 369 q 190 610 149 543 q 321 707 231 676 q 408 722 363 722 q 578 644 508 722 q 689 446 649 565 q 722 264 722 343 q 549 17 722 75 q 463 1 500 1 q 292 80 364 1 q 181 276 221 158 z "},"p":{"ha":901,"x_min":63,"x_max":853,"o":"m 63 -444 l 63 722 l 174 722 l 174 540 q 335 675 244 629 q 517 721 425 721 q 685 676 608 721 q 807 548 761 632 q 853 349 853 464 q 804 149 853 229 q 676 28 756 68 q 499 -11 596 -11 q 328 19 414 -11 q 174 106 243 50 l 174 -444 l 63 -444 m 174 260 q 194 189 174 224 q 317 66 244 108 q 465 24 389 24 q 600 62 538 24 q 700 176 663 100 q 738 361 738 253 q 705 518 738 449 q 614 627 672 588 q 482 667 556 667 q 311 615 401 667 q 207 542 238 572 q 174 481 176 513 l 174 260 z "},"q":{"ha":1069,"x_min":56,"x_max":1042,"o":"m 846 -194 q 842 -224 846 -210 q 825 -265 839 -239 q 917 -192 867 -221 q 1032 -135 968 -164 l 1042 -158 q 1018 -170 1040 -160 q 947 -214 996 -181 q 875 -275 900 -250 q 735 -444 790 -354 l 735 106 q 580 19 665 50 q 410 -11 494 -11 q 233 28 313 -11 q 104 149 153 68 q 56 349 56 229 q 101 548 56 464 q 222 676 146 632 q 389 719 297 719 q 570 674 479 719 q 735 540 661 629 l 735 722 l 846 722 l 846 -194 m 171 363 q 208 178 171 254 q 308 63 246 101 q 443 24 371 24 q 592 66 519 24 q 714 189 664 108 q 735 260 735 224 l 735 481 q 701 542 732 513 q 597 615 671 572 q 426 667 507 667 q 294 628 353 667 q 203 519 236 589 q 171 363 171 450 z "},"r":{"ha":535,"x_min":63,"x_max":535,"o":"m 415 564 q 385 581 399 568 q 353 615 372 593 q 317 651 331 640 q 289 660 304 661 q 240 632 267 657 q 193 574 213 607 q 174 517 174 542 l 174 0 l 63 0 l 63 722 l 174 722 l 174 585 q 263 687 213 638 q 342 736 314 736 q 388 722 368 736 q 435 676 407 707 q 478 634 458 649 q 521 619 497 619 l 535 622 q 492 588 496 590 q 429 561 453 561 q 415 564 424 561 z "},"s":{"ha":782,"x_min":35,"x_max":743,"o":"m 183 539 q 213 474 183 496 q 286 442 242 451 q 408 426 331 433 q 580 402 513 418 q 695 338 647 386 q 743 194 743 289 q 691 69 743 119 q 563 -5 639 18 q 415 -28 488 -28 q 186 26 289 -28 q 35 190 83 81 l 58 203 q 220 65 118 103 q 417 28 322 28 q 517 47 468 28 q 597 103 565 65 q 628 196 628 142 q 552 307 628 274 q 376 347 476 340 l 346 350 q 205 369 261 357 q 108 419 149 382 q 67 528 67 456 q 154 683 67 626 q 364 749 242 739 q 413 751 397 751 q 599 702 517 751 q 729 583 681 653 l 636 524 q 385 721 529 721 q 318 711 360 721 q 219 644 256 692 q 183 539 183 597 z "},"t":{"ha":604,"x_min":49,"x_max":576,"o":"m 576 56 q 503 25 542 40 l 432 -6 q 331 -29 382 -29 q 203 15 257 -29 q 144 136 149 60 q 142 199 142 178 l 143 281 l 143 639 l 49 639 l 49 722 l 143 722 q 174 853 143 778 q 308 976 204 929 l 514 1064 l 522 1044 q 469 1019 494 1033 q 351 953 400 983 q 283 874 317 932 q 250 722 250 817 l 522 722 l 522 639 l 272 639 q 251 631 260 639 q 243 610 243 622 l 243 179 q 278 66 243 111 q 375 21 314 21 q 419 26 399 21 q 499 48 451 33 q 569 74 547 63 l 576 56 z "},"u":{"ha":746,"x_min":63,"x_max":676,"o":"m 676 0 l 567 0 l 567 140 q 553 131 560 135 q 543 125 547 128 q 347 8 440 51 q 246 -14 301 -14 q 156 8 199 -14 q 88 69 114 29 q 63 160 63 108 l 63 722 l 172 722 l 172 203 q 207 90 172 135 q 301 46 242 46 q 351 54 325 46 q 539 149 422 76 q 559 169 551 157 q 567 197 567 182 l 567 722 l 676 722 l 676 0 z "},"v":{"ha":763,"x_min":13,"x_max":719,"o":"m 707 581 q 719 507 719 546 q 701 425 719 463 l 392 0 l 269 0 l 13 722 l 140 722 l 351 101 q 365 85 354 93 q 388 78 376 78 q 414 93 404 78 l 615 363 q 629 415 629 379 q 619 472 629 443 l 531 722 l 658 722 l 707 581 z "},"w":{"ha":1061,"x_min":49,"x_max":1004,"o":"m 993 450 q 1004 385 1004 417 q 985 297 1004 340 l 786 0 l 668 0 l 585 235 l 424 0 l 306 0 l 49 722 l 172 722 l 385 101 q 398 85 388 93 q 419 78 408 78 q 444 93 435 78 l 576 257 l 411 722 l 535 722 l 747 101 q 760 85 750 92 q 782 78 769 78 q 808 93 799 78 l 911 226 q 926 279 926 254 q 922 310 926 293 l 775 722 l 899 722 l 993 450 z "},"x":{"ha":844,"x_min":49,"x_max":796,"o":"m 447 268 q 422 279 440 279 q 397 268 407 279 l 183 0 l 49 0 l 344 360 q 351 378 351 367 q 344 397 351 390 l 83 722 l 207 722 l 400 481 q 422 469 408 469 q 444 481 436 469 l 636 722 l 761 722 l 500 397 q 493 378 493 388 q 500 360 493 369 l 796 0 l 661 0 l 447 268 z "},"y":{"ha":746,"x_min":63,"x_max":676,"o":"m 676 -58 q 637 -183 671 -121 q 497 -294 603 -244 l 142 -444 l 133 -425 q 349 -315 257 -372 q 503 -187 442 -257 q 565 -42 565 -117 l 565 140 q 347 19 468 75 q 247 -3 301 -3 q 121 40 174 -3 q 64 160 68 83 q 63 207 63 176 l 64 303 l 64 722 l 175 722 l 175 203 q 208 93 175 136 q 300 50 242 50 q 351 58 325 50 q 440 94 389 69 q 539 149 490 119 q 558 169 551 156 q 565 197 565 182 l 565 722 l 676 722 l 676 -58 z "},"z":{"ha":778,"x_min":56,"x_max":722,"o":"m 449 388 q 335 299 399 360 q 227 169 272 239 q 182 42 182 99 q 560 82 349 50 l 721 111 l 721 0 l 56 0 q 94 153 56 89 q 187 257 133 217 q 326 349 240 297 q 436 419 408 396 q 553 551 510 479 q 596 679 596 622 q 225 639 392 665 q 196 633 206 636 q 69 611 118 622 l 69 722 l 722 722 q 692 576 722 633 q 617 487 661 519 q 503 417 574 454 l 449 388 z "},"{":{"ha":538,"x_min":69,"x_max":454,"o":"m 69 310 q 74 322 69 317 q 85 329 78 328 q 221 493 221 360 l 221 828 q 277 998 221 940 q 449 1086 333 1056 l 454 1068 q 374 1026 403 1047 q 331 971 346 1006 q 317 879 317 936 l 317 525 q 254 383 317 435 q 122 310 192 331 q 254 237 192 289 q 317 94 317 185 l 317 -261 q 331 -352 317 -318 q 374 -407 346 -386 q 454 -449 403 -428 l 449 -467 q 278 -378 335 -436 q 221 -208 221 -321 l 221 126 q 85 290 221 260 q 74 297 78 292 q 69 310 69 303 z "},"|":{"ha":344,"x_min":125,"x_max":219,"o":"m 125 -444 l 125 1067 l 219 1067 l 219 -444 l 125 -444 z "},"}":{"ha":538,"x_min":83,"x_max":468,"o":"m 468 310 q 464 297 468 303 q 453 290 460 292 q 317 126 317 260 l 317 -208 q 260 -378 317 -321 q 89 -467 203 -436 l 83 -449 q 163 -407 135 -428 q 206 -352 192 -386 q 221 -261 221 -318 l 221 94 q 283 237 221 185 q 415 310 346 289 q 283 383 346 331 q 221 525 221 435 l 221 879 q 206 971 221 936 q 163 1026 192 1006 q 83 1068 135 1047 l 89 1086 q 260 998 204 1056 q 317 828 317 940 l 317 493 q 453 329 317 360 q 464 322 460 328 q 468 310 468 317 z "},"~":{"ha":993,"x_min":83,"x_max":910,"o":"m 601 344 q 519 376 574 353 q 460 401 510 381 q 356 432 410 421 q 306 438 322 438 q 100 351 204 438 l 83 363 q 215 483 142 439 q 361 528 288 528 q 426 518 396 528 q 522 483 458 508 q 675 433 621 444 q 701 431 692 431 q 810 456 750 431 q 893 504 871 482 l 910 492 q 785 381 854 421 q 644 340 717 340 q 601 344 622 340 z "},"¡":{"ha":413,"x_min":125,"x_max":289,"o":"m 196 1067 q 207 1074 203 1074 q 218 1067 211 1074 l 283 1001 q 289 990 289 997 q 283 979 289 985 l 218 914 q 207 908 210 908 q 196 914 204 908 l 131 979 q 125 990 125 985 q 131 1001 125 997 l 196 1067 m 142 0 q 186 792 172 389 l 225 792 q 271 0 238 422 l 142 0 z "},"¢":{"ha":865,"x_min":42,"x_max":831,"o":"m 375 -22 q 193 47 268 -10 q 80 187 118 103 q 42 364 42 271 q 80 540 42 457 q 193 678 118 622 q 375 747 268 735 l 375 846 l 438 846 l 438 751 q 619 700 539 749 q 747 585 699 651 l 654 525 q 438 718 561 697 l 438 38 l 456 38 q 482 40 472 38 q 669 117 583 60 q 804 285 756 175 l 831 272 q 692 78 767 147 q 526 -12 617 10 q 438 -26 481 -25 l 438 -119 l 375 -119 l 375 -22 m 175 292 q 258 133 210 193 q 375 49 307 72 l 375 719 q 318 707 361 718 q 188 611 229 678 q 147 456 147 544 q 175 292 147 382 z "},"£":{"ha":1039,"x_min":97,"x_max":928,"o":"m 218 56 q 689 85 415 57 q 890 110 796 94 l 890 0 l 97 0 l 214 488 l 128 488 l 128 513 l 221 517 l 294 818 q 654 1111 356 1111 q 801 1066 729 1111 q 928 932 872 1021 l 817 861 q 781 976 811 925 q 707 1055 750 1026 q 621 1083 664 1083 q 495 1022 556 1083 q 396 804 435 961 l 335 524 l 453 533 q 581 546 531 540 l 614 550 q 672 557 638 551 l 672 488 l 325 488 l 218 56 z "},"¤":{"ha":779,"x_min":42,"x_max":738,"o":"m 689 454 q 619 265 689 349 l 729 156 l 686 108 l 574 221 q 390 158 493 158 q 208 221 289 158 l 97 110 l 50 153 l 163 265 q 94 454 94 346 q 156 638 94 556 l 42 751 l 86 796 l 200 683 q 288 735 239 717 q 390 753 338 753 q 493 735 444 753 q 581 685 542 718 l 693 797 l 738 753 l 625 640 q 689 454 689 558 m 219 322 q 309 241 254 272 q 422 210 364 210 q 538 251 488 210 q 592 328 574 283 q 611 422 611 372 q 565 581 611 508 q 475 666 529 635 q 364 697 421 697 q 232 646 289 697 q 184 572 200 614 q 168 485 168 531 q 219 322 168 400 z "},"¥":{"ha":985,"x_min":42,"x_max":943,"o":"m 424 525 l 403 560 l 42 1068 l 185 1068 q 345 751 261 890 q 493 539 429 613 q 641 751 557 613 q 801 1068 725 890 l 943 1068 l 582 560 q 561 525 568 540 l 769 525 l 769 463 l 549 463 l 549 339 l 769 339 l 769 278 l 549 278 l 549 0 l 436 0 l 436 278 l 214 278 l 214 339 l 436 339 l 436 463 l 214 463 l 214 525 l 424 525 z "},"¦":{"ha":344,"x_min":125,"x_max":219,"o":"m 219 1068 l 219 619 l 125 619 l 125 1068 l 219 1068 m 125 449 l 219 449 l 219 0 l 125 0 l 125 449 z "},"§":{"ha":854,"x_min":56,"x_max":799,"o":"m 629 142 q 733 60 694 106 q 771 -51 771 15 q 719 -215 771 -150 q 588 -310 668 -281 q 421 -340 508 -340 q 276 -303 353 -340 q 138 -209 199 -267 q 56 -92 78 -151 l 144 -43 q 274 -238 196 -172 q 451 -304 351 -304 q 619 -247 550 -304 q 688 -69 688 -189 q 656 10 688 -22 q 578 61 625 42 q 447 106 531 81 q 281 165 344 136 q 172 247 217 193 q 126 385 126 300 q 150 488 126 435 q 224 614 174 540 q 83 806 83 685 q 135 969 83 904 q 266 1065 186 1035 q 433 1094 346 1094 q 581 1059 507 1094 q 712 966 654 1024 q 799 844 769 908 l 710 797 q 403 1058 603 1058 q 236 1001 304 1058 q 168 824 168 943 q 201 737 168 771 q 282 683 233 703 q 415 640 331 664 q 578 585 517 613 q 684 506 640 558 q 728 368 728 454 q 704 269 728 319 q 629 142 681 218 m 203 424 q 236 313 203 354 q 319 250 269 271 q 456 204 368 229 q 604 154 551 178 q 651 331 651 244 q 619 440 651 400 q 540 501 588 481 q 408 546 493 522 q 326 571 368 557 q 250 600 283 585 q 203 424 203 510 z "},"¨":{"ha":606,"x_min":54,"x_max":551,"o":"m 147 1176 q 136 1171 143 1171 q 125 1176 131 1171 l 60 1242 q 54 1253 54 1250 q 60 1264 54 1256 l 125 1329 q 136 1335 131 1335 q 147 1329 143 1335 l 213 1264 q 219 1253 219 1257 q 213 1242 219 1249 l 147 1176 m 392 1242 q 386 1253 386 1250 q 392 1264 386 1256 l 457 1329 q 468 1335 463 1335 q 479 1329 475 1335 l 544 1264 q 551 1253 551 1257 q 544 1242 551 1249 l 479 1176 q 468 1171 475 1171 q 457 1176 463 1171 l 392 1242 z "},"©":{"ha":1199,"x_min":42,"x_max":1157,"o":"m 599 1086 q 879 1011 751 1086 q 1082 808 1007 936 q 1157 529 1157 681 q 1082 250 1157 378 q 879 47 1007 122 q 599 -28 751 -28 q 319 47 447 -28 q 117 250 192 122 q 42 529 42 378 q 117 808 42 681 q 319 1011 192 936 q 599 1086 447 1086 m 110 554 q 164 318 110 435 l 163 318 q 356 99 231 179 q 624 19 481 19 q 825 67 729 19 q 1019 244 947 124 q 1090 506 1090 365 q 1035 739 1090 624 l 1036 739 q 842 958 968 878 q 575 1039 715 1039 q 375 993 474 1039 l 375 994 q 181 813 251 932 q 110 554 110 694 m 290 544 q 326 711 290 636 q 425 833 361 786 q 574 892 489 881 q 610 893 586 893 q 757 858 693 893 q 897 747 821 824 l 817 694 q 720 811 771 771 q 603 851 669 851 q 515 835 564 851 q 401 743 439 808 q 363 592 363 678 q 386 456 363 526 q 489 316 421 371 q 638 261 557 261 q 733 285 682 261 q 829 356 783 310 q 904 467 875 403 l 926 451 q 805 266 885 336 q 611 196 725 196 q 436 245 508 196 q 327 374 364 294 q 290 544 290 454 z "},"ª":{"ha":674,"x_min":42,"x_max":618,"o":"m 507 610 q 397 553 458 574 q 272 532 335 532 q 108 581 174 532 q 42 728 42 631 q 102 874 42 817 q 253 931 163 931 q 330 919 289 931 q 408 883 371 907 l 393 922 q 263 1021 350 1021 q 210 1013 239 1021 q 54 942 133 990 l 44 963 l 176 1051 q 281 1082 225 1082 q 396 1047 343 1082 q 472 954 449 1013 l 618 551 l 531 551 l 507 610 m 124 728 q 169 603 124 647 q 282 560 215 560 q 386 587 335 560 q 472 667 438 614 q 478 683 478 672 q 472 710 478 693 l 426 829 q 413 851 422 840 q 392 867 403 861 q 269 897 321 897 q 161 851 199 897 q 124 728 124 806 z "},"«":{"ha":653,"x_min":83,"x_max":569,"o":"m 418 399 l 569 163 l 551 151 l 463 250 q 315 399 364 357 q 463 547 364 440 q 551 646 489 575 l 569 635 l 418 399 m 83 399 q 231 547 132 440 q 319 646 257 575 l 338 635 l 186 399 l 338 163 l 319 151 l 231 250 q 83 399 132 357 z "},"¬":{"ha":889,"x_min":97,"x_max":792,"o":"m 97 507 l 97 575 l 792 575 l 792 278 l 722 278 l 722 507 l 97 507 z "},"®":{"ha":1199,"x_min":42,"x_max":1157,"o":"m 599 1086 q 879 1011 751 1086 q 1082 808 1007 936 q 1157 529 1157 681 q 1082 250 1157 378 q 879 47 1007 122 q 599 -28 751 -28 q 319 47 447 -28 q 117 250 192 122 q 42 529 42 378 q 117 808 42 681 q 319 1011 192 936 q 599 1086 447 1086 m 110 554 q 178 296 110 419 q 363 96 246 172 q 624 19 481 19 q 781 48 701 19 q 922 129 860 76 q 800 231 849 172 q 708 383 751 290 q 657 462 685 435 q 592 499 629 489 q 497 514 556 510 l 464 514 l 464 210 l 385 210 l 385 882 l 557 882 q 687 872 629 882 q 789 822 744 863 q 833 699 833 782 q 808 618 833 656 q 742 557 782 581 q 660 529 701 533 q 722 507 696 529 q 759 463 747 485 q 801 382 771 442 q 869 256 833 313 q 951 157 904 200 q 1054 315 1018 225 q 1090 506 1090 406 q 1022 763 1090 639 q 835 963 953 886 q 575 1039 717 1039 q 343 974 450 1039 q 173 797 236 908 q 110 554 110 686 m 464 578 q 492 549 464 549 q 660 568 603 549 q 737 619 718 588 q 756 696 756 651 q 702 815 756 783 q 557 846 649 846 q 464 843 522 846 l 464 578 z "},"¯":{"ha":536,"x_min":83,"x_max":453,"o":"m 83 1064 l 453 1064 l 453 988 l 83 988 l 83 1064 z "},"°":{"ha":389,"x_min":56,"x_max":333,"o":"m 56 925 q 95 1024 56 983 q 193 1065 135 1065 q 292 1024 250 1065 q 333 925 333 982 q 292 827 333 867 q 193 788 251 788 q 95 827 135 788 q 56 925 56 867 m 108 935 q 135 860 108 890 q 197 831 161 831 q 258 857 233 831 q 282 921 282 883 q 253 994 282 964 q 188 1025 225 1025 q 167 1022 181 1025 q 124 988 140 1013 q 108 935 108 964 z "},"±":{"ha":972,"x_min":139,"x_max":833,"o":"m 139 68 l 833 68 l 833 0 l 139 0 l 139 68 m 140 450 l 450 450 l 450 688 l 518 688 l 518 450 l 828 450 l 828 382 l 518 382 l 518 146 l 450 146 l 450 382 l 140 382 l 140 450 z "},"²":{"ha":606,"x_min":83,"x_max":522,"o":"m 336 738 q 218 640 256 701 q 176 532 181 579 q 522 560 307 536 l 522 481 l 85 481 q 111 598 83 547 q 181 683 139 649 q 286 756 222 717 q 388 831 347 794 q 440 906 428 867 q 442 925 442 913 q 414 999 442 971 q 349 1028 386 1028 q 281 1001 319 1028 q 160 900 243 974 l 93 946 q 226 1034 168 1004 q 315 1064 285 1064 q 413 1037 365 1064 q 489 968 460 1010 q 518 888 518 926 q 467 810 510 843 q 336 738 424 778 z "},"³":{"ha":633,"x_min":83,"x_max":550,"o":"m 292 829 q 375 856 335 835 q 431 913 415 878 q 435 938 435 925 q 403 1003 435 976 q 338 1031 371 1031 q 272 1008 304 1031 q 213 958 240 985 q 176 924 185 932 l 178 924 l 157 901 l 136 914 q 110 930 126 921 q 83 947 94 939 q 215 1036 154 1006 q 307 1067 276 1067 q 401 1040 354 1067 q 478 976 449 1014 q 508 906 508 938 q 507 893 508 897 q 436 829 481 843 q 518 774 486 818 q 550 676 550 731 q 520 579 550 628 q 435 499 490 531 q 310 468 381 468 q 174 515 232 468 q 83 633 115 561 q 96 640 88 635 l 111 649 q 198 550 151 576 q 300 524 244 524 q 415 565 365 524 q 465 681 465 607 q 442 752 465 717 q 368 788 419 788 q 289 771 339 788 l 292 829 z "},"´":{"ha":428,"x_min":83,"x_max":344,"o":"m 83 1165 q 139 1213 107 1188 q 272 1333 206 1268 l 344 1269 l 103 1144 l 83 1165 z "},"µ":{"ha":767,"x_min":83,"x_max":697,"o":"m 193 722 l 193 203 q 228 90 193 135 q 322 46 263 46 q 372 54 346 46 q 560 149 443 76 q 580 169 572 157 q 588 197 588 182 l 588 722 l 697 722 l 697 0 l 588 0 l 588 140 q 574 131 581 135 q 564 125 568 128 q 368 8 461 51 q 267 -14 322 -14 q 192 0 229 -14 l 192 -443 l 83 -443 l 83 722 l 193 722 z "},"¶":{"ha":974,"x_min":69,"x_max":863,"o":"m 765 1004 l 765 -444 l 703 -444 l 703 1004 l 531 1004 l 531 -444 l 468 -444 l 468 422 l 392 421 q 230 464 304 421 q 113 581 156 507 q 69 743 69 656 q 113 905 69 831 q 230 1023 156 979 q 392 1067 304 1067 l 863 1067 l 863 1004 l 765 1004 z "},"·":{"ha":306,"x_min":65,"x_max":240,"o":"m 74 410 q 74 428 65 418 l 143 497 q 161 497 153 507 l 232 428 q 232 410 240 418 l 161 339 q 143 339 153 331 l 74 410 z "},"¸":{"ha":340,"x_min":69,"x_max":271,"o":"m 210 -25 q 174 -81 200 -62 q 146 -101 149 -100 q 237 -124 203 -97 q 271 -196 271 -150 q 239 -267 271 -240 q 160 -293 207 -293 q 110 -283 139 -293 q 69 -267 81 -274 l 81 -243 q 154 -264 103 -254 q 202 -247 182 -267 q 222 -196 222 -228 q 202 -143 222 -164 q 150 -122 182 -122 q 128 -124 138 -122 q 118 -122 125 -125 q 115 -104 108 -117 q 142 -25 135 -72 l 210 -25 z "},"¹":{"ha":350,"x_min":83,"x_max":267,"o":"m 267 482 l 194 482 l 194 942 l 99 881 q 96 884 97 882 q 93 890 94 886 q 83 908 85 901 q 135 951 108 928 q 236 1065 193 1001 l 267 1065 l 267 482 z "},"º":{"ha":722,"x_min":83,"x_max":639,"o":"m 361 1085 q 513 1046 450 1085 q 607 944 575 1007 q 639 808 639 881 q 607 672 639 736 q 513 569 575 608 q 361 531 450 531 q 210 569 272 531 q 115 672 147 608 q 83 808 83 736 q 115 944 83 881 q 210 1046 147 1007 q 361 1085 272 1085 m 165 874 q 189 749 165 815 q 267 613 218 667 q 383 558 315 558 q 440 569 407 558 q 561 739 561 608 q 538 867 561 800 q 460 1002 508 949 q 343 1056 413 1056 q 285 1046 313 1056 q 165 874 165 1003 z "},"»":{"ha":653,"x_min":83,"x_max":569,"o":"m 101 646 q 190 547 140 600 q 338 399 278 450 q 190 250 278 347 l 167 225 q 101 151 94 143 l 83 163 l 235 399 l 83 635 l 101 646 m 467 399 l 315 635 l 333 646 q 422 547 372 600 q 569 399 510 450 q 422 250 510 347 l 399 225 q 333 151 326 143 l 315 163 l 467 399 z "},"¼":{"ha":1199,"x_min":125,"x_max":1074,"o":"m 943 1065 l 213 0 l 125 0 l 856 1065 l 943 1065 m 129 908 q 181 951 154 928 q 282 1065 239 1001 l 313 1065 l 313 482 l 240 482 l 240 942 l 144 881 q 142 884 143 882 q 139 890 140 886 q 129 908 131 901 m 879 583 l 942 583 l 942 233 q 1020 247 983 238 q 1074 261 1057 256 l 1074 183 l 942 183 l 942 0 l 872 0 l 872 183 l 567 183 l 879 583 m 686 242 q 872 232 807 231 l 872 510 l 686 242 z "},"½":{"ha":1215,"x_min":125,"x_max":1090,"o":"m 313 482 l 240 482 l 240 942 l 144 881 q 142 884 143 882 q 139 890 140 886 q 129 908 131 901 q 182 951 154 925 q 282 1065 240 1003 l 313 1065 l 313 482 m 856 1065 l 943 1065 l 213 0 l 125 0 l 856 1065 m 653 0 q 679 118 651 68 q 748 201 707 168 q 854 274 789 233 q 957 349 918 314 q 1008 425 996 385 q 1011 447 1011 442 q 982 519 1011 490 q 917 547 953 547 q 849 520 888 547 q 728 419 811 493 l 661 464 q 794 553 736 524 q 883 583 853 583 q 981 556 933 583 q 1057 488 1028 529 q 1086 407 1086 446 q 1037 331 1079 363 q 904 256 994 299 q 786 160 824 222 q 744 50 749 99 q 913 61 822 53 q 1090 79 1003 69 l 1090 0 l 653 0 z "},"¾":{"ha":1344,"x_min":125,"x_max":1219,"o":"m 333 829 q 417 856 376 835 q 472 913 457 878 q 476 938 476 925 q 444 1003 476 976 q 379 1031 413 1031 q 314 1008 346 1031 q 254 958 282 985 q 218 924 226 932 l 219 924 l 199 901 l 178 914 q 152 930 168 921 q 125 947 136 939 q 257 1036 196 1006 q 349 1067 318 1067 q 443 1040 396 1067 q 520 976 490 1014 q 550 906 550 938 q 549 893 550 897 q 478 829 522 843 q 560 774 528 818 q 592 676 592 731 q 562 579 592 628 q 477 499 532 531 q 351 468 422 468 q 215 515 274 468 q 125 633 157 561 q 138 640 129 635 l 153 649 q 240 550 193 576 q 342 524 286 524 q 457 565 407 524 q 507 681 507 607 q 484 752 507 717 q 410 788 461 788 q 331 771 381 788 l 333 829 m 1001 1065 l 1089 1065 l 357 0 l 271 0 l 1001 1065 m 1025 583 l 1088 583 l 1088 233 q 1165 247 1128 238 q 1219 261 1203 256 l 1219 183 l 1088 183 l 1088 0 l 1018 0 l 1018 183 l 713 183 l 1025 583 m 832 242 q 1018 232 953 231 l 1018 510 l 832 242 z "},"¿":{"ha":874,"x_min":56,"x_max":749,"o":"m 61 343 q 121 472 79 422 q 233 576 163 521 q 320 653 289 621 q 373 737 351 686 q 394 858 394 788 l 431 858 q 399 664 431 736 q 317 540 368 592 q 275 499 307 531 q 217 435 243 468 q 176 369 192 403 q 154 258 154 321 q 179 137 154 194 q 253 42 204 79 q 371 6 303 6 q 454 22 418 6 q 527 68 490 38 q 656 181 564 99 l 749 121 q 549 1 633 29 q 392 -28 464 -28 q 229 22 307 -28 q 103 147 151 71 q 56 297 56 224 q 61 343 56 322 m 336 1046 q 331 1057 331 1051 q 336 1068 331 1064 l 401 1133 q 413 1140 408 1140 q 424 1133 417 1140 l 489 1068 q 494 1057 494 1064 q 489 1046 494 1051 l 424 981 q 413 975 415 975 q 401 981 410 975 l 336 1046 z "},"À":{"ha":1051,"x_min":49,"x_max":1003,"o":"m 726 364 q 704 382 719 379 q 683 383 697 383 q 640 378 658 383 l 607 367 l 469 301 q 339 261 392 261 q 250 325 272 261 q 217 196 233 253 q 192 94 203 144 q 174 0 181 44 l 49 0 l 517 1067 l 533 1067 l 1003 0 l 886 0 l 726 364 m 261 354 q 271 334 258 343 q 296 326 283 325 q 328 336 308 328 q 371 356 347 344 q 410 374 394 367 l 521 426 q 608 449 567 449 q 665 435 642 449 q 713 399 688 422 l 490 908 q 358 613 433 789 q 261 354 283 436 m 343 1333 q 476 1213 410 1268 q 532 1165 508 1188 l 513 1144 l 271 1269 l 343 1333 z "},"Á":{"ha":1051,"x_min":49,"x_max":1003,"o":"m 726 364 q 704 382 719 379 q 683 383 697 383 q 640 378 658 383 l 607 367 l 469 301 q 339 261 392 261 q 250 325 272 261 q 217 196 233 253 q 192 94 203 144 q 174 0 181 44 l 49 0 l 517 1067 l 533 1067 l 1003 0 l 886 0 l 726 364 m 261 354 q 271 334 258 343 q 296 326 283 325 q 328 336 308 328 q 371 356 347 344 q 410 374 394 367 l 521 426 q 608 449 567 449 q 665 435 642 449 q 713 399 688 422 l 490 908 q 358 613 433 789 q 261 354 283 436 m 504 1165 q 560 1213 528 1188 q 693 1333 626 1268 l 765 1269 l 524 1144 l 504 1165 z "},"Â":{"ha":1051,"x_min":49,"x_max":1003,"o":"m 289 1160 q 350 1200 296 1164 l 375 1217 q 522 1333 467 1279 q 669 1217 578 1279 l 694 1200 q 756 1160 749 1164 l 744 1142 l 522 1253 l 300 1142 l 289 1160 m 517 1067 l 533 1067 l 1003 0 l 886 0 l 726 364 q 704 382 719 379 q 683 383 697 383 q 640 378 658 383 l 607 367 l 469 301 q 339 261 392 261 q 250 325 272 261 q 217 196 233 253 q 192 94 203 144 q 174 0 181 44 l 49 0 l 517 1067 m 261 354 q 271 334 258 343 q 296 326 283 325 q 328 336 308 328 q 371 356 347 344 q 410 374 394 367 l 521 426 q 608 449 567 449 q 665 435 642 449 q 713 399 688 422 l 490 908 q 358 613 433 789 q 261 354 283 436 z "},"Ã":{"ha":1051,"x_min":49,"x_max":1003,"o":"m 551 1228 q 461 1253 500 1244 q 385 1263 422 1263 q 239 1208 303 1263 l 222 1219 q 315 1303 268 1275 q 419 1332 363 1332 q 503 1318 460 1332 q 622 1285 585 1294 q 693 1276 658 1276 q 804 1321 760 1276 l 821 1308 q 646 1208 740 1208 q 594 1215 617 1208 l 551 1228 m 517 1067 l 533 1067 l 1003 0 l 886 0 l 726 364 q 704 382 719 379 q 683 383 697 383 q 640 378 658 383 l 607 367 l 469 301 q 339 261 392 261 q 250 325 272 261 q 217 196 233 253 q 192 94 203 144 q 174 0 181 44 l 49 0 l 517 1067 m 261 354 q 271 334 258 343 q 296 326 283 325 q 328 336 308 328 q 371 356 347 344 q 410 374 394 367 l 521 426 q 608 449 567 449 q 665 435 642 449 q 713 399 688 422 l 490 908 q 358 613 433 789 q 261 354 283 436 z "},"Ä":{"ha":1051,"x_min":49,"x_max":1003,"o":"m 726 364 q 704 382 719 379 q 683 383 697 383 q 640 378 658 383 l 607 367 l 469 301 q 339 261 392 261 q 250 325 272 261 q 217 196 233 253 q 192 94 203 144 q 174 0 181 44 l 49 0 l 517 1067 l 533 1067 l 1003 0 l 886 0 l 726 364 m 261 354 q 271 334 258 343 q 296 326 283 325 q 328 336 308 328 q 371 356 347 344 q 410 374 394 367 l 521 426 q 608 449 567 449 q 665 435 642 449 q 713 399 688 422 l 490 908 q 358 613 433 789 q 261 354 283 436 m 286 1242 q 281 1253 281 1250 q 286 1264 281 1256 l 351 1329 q 363 1335 357 1335 q 374 1329 369 1335 l 439 1264 q 446 1253 446 1257 q 439 1242 446 1249 l 374 1176 q 363 1171 369 1171 q 351 1176 357 1171 l 286 1242 m 618 1242 q 613 1253 613 1250 q 618 1264 613 1256 l 683 1329 q 694 1335 689 1335 q 706 1329 701 1335 l 771 1264 q 778 1253 778 1257 q 771 1242 778 1249 l 706 1176 q 694 1171 701 1171 q 683 1176 689 1171 l 618 1242 z "},"Å":{"ha":1100,"x_min":49,"x_max":1003,"o":"m 726 364 q 704 382 719 379 q 683 383 697 383 q 640 378 658 383 l 607 367 l 469 301 q 339 261 392 261 q 250 325 272 261 q 217 196 233 253 q 192 94 203 144 q 174 0 181 44 l 49 0 l 517 1067 l 533 1067 l 1003 0 l 886 0 l 726 364 m 261 354 q 271 334 258 343 q 296 326 283 325 q 328 336 308 328 q 371 356 347 344 q 410 374 394 367 l 521 426 q 608 449 567 449 q 665 435 642 449 q 713 399 688 422 l 490 908 q 358 613 433 789 q 261 354 283 436 m 432 1240 q 460 1307 432 1279 q 525 1335 488 1335 q 592 1307 564 1335 q 619 1240 619 1279 q 592 1175 619 1203 q 525 1147 564 1147 q 460 1175 488 1147 q 432 1240 432 1203 m 482 1213 q 508 1187 492 1196 q 539 1178 524 1178 q 563 1185 554 1178 q 582 1222 582 1196 q 567 1269 582 1246 q 514 1304 544 1304 q 480 1291 492 1304 q 468 1257 468 1278 q 482 1213 468 1232 z "},"Æ":{"ha":1606,"x_min":14,"x_max":1550,"o":"m 1550 957 q 1364 992 1444 981 q 907 1029 1160 1024 l 907 542 q 968 608 928 583 q 1067 633 1008 633 q 1140 624 1094 633 q 1243 593 1186 613 q 1279 582 1249 592 q 1333 572 1310 572 q 1424 611 1375 572 l 1439 599 q 1351 526 1400 556 q 1250 497 1303 497 q 1194 507 1222 497 l 1167 515 q 1065 544 1100 536 q 1001 553 1029 553 q 971 549 986 553 q 928 519 946 542 q 907 469 910 496 l 907 38 q 1364 75 1133 39 q 1550 110 1444 86 l 1550 0 l 797 0 l 797 340 q 754 385 797 385 q 683 367 729 385 l 550 301 q 424 261 478 261 q 335 328 358 261 q 200 0 238 149 l 14 0 l 783 1067 l 1550 1067 l 1550 957 m 357 367 q 353 353 353 361 q 360 335 353 342 q 378 326 367 328 l 381 326 q 417 338 394 328 q 485 371 440 349 l 600 426 q 683 447 643 447 q 797 388 746 447 l 797 1011 l 719 904 q 509 609 592 729 q 357 367 426 489 z "},"Ç":{"ha":1099,"x_min":42,"x_max":1057,"o":"m 1057 375 q 881 95 999 204 q 594 -26 764 -14 q 558 -81 585 -61 q 531 -101 532 -100 q 622 -124 588 -97 q 656 -196 656 -150 q 624 -267 656 -240 q 544 -293 592 -293 q 494 -283 524 -293 q 454 -267 465 -274 l 465 -243 q 539 -264 488 -254 q 587 -247 567 -267 q 607 -196 607 -228 q 587 -143 607 -164 q 535 -122 567 -122 q 513 -124 522 -122 q 503 -122 510 -125 q 500 -104 493 -117 q 526 -26 519 -72 q 263 61 372 -19 q 97 267 153 142 q 42 533 42 392 q 99 799 42 679 q 258 996 156 919 q 494 1089 361 1072 q 575 1093 536 1093 q 787 1043 685 1093 q 1006 865 889 993 l 896 793 q 737 983 819 919 q 547 1047 654 1047 q 394 1019 474 1047 q 200 864 265 976 q 135 607 135 751 q 174 381 135 493 q 273 214 208 288 q 422 99 338 140 q 597 57 506 57 q 756 95 671 57 q 917 208 842 133 q 1038 388 993 283 l 1057 375 z "},"È":{"ha":892,"x_min":83,"x_max":836,"o":"m 193 38 q 650 75 419 39 q 836 110 731 86 l 836 0 l 83 0 l 83 1067 l 836 1067 l 836 957 q 650 992 731 981 q 193 1029 446 1024 l 193 542 q 254 608 214 583 q 353 633 294 633 q 426 624 381 633 q 529 593 472 613 q 565 582 535 592 q 619 572 596 572 q 710 611 661 572 l 725 599 q 638 526 686 556 q 536 497 589 497 q 481 507 508 497 l 453 515 q 351 544 386 536 q 288 553 315 553 q 257 549 272 553 q 214 519 232 542 q 193 469 196 496 l 193 38 m 378 1333 q 511 1213 444 1268 q 567 1165 543 1188 l 547 1144 l 306 1269 l 378 1333 z "},"É":{"ha":892,"x_min":83,"x_max":836,"o":"m 193 38 q 650 75 419 39 q 836 110 731 86 l 836 0 l 83 0 l 83 1067 l 836 1067 l 836 957 q 650 992 731 981 q 193 1029 446 1024 l 193 542 q 254 608 214 583 q 353 633 294 633 q 426 624 381 633 q 529 593 472 613 q 565 582 535 592 q 619 572 596 572 q 710 611 661 572 l 725 599 q 638 526 686 556 q 536 497 589 497 q 481 507 508 497 l 453 515 q 351 544 386 536 q 288 553 315 553 q 257 549 272 553 q 214 519 232 542 q 193 469 196 496 l 193 38 m 396 1144 q 451 1192 419 1167 q 585 1313 518 1247 l 657 1249 l 415 1124 l 396 1144 z "},"Ê":{"ha":892,"x_min":83,"x_max":836,"o":"m 226 1160 q 288 1200 233 1164 l 313 1217 q 460 1333 404 1279 q 607 1217 515 1279 l 632 1200 q 693 1160 686 1164 l 682 1142 l 460 1253 l 238 1142 l 226 1160 m 83 1067 l 836 1067 l 836 957 q 650 992 731 981 q 193 1029 446 1024 l 193 542 q 254 608 214 583 q 353 633 294 633 q 426 624 381 633 q 529 593 472 613 q 565 582 535 592 q 619 572 596 572 q 710 611 661 572 l 725 599 q 638 526 686 556 q 536 497 589 497 q 481 507 508 497 l 453 515 q 351 544 386 536 q 288 553 315 553 q 257 549 272 553 q 214 519 232 542 q 193 469 196 496 l 193 38 q 650 75 419 39 q 836 110 731 86 l 836 0 l 83 0 l 83 1067 z "},"Ë":{"ha":892,"x_min":83,"x_max":836,"o":"m 310 1176 q 299 1171 306 1171 q 288 1176 293 1171 l 222 1242 q 217 1253 217 1250 q 222 1264 217 1256 l 288 1329 q 299 1335 293 1335 q 310 1329 306 1335 l 375 1264 q 382 1253 382 1257 q 375 1242 382 1249 l 310 1176 m 83 1067 l 836 1067 l 836 957 q 650 992 731 981 q 193 1029 446 1024 l 193 542 q 254 608 214 583 q 353 633 294 633 q 426 624 381 633 q 529 593 472 613 q 565 582 535 592 q 619 572 596 572 q 710 611 661 572 l 725 599 q 638 526 686 556 q 536 497 589 497 q 481 507 508 497 l 453 515 q 351 544 386 536 q 288 553 315 553 q 257 549 272 553 q 214 519 232 542 q 193 469 196 496 l 193 38 q 650 75 419 39 q 836 110 731 86 l 836 0 l 83 0 l 83 1067 m 554 1242 q 549 1253 549 1250 q 554 1264 549 1256 l 619 1329 q 631 1335 625 1335 q 642 1329 638 1335 l 707 1264 q 714 1253 714 1257 q 707 1242 714 1249 l 642 1176 q 631 1171 638 1171 q 619 1176 625 1171 l 554 1242 z "},"Ì":{"ha":392,"x_min":-35,"x_max":260,"o":"m 150 0 l 150 1067 l 260 1067 l 260 0 l 150 0 m 38 1333 q 171 1213 104 1268 q 226 1165 203 1188 l 207 1144 l -35 1269 l 38 1333 z "},"Í":{"ha":372,"x_min":132,"x_max":435,"o":"m 132 0 l 132 1067 l 242 1067 l 242 0 l 132 0 m 174 1165 q 229 1213 197 1188 q 363 1333 296 1268 l 435 1269 l 193 1144 l 174 1165 z "},"Î":{"ha":369,"x_min":-49,"x_max":418,"o":"m -49 1190 q 13 1231 -42 1194 l 38 1247 q 185 1364 129 1310 q 332 1247 240 1310 l 357 1231 q 418 1190 411 1194 l 407 1172 l 185 1283 l -37 1172 l -49 1190 m 131 1067 l 240 1067 l 240 0 l 131 0 l 131 1067 z "},"Ï":{"ha":390,"x_min":-8,"x_max":399,"o":"m 85 1176 q 74 1171 81 1171 q 63 1176 68 1171 l -3 1242 q -8 1253 -8 1247 q -3 1264 -8 1258 l 63 1329 q 74 1335 68 1335 q 85 1329 81 1335 l 150 1264 q 157 1253 157 1257 q 150 1242 157 1249 l 85 1176 m 135 1067 l 244 1067 l 244 0 l 135 0 l 135 1067 m 239 1242 q 233 1253 233 1250 q 239 1264 233 1256 l 304 1329 q 315 1335 310 1335 q 326 1329 322 1335 l 392 1264 q 399 1253 399 1257 q 392 1242 399 1249 l 326 1176 q 315 1171 322 1171 q 304 1176 310 1171 l 239 1242 z "},"Ð":{"ha":1107,"x_min":0,"x_max":1065,"o":"m 1065 533 q 996 260 1065 381 q 804 70 926 139 q 528 0 682 1 l 140 0 l 140 497 l 0 497 l 0 590 l 140 590 l 140 1067 l 528 1067 q 804 999 682 1067 q 996 810 926 932 q 1065 533 1065 689 m 476 29 q 724 97 614 29 q 894 281 833 165 q 956 531 956 396 q 894 769 956 653 q 722 960 832 886 q 476 1033 613 1033 l 250 1032 l 250 590 l 464 590 l 464 497 l 250 497 l 250 26 l 476 29 z "},"Ñ":{"ha":1064,"x_min":83,"x_max":981,"o":"m 578 1228 q 488 1253 526 1244 q 411 1263 449 1263 q 265 1208 329 1263 l 249 1219 q 342 1303 294 1275 q 446 1332 389 1332 q 529 1318 486 1332 q 648 1285 611 1294 q 719 1276 685 1276 q 831 1321 786 1276 l 847 1308 q 672 1208 767 1208 q 621 1215 643 1208 l 578 1228 m 83 1035 l 176 1079 q 239 1094 210 1094 q 282 1086 261 1094 q 328 1058 303 1078 q 443 923 392 1010 q 531 740 494 836 q 617 494 568 643 q 697 265 664 350 q 769 126 731 181 q 826 73 783 106 q 892 40 868 40 q 919 82 919 40 q 885 836 919 503 q 851 1067 871 974 l 981 1067 l 981 25 l 896 -14 q 832 -29 858 -29 q 753 -4 790 -29 q 675 75 717 21 q 589 234 628 136 q 501 485 550 332 q 395 776 439 671 q 293 946 351 882 q 232 996 269 972 q 171 1019 194 1019 q 143 983 143 1019 q 178 219 143 521 q 213 0 192 92 l 83 0 l 83 1035 z "},"Ò":{"ha":1111,"x_min":42,"x_max":1069,"o":"m 554 1094 q 835 1015 719 1094 q 1010 808 951 936 q 1069 533 1069 679 q 1010 259 1069 388 q 835 51 951 131 q 554 -28 719 -28 q 274 51 390 -28 q 100 259 158 131 q 42 533 42 388 q 100 808 42 679 q 274 1015 158 936 q 554 1094 390 1094 m 172 394 q 343 122 239 218 q 582 25 447 25 q 721 49 651 25 q 912 199 850 92 q 974 447 974 307 q 935 676 974 563 q 773 940 882 836 q 524 1044 664 1044 q 397 1022 463 1044 q 201 869 267 979 q 135 614 135 758 q 172 394 135 501 m 399 1333 q 532 1213 465 1268 q 588 1165 564 1188 l 568 1144 l 326 1269 l 399 1333 z "},"Ó":{"ha":1111,"x_min":42,"x_max":1069,"o":"m 554 1094 q 835 1015 719 1094 q 1010 808 951 936 q 1069 533 1069 679 q 1010 259 1069 388 q 835 51 951 131 q 554 -28 719 -28 q 274 51 390 -28 q 100 259 158 131 q 42 533 42 388 q 100 808 42 679 q 274 1015 158 936 q 554 1094 390 1094 m 172 394 q 343 122 239 218 q 582 25 447 25 q 721 49 651 25 q 912 199 850 92 q 974 447 974 307 q 935 676 974 563 q 773 940 882 836 q 524 1044 664 1044 q 397 1022 463 1044 q 201 869 267 979 q 135 614 135 758 q 172 394 135 501 m 453 1165 q 508 1213 476 1188 q 642 1333 575 1268 l 714 1269 l 472 1144 l 453 1165 z "},"Ô":{"ha":1111,"x_min":42,"x_max":1069,"o":"m 294 1190 q 356 1231 301 1194 l 381 1247 q 528 1364 472 1310 q 675 1247 583 1310 l 700 1231 q 761 1190 754 1194 l 750 1172 l 528 1283 l 306 1172 l 294 1190 m 42 533 q 100 808 42 679 q 274 1015 158 936 q 554 1094 390 1094 q 835 1015 719 1094 q 1010 808 951 936 q 1069 533 1069 679 q 1010 259 1069 388 q 835 51 951 131 q 554 -28 719 -28 q 274 51 390 -28 q 100 259 158 131 q 42 533 42 388 m 172 394 q 343 122 239 218 q 582 25 447 25 q 721 49 651 25 q 912 199 850 92 q 974 447 974 307 q 935 676 974 563 q 773 940 882 836 q 524 1044 664 1044 q 397 1022 463 1044 q 201 869 267 979 q 135 614 135 758 q 172 394 135 501 z "},"Õ":{"ha":1111,"x_min":42,"x_max":1069,"o":"m 561 1228 q 471 1253 510 1244 q 394 1263 432 1263 q 249 1208 313 1263 l 232 1219 q 325 1303 278 1275 q 429 1332 372 1332 q 513 1318 469 1332 q 631 1285 594 1294 q 703 1276 668 1276 q 814 1321 769 1276 l 831 1308 q 656 1208 750 1208 q 604 1215 626 1208 l 561 1228 m 42 533 q 100 808 42 679 q 274 1015 158 936 q 554 1094 390 1094 q 835 1015 719 1094 q 1010 808 951 936 q 1069 533 1069 679 q 1010 259 1069 388 q 835 51 951 131 q 554 -28 719 -28 q 274 51 390 -28 q 100 259 158 131 q 42 533 42 388 m 172 394 q 343 122 239 218 q 582 25 447 25 q 721 49 651 25 q 912 199 850 92 q 974 447 974 307 q 935 676 974 563 q 773 940 882 836 q 524 1044 664 1044 q 397 1022 463 1044 q 201 869 267 979 q 135 614 135 758 q 172 394 135 501 z "},"Ö":{"ha":1111,"x_min":42,"x_max":1069,"o":"m 394 1176 q 383 1171 390 1171 q 372 1176 378 1171 l 307 1242 q 301 1253 301 1250 q 307 1264 301 1256 l 372 1329 q 383 1335 378 1335 q 394 1329 390 1335 l 460 1264 q 467 1253 467 1257 q 460 1242 467 1249 l 394 1176 m 42 533 q 100 808 42 679 q 274 1015 158 936 q 554 1094 390 1094 q 835 1015 719 1094 q 1010 808 951 936 q 1069 533 1069 679 q 1010 259 1069 388 q 835 51 951 131 q 554 -28 719 -28 q 274 51 390 -28 q 100 259 158 131 q 42 533 42 388 m 172 394 q 343 122 239 218 q 582 25 447 25 q 721 49 651 25 q 912 199 850 92 q 974 447 974 307 q 935 676 974 563 q 773 940 882 836 q 524 1044 664 1044 q 397 1022 463 1044 q 201 869 267 979 q 135 614 135 758 q 172 394 135 501 m 639 1242 q 633 1253 633 1250 q 639 1264 633 1256 l 704 1329 q 715 1335 710 1335 q 726 1329 722 1335 l 792 1264 q 799 1253 799 1257 q 792 1242 799 1249 l 726 1176 q 715 1171 722 1171 q 704 1176 710 1171 l 639 1242 z "},"×":{"ha":882,"x_min":125,"x_max":757,"o":"m 125 800 l 174 849 l 442 581 l 707 846 l 754 797 l 489 532 l 757 264 l 710 215 l 442 483 l 176 218 l 128 267 l 393 532 l 125 800 z "},"Ø":{"ha":1111,"x_min":42,"x_max":1069,"o":"m 254 65 q 554 -28 381 -28 q 835 51 719 -28 q 1010 259 951 131 q 1069 533 1069 388 q 1022 782 1069 664 q 883 979 975 900 l 944 1067 l 892 1067 l 792 922 l 822 889 l 883 979 l 850 1006 q 554 1094 725 1094 q 274 1015 390 1094 q 100 808 158 936 q 42 533 42 679 q 88 290 42 406 q 219 94 133 174 l 254 65 l 314 151 q 283 188 296 169 l 154 0 l 210 0 l 254 65 m 172 394 q 135 614 135 501 q 201 869 135 758 q 397 1022 267 979 q 524 1044 463 1044 q 792 922 674 1044 l 283 188 q 172 394 218 272 m 822 889 q 935 676 894 799 q 974 447 974 563 q 912 199 974 307 q 721 49 850 92 q 583 25 651 25 q 314 151 429 25 l 822 889 z "},"Ù":{"ha":1043,"x_min":49,"x_max":994,"o":"m 863 1067 q 972 543 950 661 q 994 390 994 425 q 933 165 994 260 q 758 22 871 71 q 497 -28 646 -28 q 262 23 364 -28 q 104 160 160 74 q 49 346 49 246 q 117 574 49 465 q 335 767 185 682 q 371 808 371 790 q 365 825 371 819 l 92 1067 l 257 1067 l 468 875 q 485 842 485 858 q 458 806 485 822 l 356 735 q 210 570 257 660 q 164 385 164 481 q 210 199 164 286 q 333 59 256 111 q 497 7 410 7 q 681 51 590 7 q 828 174 771 96 q 886 347 886 251 q 870 447 886 361 q 824 681 854 532 q 775 929 794 831 l 749 1067 l 863 1067 m 401 1333 q 535 1213 468 1268 q 590 1165 567 1188 l 571 1144 l 329 1269 l 401 1333 z "},"Ú":{"ha":1043,"x_min":49,"x_max":994,"o":"m 863 1067 q 972 543 950 661 q 994 390 994 425 q 933 165 994 260 q 758 22 871 71 q 497 -28 646 -28 q 262 23 364 -28 q 104 160 160 74 q 49 346 49 246 q 117 574 49 465 q 335 767 185 682 q 371 808 371 790 q 365 825 371 819 l 92 1067 l 257 1067 l 468 875 q 485 842 485 858 q 458 806 485 822 l 356 735 q 210 570 257 660 q 164 385 164 481 q 210 199 164 286 q 333 59 256 111 q 497 7 410 7 q 681 51 590 7 q 828 174 771 96 q 886 347 886 251 q 870 447 886 361 q 824 681 854 532 q 775 929 794 831 l 749 1067 l 863 1067 m 463 1165 q 518 1213 486 1188 q 651 1333 585 1268 l 724 1269 l 482 1144 l 463 1165 z "},"Û":{"ha":1043,"x_min":49,"x_max":994,"o":"m 282 1190 q 343 1231 289 1194 l 368 1247 q 515 1364 460 1310 q 663 1247 571 1310 l 688 1231 q 749 1190 742 1194 l 738 1172 l 515 1283 l 293 1172 l 282 1190 m 49 346 q 117 574 49 465 q 335 767 185 682 q 371 808 371 790 q 365 825 371 819 l 92 1067 l 257 1067 l 468 875 q 485 842 485 858 q 458 806 485 822 l 356 735 q 210 570 257 660 q 164 385 164 481 q 210 199 164 286 q 333 59 256 111 q 497 7 410 7 q 681 51 590 7 q 828 174 771 96 q 886 347 886 251 q 870 447 886 361 q 824 681 854 532 q 775 929 794 831 l 749 1067 l 863 1067 q 972 543 950 661 q 994 390 994 425 q 933 165 994 260 q 758 22 871 71 q 497 -28 646 -28 q 262 23 364 -28 q 104 160 160 74 q 49 346 49 246 z "},"Ü":{"ha":1043,"x_min":49,"x_max":994,"o":"m 863 1067 q 972 543 950 661 q 994 390 994 425 q 933 165 994 260 q 758 22 871 71 q 497 -28 646 -28 q 262 23 364 -28 q 104 160 160 74 q 49 346 49 246 q 117 574 49 465 q 335 767 185 682 q 371 808 371 790 q 365 825 371 819 l 92 1067 l 257 1067 l 468 875 q 485 842 485 858 q 458 806 485 822 l 356 735 q 210 570 257 660 q 164 385 164 481 q 210 199 164 286 q 333 59 256 111 q 497 7 410 7 q 681 51 590 7 q 828 174 771 96 q 886 347 886 251 q 870 447 886 361 q 824 681 854 532 q 775 929 794 831 l 749 1067 l 863 1067 m 278 1242 q 272 1253 272 1250 q 278 1264 272 1256 l 343 1329 q 354 1335 349 1335 q 365 1329 361 1335 l 431 1264 q 438 1253 438 1257 q 431 1242 438 1249 l 365 1176 q 354 1171 361 1171 q 343 1176 349 1171 l 278 1242 m 610 1242 q 604 1253 604 1250 q 610 1264 604 1256 l 675 1329 q 686 1335 681 1335 q 697 1329 693 1335 l 763 1264 q 769 1253 769 1257 q 763 1242 769 1249 l 697 1176 q 686 1171 693 1171 q 675 1176 681 1171 l 610 1242 z "},"Ý":{"ha":985,"x_min":42,"x_max":943,"o":"m 582 560 q 549 478 549 514 l 549 0 l 436 0 l 436 478 q 403 560 436 514 l 42 1068 l 185 1068 q 345 751 261 890 q 493 539 429 613 q 641 751 557 613 q 801 1068 725 890 l 943 1068 l 582 560 m 325 1169 q 435 1242 385 1207 q 621 1389 561 1331 l 693 1325 l 336 1151 l 325 1169 z "},"Þ":{"ha":869,"x_min":83,"x_max":828,"o":"m 361 907 q 572 890 478 907 q 742 810 665 874 q 828 615 818 746 q 747 397 828 472 q 544 295 667 321 q 257 269 421 269 l 194 269 l 194 0 l 83 0 l 83 1067 l 194 1067 l 194 907 l 361 907 m 194 351 q 210 322 197 331 q 250 314 224 314 q 547 343 444 314 q 688 436 649 372 q 726 615 726 500 q 627 809 726 758 q 368 860 528 860 q 249 857 321 860 q 194 854 210 854 l 194 351 z "},"ß":{"ha":810,"x_min":83,"x_max":761,"o":"m 233 -149 q 404 -57 257 -136 q 463 -25 449 -32 q 599 119 550 25 q 647 325 647 213 q 471 619 647 547 q 384 660 407 646 q 361 694 361 675 q 372 728 361 713 q 404 765 382 743 q 463 841 442 803 q 485 943 485 879 q 456 1033 485 994 q 368 1071 426 1071 q 252 1019 290 1071 q 205 903 214 967 q 193 742 196 840 l 193 0 l 83 0 l 83 807 q 103 920 83 856 q 190 1040 124 985 q 385 1094 257 1094 q 494 1067 451 1094 q 557 998 538 1039 q 576 917 576 957 q 551 816 576 860 q 485 726 525 772 q 461 698 471 711 q 451 676 451 685 q 466 657 451 667 q 514 632 481 647 q 632 567 582 601 q 722 465 682 532 q 761 294 761 397 q 719 105 761 179 q 626 -6 678 31 q 513 -68 574 -42 q 410 -111 490 -78 q 347 -137 382 -124 q 272 -169 313 -151 l 92 -244 l 83 -225 l 233 -149 z "},"à":{"ha":857,"x_min":42,"x_max":843,"o":"m 696 89 q 543 1 632 32 q 363 -29 454 -29 q 202 1 275 -29 q 85 92 129 31 q 42 243 42 153 q 81 389 42 325 q 186 488 119 453 q 333 524 253 524 q 567 447 453 524 l 538 519 q 461 626 507 589 q 349 663 415 663 q 271 651 315 663 q 160 610 217 636 q 57 556 103 585 l 47 574 l 231 696 q 374 738 297 738 q 535 690 461 738 q 638 563 608 642 l 843 0 l 731 0 l 696 89 m 146 243 q 177 110 146 165 q 261 28 208 56 q 376 0 314 0 q 524 40 451 0 q 649 154 597 79 q 658 186 658 168 q 650 219 658 206 l 585 389 q 532 444 571 428 q 356 488 433 488 q 200 421 254 488 q 146 243 146 354 m 264 1067 q 397 946 331 1001 q 453 899 429 921 l 433 878 l 192 1003 l 264 1067 z "},"á":{"ha":857,"x_min":42,"x_max":843,"o":"m 696 89 q 543 1 632 32 q 363 -29 454 -29 q 202 1 275 -29 q 85 92 129 31 q 42 243 42 153 q 81 389 42 325 q 186 488 119 453 q 333 524 253 524 q 567 447 453 524 l 538 519 q 461 626 507 589 q 349 663 415 663 q 271 651 315 663 q 160 610 217 636 q 57 556 103 585 l 47 574 l 231 696 q 374 738 297 738 q 535 690 461 738 q 638 563 608 642 l 843 0 l 731 0 l 696 89 m 146 243 q 177 110 146 165 q 261 28 208 56 q 376 0 314 0 q 524 40 451 0 q 649 154 597 79 q 658 186 658 168 q 650 219 658 206 l 585 389 q 532 444 571 428 q 356 488 433 488 q 200 421 254 488 q 146 243 146 354 m 324 899 q 379 946 347 921 q 513 1067 446 1001 l 585 1003 l 343 878 l 324 899 z "},"â":{"ha":857,"x_min":42,"x_max":843,"o":"m 153 893 q 214 933 160 897 l 239 950 q 386 1067 331 1013 q 533 950 442 1013 l 558 933 q 619 893 613 897 l 608 875 l 386 986 l 164 875 l 153 893 m 42 243 q 81 389 42 325 q 186 488 119 453 q 333 524 253 524 q 567 447 453 524 l 538 519 q 461 626 507 589 q 349 663 415 663 q 271 651 315 663 q 160 610 217 636 q 57 556 103 585 l 47 574 l 231 696 q 374 738 297 738 q 535 690 461 738 q 638 563 608 642 l 843 0 l 731 0 l 696 89 q 543 1 632 32 q 363 -29 454 -29 q 202 1 275 -29 q 85 92 129 31 q 42 243 42 153 m 146 243 q 177 110 146 165 q 261 28 208 56 q 376 0 314 0 q 524 40 451 0 q 649 154 597 79 q 658 186 658 168 q 650 219 658 206 l 585 389 q 532 444 571 428 q 356 488 433 488 q 200 421 254 488 q 146 243 146 354 z "},"ã":{"ha":857,"x_min":42,"x_max":843,"o":"m 696 89 q 543 1 632 32 q 363 -29 454 -29 q 202 1 275 -29 q 85 92 129 31 q 42 243 42 153 q 81 389 42 325 q 186 488 119 453 q 333 524 253 524 q 567 447 453 524 l 538 519 q 461 626 507 589 q 349 663 415 663 q 271 651 315 663 q 160 610 217 636 q 57 556 103 585 l 47 574 l 231 696 q 374 738 297 738 q 535 690 461 738 q 638 563 608 642 l 843 0 l 731 0 l 696 89 m 94 871 q 188 955 140 926 q 292 983 235 983 q 375 969 332 983 q 494 937 457 946 q 565 928 531 928 q 676 972 632 928 l 693 960 q 518 860 613 860 q 467 867 489 860 l 424 879 q 333 905 372 896 q 257 914 294 914 q 111 860 175 914 l 94 871 m 146 243 q 177 110 146 165 q 261 28 208 56 q 376 0 314 0 q 524 40 451 0 q 649 154 597 79 q 658 186 658 168 q 650 219 658 206 l 585 389 q 532 444 571 428 q 356 488 433 488 q 200 421 254 488 q 146 243 146 354 z "},"ä":{"ha":857,"x_min":42,"x_max":843,"o":"m 696 89 q 543 1 632 32 q 363 -29 454 -29 q 202 1 275 -29 q 85 92 129 31 q 42 243 42 153 q 81 389 42 325 q 186 488 119 453 q 333 524 253 524 q 567 447 453 524 l 538 519 q 461 626 507 589 q 349 663 415 663 q 271 651 315 663 q 160 610 217 636 q 57 556 103 585 l 47 574 l 231 696 q 374 738 297 738 q 535 690 461 738 q 638 563 608 642 l 843 0 l 731 0 l 696 89 m 146 243 q 177 110 146 165 q 261 28 208 56 q 376 0 314 0 q 524 40 451 0 q 649 154 597 79 q 658 186 658 168 q 650 219 658 206 l 585 389 q 532 444 571 428 q 356 488 433 488 q 200 421 254 488 q 146 243 146 354 m 176 942 q 171 953 171 950 q 176 964 171 956 l 242 1029 q 253 1035 247 1035 q 264 1029 260 1035 l 329 964 q 336 953 336 957 q 329 942 336 949 l 264 876 q 253 871 260 871 q 242 876 247 871 l 176 942 m 468 942 q 463 953 463 950 q 468 964 463 956 l 533 1029 q 544 1035 539 1035 q 556 1029 551 1035 l 621 964 q 628 953 628 957 q 621 942 628 949 l 556 876 q 544 871 551 871 q 533 876 539 871 l 468 942 z "},"å":{"ha":857,"x_min":42,"x_max":843,"o":"m 696 89 q 543 1 632 32 q 363 -29 454 -29 q 202 1 275 -29 q 85 92 129 31 q 42 243 42 153 q 81 389 42 325 q 186 488 119 453 q 333 524 253 524 q 567 447 453 524 l 538 519 q 461 626 507 589 q 349 663 415 663 q 271 651 315 663 q 160 610 217 636 q 57 556 103 585 l 47 574 l 231 696 q 374 738 297 738 q 535 690 461 738 q 638 563 608 642 l 843 0 l 731 0 l 696 89 m 146 243 q 177 110 146 165 q 261 28 208 56 q 376 0 314 0 q 524 40 451 0 q 649 154 597 79 q 658 186 658 168 q 650 219 658 206 l 585 389 q 532 444 571 428 q 356 488 433 488 q 200 421 254 488 q 146 243 146 354 m 290 972 q 318 1039 290 1011 q 383 1067 346 1067 q 450 1039 422 1067 q 478 972 478 1011 q 450 907 478 935 q 383 879 422 879 q 318 907 346 879 q 290 972 290 935 m 340 944 q 366 919 350 928 q 397 910 382 910 q 421 917 413 910 q 440 954 440 928 q 425 1001 440 978 q 372 1036 403 1036 q 338 1023 350 1036 q 326 989 326 1010 q 340 944 326 964 z "},"æ":{"ha":1449,"x_min":42,"x_max":1414,"o":"m 1414 271 q 1275 77 1350 146 q 1110 -14 1200 8 q 1014 -28 1072 -28 q 826 13 910 -28 q 707 113 756 51 l 696 101 q 542 4 632 39 q 360 -31 451 -31 q 200 1 272 -31 q 85 97 128 33 q 42 256 42 161 q 81 401 42 338 q 186 501 119 465 q 333 536 253 536 q 567 460 453 536 l 538 532 q 461 638 507 601 q 349 675 415 675 q 271 664 315 675 q 160 623 217 649 q 57 568 103 597 l 47 586 l 231 708 q 374 750 297 750 q 535 702 461 750 q 638 575 608 654 l 657 524 q 790 688 699 625 q 1014 750 882 750 q 1249 683 1156 750 q 1381 504 1342 615 l 767 265 q 874 91 806 157 q 1038 25 942 25 q 1069 26 1058 25 q 1252 108 1167 44 q 1388 283 1338 172 l 1414 271 m 146 256 q 177 116 146 174 q 260 29 208 58 q 375 0 313 0 q 524 42 450 0 q 649 167 597 85 q 657 196 657 178 l 632 279 l 585 401 q 532 457 571 440 q 356 500 433 500 q 200 433 254 500 q 146 256 146 367 m 1246 514 q 1138 665 1203 607 q 988 722 1074 722 q 901 707 950 722 q 772 611 813 678 q 731 456 731 544 q 758 290 731 381 l 1246 514 z "},"ç":{"ha":867,"x_min":43,"x_max":832,"o":"m 656 525 q 403 721 549 721 q 319 707 361 721 q 190 611 231 678 q 149 456 149 544 q 176 292 149 382 q 287 104 221 169 q 449 39 353 39 q 483 40 471 39 q 671 117 585 60 q 806 285 757 175 l 832 272 q 693 78 768 147 q 528 -12 618 10 q 468 -25 501 -21 q 433 -81 458 -62 q 404 -101 407 -100 q 495 -124 461 -97 q 529 -196 529 -150 q 497 -267 529 -240 q 418 -293 465 -293 q 368 -283 397 -293 q 328 -267 339 -274 l 339 -243 q 413 -264 361 -254 q 460 -247 440 -267 q 481 -196 481 -228 q 460 -143 481 -164 q 408 -122 440 -122 q 386 -124 396 -122 q 376 -122 383 -125 q 374 -104 367 -117 q 400 -25 393 -72 q 206 38 286 -18 q 84 179 125 93 q 43 363 43 265 q 88 553 43 464 q 220 697 132 642 q 432 751 308 751 q 618 702 536 751 q 749 585 700 653 l 656 525 z "},"è":{"ha":867,"x_min":43,"x_max":832,"o":"m 832 271 q 693 77 768 146 q 528 -14 618 8 q 432 -28 490 -28 q 220 27 308 -28 q 88 171 132 82 q 43 361 43 260 q 88 551 43 463 q 220 695 132 640 q 432 750 308 750 q 667 683 574 750 q 799 504 760 615 l 185 265 q 292 91 224 157 q 456 25 360 25 q 488 26 476 25 q 670 108 585 44 q 806 283 756 172 l 832 271 m 664 514 q 556 665 621 607 q 406 722 492 722 q 319 707 368 722 q 190 611 231 678 q 149 456 149 544 q 176 290 149 381 l 664 514 m 289 1067 q 422 946 356 1001 q 478 899 454 921 l 458 878 l 217 1003 l 289 1067 z "},"é":{"ha":867,"x_min":43,"x_max":832,"o":"m 832 271 q 693 77 768 146 q 528 -14 618 8 q 432 -28 490 -28 q 220 27 308 -28 q 88 171 132 82 q 43 361 43 260 q 88 551 43 463 q 220 695 132 640 q 432 750 308 750 q 667 683 574 750 q 799 504 760 615 l 185 265 q 292 91 224 157 q 456 25 360 25 q 488 26 476 25 q 670 108 585 44 q 806 283 756 172 l 832 271 m 664 514 q 556 665 621 607 q 406 722 492 722 q 319 707 368 722 q 190 611 231 678 q 149 456 149 544 q 176 290 149 381 l 664 514 m 344 899 q 400 946 368 921 q 533 1067 467 1001 l 606 1003 l 364 878 l 344 899 z "},"ê":{"ha":867,"x_min":43,"x_max":832,"o":"m 189 893 q 250 933 196 897 l 275 950 q 422 1067 367 1013 q 569 950 478 1013 l 594 933 q 656 893 649 897 l 644 875 l 422 986 l 200 875 l 189 893 m 664 514 q 556 665 621 607 q 406 722 492 722 q 319 707 368 722 q 190 611 231 678 q 149 456 149 544 q 176 290 149 381 l 664 514 m 185 265 q 292 91 224 157 q 456 25 360 25 q 488 26 476 25 q 670 108 585 44 q 806 283 756 172 l 832 271 q 693 77 768 146 q 528 -14 618 8 q 432 -28 490 -28 q 220 27 308 -28 q 88 171 132 82 q 43 361 43 260 q 88 551 43 463 q 220 695 132 640 q 432 750 308 750 q 667 683 574 750 q 799 504 760 615 l 185 265 z "},"ë":{"ha":867,"x_min":43,"x_max":832,"o":"m 832 271 q 693 77 768 146 q 528 -14 618 8 q 432 -28 490 -28 q 220 27 308 -28 q 88 171 132 82 q 43 361 43 260 q 88 551 43 463 q 220 695 132 640 q 432 750 308 750 q 667 683 574 750 q 799 504 760 615 l 185 265 q 292 91 224 157 q 456 25 360 25 q 488 26 476 25 q 670 108 585 44 q 806 283 756 172 l 832 271 m 169 942 q 164 953 164 950 q 169 964 164 956 l 235 1029 q 246 1035 240 1035 q 257 1029 253 1035 l 322 964 q 329 953 329 957 q 322 942 329 949 l 257 876 q 246 871 253 871 q 235 876 240 871 l 169 942 m 664 514 q 556 665 621 607 q 406 722 492 722 q 319 707 368 722 q 190 611 231 678 q 149 456 149 544 q 176 290 149 381 l 664 514 m 501 942 q 496 953 496 950 q 501 964 496 956 l 567 1029 q 578 1035 572 1035 q 589 1029 585 1035 l 654 964 q 661 953 661 957 q 654 942 661 949 l 589 876 q 578 871 585 871 q 567 876 572 871 l 501 942 z "},"ì":{"ha":317,"x_min":-76,"x_max":213,"o":"m 101 0 l 101 722 l 213 722 l 213 0 l 101 0 m -4 1067 q 129 946 63 1001 q 185 899 161 921 l 165 878 l -76 1003 l -4 1067 z "},"í":{"ha":318,"x_min":104,"x_max":394,"o":"m 104 0 l 104 722 l 215 722 l 215 0 l 104 0 m 133 899 q 189 946 157 921 q 322 1067 256 1001 l 394 1003 l 153 878 l 133 899 z "},"î":{"ha":328,"x_min":-69,"x_max":397,"o":"m -69 893 q -8 933 -62 897 l 17 950 q 164 1067 108 1013 q 311 950 219 1013 l 336 933 q 397 893 390 897 l 386 875 l 164 986 l -58 875 l -69 893 m 113 722 l 224 722 l 224 0 l 113 0 l 113 722 z "},"ï":{"ha":293,"x_min":-57,"x_max":350,"o":"m 36 876 q 25 871 32 871 q 14 876 19 871 l -51 942 q -57 953 -57 947 q -51 964 -57 958 l 14 1029 q 25 1035 19 1035 q 36 1029 32 1035 l 101 964 q 108 953 108 957 q 101 942 108 949 l 36 876 m 89 722 l 200 722 l 200 0 l 89 0 l 89 722 m 190 942 q 185 953 185 950 q 190 964 185 956 l 256 1029 q 267 1035 261 1035 q 278 1029 274 1035 l 343 964 q 350 953 350 957 q 343 942 350 949 l 278 876 q 267 871 274 871 q 256 876 261 871 l 190 942 z "},"ð":{"ha":865,"x_min":43,"x_max":822,"o":"m 814 450 q 822 363 822 407 q 778 172 822 261 q 645 28 733 83 q 432 -28 557 -28 q 220 27 308 -28 q 88 171 132 82 q 43 361 43 260 q 88 551 43 463 q 220 695 132 640 q 432 750 308 750 q 592 721 518 750 q 496 858 547 799 q 376 958 444 917 l 218 868 l 203 893 l 347 978 q 244 1031 294 1007 l 201 1050 l 210 1069 l 382 997 l 508 1071 l 525 1044 l 418 982 q 630 830 544 929 q 759 628 715 731 q 814 450 803 525 m 181 276 q 292 80 221 158 q 463 1 364 1 q 549 17 500 1 q 722 264 722 75 q 689 446 722 343 q 578 644 649 565 q 408 722 508 722 q 321 707 363 722 q 190 610 231 676 q 149 453 149 543 q 181 276 149 369 z "},"ñ":{"ha":799,"x_min":69,"x_max":736,"o":"m 625 0 l 625 519 q 504 657 625 657 q 377 632 443 657 q 214 563 311 607 q 181 510 181 547 l 181 0 l 69 0 l 69 722 l 181 722 l 181 578 q 453 703 264 619 q 554 726 503 726 q 679 683 626 726 q 736 563 732 639 l 736 0 l 625 0 m 119 871 q 213 955 165 926 q 317 983 260 983 q 400 969 357 983 q 519 937 482 946 q 590 928 556 928 q 701 972 657 928 l 718 960 q 543 860 638 860 q 492 867 514 860 l 449 879 q 358 905 397 896 q 282 914 319 914 q 136 860 200 914 l 119 871 z "},"ò":{"ha":865,"x_min":43,"x_max":822,"o":"m 432 750 q 644 695 556 750 q 778 551 733 640 q 822 361 822 463 q 778 171 822 260 q 644 27 733 82 q 432 -28 556 -28 q 220 27 308 -28 q 88 171 132 82 q 43 361 43 260 q 88 551 43 463 q 220 695 132 640 q 432 750 308 750 m 181 276 q 292 80 221 158 q 463 1 364 1 q 549 17 500 1 q 722 264 722 75 q 689 446 722 343 q 578 644 649 565 q 408 722 508 722 q 321 707 363 722 q 190 610 231 676 q 149 453 149 543 q 181 276 149 369 m 290 1067 q 424 946 357 1001 q 479 899 456 921 l 460 878 l 218 1003 l 290 1067 z "},"ó":{"ha":865,"x_min":43,"x_max":822,"o":"m 432 750 q 644 695 556 750 q 778 551 733 640 q 822 361 822 463 q 778 171 822 260 q 644 27 733 82 q 432 -28 556 -28 q 220 27 308 -28 q 88 171 132 82 q 43 361 43 260 q 88 551 43 463 q 220 695 132 640 q 432 750 308 750 m 181 276 q 292 80 221 158 q 463 1 364 1 q 549 17 500 1 q 722 264 722 75 q 689 446 722 343 q 578 644 649 565 q 408 722 508 722 q 321 707 363 722 q 190 610 231 676 q 149 453 149 543 q 181 276 149 369 m 314 899 q 369 946 338 921 q 503 1067 436 1001 l 575 1003 l 333 878 l 314 899 z "},"ô":{"ha":865,"x_min":43,"x_max":822,"o":"m 186 893 q 247 933 193 897 l 272 950 q 419 1067 364 1013 q 567 950 475 1013 l 592 933 q 653 893 646 897 l 642 875 l 419 986 l 197 875 l 186 893 m 181 276 q 292 80 221 158 q 463 1 364 1 q 549 17 500 1 q 722 264 722 75 q 689 446 722 343 q 578 644 649 565 q 408 722 508 722 q 321 707 363 722 q 190 610 231 676 q 149 453 149 543 q 181 276 149 369 m 432 -28 q 220 27 308 -28 q 88 171 132 82 q 43 361 43 260 q 88 551 43 463 q 220 695 132 640 q 432 750 308 750 q 644 695 556 750 q 778 551 733 640 q 822 361 822 463 q 778 171 822 260 q 644 27 733 82 q 432 -28 556 -28 z "},"õ":{"ha":865,"x_min":43,"x_max":822,"o":"m 471 879 q 381 905 419 896 q 304 914 342 914 q 158 860 222 914 l 142 871 q 235 955 188 926 q 339 983 282 983 q 422 969 379 983 q 541 937 504 946 q 613 928 578 928 q 724 972 679 928 l 740 960 q 565 860 660 860 q 514 867 536 860 l 471 879 m 181 276 q 292 80 221 158 q 463 1 364 1 q 549 17 500 1 q 722 264 722 75 q 689 446 722 343 q 578 644 649 565 q 408 722 508 722 q 321 707 363 722 q 190 610 231 676 q 149 453 149 543 q 181 276 149 369 m 432 -28 q 220 27 308 -28 q 88 171 132 82 q 43 361 43 260 q 88 551 43 463 q 220 695 132 640 q 432 750 308 750 q 644 695 556 750 q 778 551 733 640 q 822 361 822 463 q 778 171 822 260 q 644 27 733 82 q 432 -28 556 -28 z "},"ö":{"ha":865,"x_min":43,"x_max":822,"o":"m 269 876 q 258 871 265 871 q 247 876 253 871 l 182 942 q 176 953 176 950 q 182 964 176 956 l 247 1029 q 258 1035 253 1035 q 269 1029 265 1035 l 335 964 q 342 953 342 957 q 335 942 342 949 l 269 876 m 181 276 q 292 80 221 158 q 463 1 364 1 q 549 17 500 1 q 722 264 722 75 q 689 446 722 343 q 578 644 649 565 q 408 722 508 722 q 321 707 363 722 q 190 610 231 676 q 149 453 149 543 q 181 276 149 369 m 432 -28 q 220 27 308 -28 q 88 171 132 82 q 43 361 43 260 q 88 551 43 463 q 220 695 132 640 q 432 750 308 750 q 644 695 556 750 q 778 551 733 640 q 822 361 822 463 q 778 171 822 260 q 644 27 733 82 q 432 -28 556 -28 m 514 942 q 508 953 508 950 q 514 964 508 956 l 579 1029 q 590 1035 585 1035 q 601 1029 597 1035 l 667 964 q 674 953 674 957 q 667 942 674 949 l 601 876 q 590 871 597 871 q 579 876 585 871 l 514 942 z "},"÷":{"ha":944,"x_min":125,"x_max":819,"o":"m 125 568 l 819 568 l 819 500 l 125 500 l 125 568 m 396 263 q 396 281 388 271 l 465 350 q 483 350 475 360 l 554 281 q 554 263 563 271 l 483 192 q 465 192 475 183 l 396 263 m 396 790 q 396 808 388 799 l 465 878 q 483 878 475 888 l 554 808 q 554 790 563 799 l 483 719 q 465 719 475 711 l 396 790 z "},"ø":{"ha":865,"x_min":43,"x_max":822,"o":"m 236 18 q 432 -28 321 -28 q 644 27 556 -28 q 778 171 733 82 q 822 361 822 260 q 786 531 822 450 q 683 668 750 613 l 742 751 l 688 751 l 597 621 q 625 583 608 607 l 683 668 l 647 693 q 432 750 557 750 q 220 695 308 750 q 88 551 132 640 q 43 361 43 463 q 83 181 43 267 q 197 42 122 96 q 236 18 222 25 l 285 88 q 254 125 274 100 l 147 -31 l 203 -31 l 236 18 m 181 276 q 149 453 149 369 q 190 610 149 543 q 321 707 231 676 q 408 722 363 722 q 597 621 517 722 l 254 125 q 181 276 211 188 m 625 583 q 689 446 661 524 q 722 264 722 343 q 549 17 722 75 q 463 1 500 1 q 285 88 364 1 l 625 583 z "},"ù":{"ha":746,"x_min":63,"x_max":676,"o":"m 213 1003 l 285 1067 q 418 946 351 1001 q 474 899 450 921 l 454 878 l 213 1003 m 63 722 l 172 722 l 172 203 q 207 90 172 135 q 301 46 242 46 q 351 54 325 46 q 539 149 422 76 q 559 169 551 157 q 567 197 567 182 l 567 722 l 676 722 l 676 0 l 567 0 l 567 140 q 553 131 560 135 q 543 125 547 128 q 347 8 440 51 q 246 -14 301 -14 q 156 8 199 -14 q 88 69 114 29 q 63 160 63 108 l 63 722 z "},"ú":{"ha":746,"x_min":63,"x_max":676,"o":"m 283 899 q 339 946 307 921 q 472 1067 406 1001 l 544 1003 l 303 878 l 283 899 m 63 722 l 172 722 l 172 203 q 207 90 172 135 q 301 46 242 46 q 351 54 325 46 q 539 149 422 76 q 559 169 551 157 q 567 197 567 182 l 567 722 l 676 722 l 676 0 l 567 0 l 567 140 q 553 131 560 135 q 543 125 547 128 q 347 8 440 51 q 246 -14 301 -14 q 156 8 199 -14 q 88 69 114 29 q 63 160 63 108 l 63 722 z "},"û":{"ha":746,"x_min":63,"x_max":676,"o":"m 136 893 q 197 933 143 897 l 222 950 q 369 1067 314 1013 q 517 950 425 1013 l 542 933 q 603 893 596 897 l 592 875 l 369 986 l 147 875 l 136 893 m 63 722 l 172 722 l 172 203 q 207 90 172 135 q 301 46 242 46 q 351 54 325 46 q 539 149 422 76 q 559 169 551 157 q 567 197 567 182 l 567 722 l 676 722 l 676 0 l 567 0 l 567 140 q 553 131 560 135 q 543 125 547 128 q 347 8 440 51 q 246 -14 301 -14 q 156 8 199 -14 q 88 69 114 29 q 63 160 63 108 l 63 722 z "},"ü":{"ha":746,"x_min":63,"x_max":676,"o":"m 224 876 q 213 871 219 871 q 201 876 207 871 l 136 942 q 131 953 131 950 q 136 964 131 956 l 201 1029 q 213 1035 207 1035 q 224 1029 219 1035 l 289 964 q 296 953 296 957 q 289 942 296 949 l 224 876 m 63 722 l 172 722 l 172 203 q 207 90 172 135 q 301 46 242 46 q 351 54 325 46 q 539 149 422 76 q 559 169 551 157 q 567 197 567 182 l 567 722 l 676 722 l 676 0 l 567 0 l 567 140 q 553 131 560 135 q 543 125 547 128 q 347 8 440 51 q 246 -14 301 -14 q 156 8 199 -14 q 88 69 114 29 q 63 160 63 108 l 63 722 m 468 942 q 463 953 463 950 q 468 964 463 956 l 533 1029 q 544 1035 539 1035 q 556 1029 551 1035 l 621 964 q 628 953 628 957 q 621 942 628 949 l 556 876 q 544 871 551 871 q 533 876 539 871 l 468 942 z "},"ý":{"ha":746,"x_min":63,"x_max":676,"o":"m 676 -58 q 637 -183 671 -121 q 497 -294 603 -244 l 142 -444 l 133 -425 q 349 -315 257 -372 q 503 -187 442 -257 q 565 -42 565 -117 l 565 140 q 347 19 468 75 q 247 -3 301 -3 q 121 40 174 -3 q 64 160 68 83 q 63 207 63 176 l 64 303 l 64 722 l 175 722 l 175 203 q 208 93 175 136 q 300 50 242 50 q 351 58 325 50 q 440 94 389 69 q 539 149 490 119 q 558 169 551 156 q 565 197 565 182 l 565 722 l 676 722 l 676 -58 m 310 899 q 365 946 333 921 q 499 1067 432 1001 l 571 1003 l 329 878 l 310 899 z "},"þ":{"ha":894,"x_min":75,"x_max":846,"o":"m 75 -444 l 75 1067 l 186 1067 l 186 521 q 350 671 260 619 q 529 722 440 722 q 689 676 617 722 q 803 540 761 629 q 846 329 846 451 q 799 132 846 213 q 673 12 751 51 q 500 -28 594 -28 q 336 1 418 -28 q 186 86 254 31 l 186 -444 l 75 -444 m 186 240 q 207 169 186 204 q 326 47 257 89 q 468 4 396 4 q 599 44 539 4 q 694 163 658 83 q 731 354 731 242 q 698 521 731 453 q 611 622 665 589 q 490 656 557 656 q 325 605 407 656 q 186 461 243 554 l 186 240 z "},"ÿ":{"ha":746,"x_min":63,"x_max":676,"o":"m 676 -58 q 637 -183 671 -121 q 497 -294 603 -244 l 142 -444 l 133 -425 q 349 -315 257 -372 q 503 -187 442 -257 q 565 -42 565 -117 l 565 140 q 347 19 468 75 q 247 -3 301 -3 q 121 40 174 -3 q 64 160 68 83 q 63 207 63 176 l 64 303 l 64 722 l 175 722 l 175 203 q 208 93 175 136 q 300 50 242 50 q 351 58 325 50 q 440 94 389 69 q 539 149 490 119 q 558 169 551 156 q 565 197 565 182 l 565 722 l 676 722 l 676 -58 m 138 942 q 132 953 132 950 q 138 964 132 956 l 203 1029 q 214 1035 208 1035 q 225 1029 221 1035 l 290 964 q 297 953 297 957 q 290 942 297 949 l 225 876 q 214 871 221 871 q 203 876 208 871 l 138 942 m 469 942 q 464 953 464 950 q 469 964 464 956 l 535 1029 q 546 1035 540 1035 q 557 1029 553 1035 l 622 964 q 629 953 629 957 q 622 942 629 949 l 557 876 q 546 871 553 871 q 535 876 540 871 l 469 942 z "},"Ā":{"ha":1051,"x_min":49,"x_max":1003,"o":"m 726 364 q 704 382 719 379 q 683 383 697 383 q 640 378 658 383 l 607 367 l 469 301 q 339 261 392 261 q 250 325 272 261 q 217 196 233 253 q 192 94 203 144 q 174 0 181 44 l 49 0 l 517 1067 l 533 1067 l 1003 0 l 886 0 l 726 364 m 261 354 q 271 334 258 343 q 296 326 283 325 q 328 336 308 328 q 371 356 347 344 q 410 374 394 367 l 521 426 q 608 449 567 449 q 665 435 642 449 q 713 399 688 422 l 490 908 q 358 613 433 789 q 261 354 283 436 m 328 1199 l 697 1199 l 697 1122 l 328 1122 l 328 1199 z "},"ā":{"ha":857,"x_min":42,"x_max":843,"o":"m 696 89 q 543 1 632 32 q 363 -29 454 -29 q 202 1 275 -29 q 85 92 129 31 q 42 243 42 153 q 81 389 42 325 q 186 488 119 453 q 333 524 253 524 q 567 447 453 524 l 538 519 q 461 626 507 589 q 349 663 415 663 q 271 651 315 663 q 160 610 217 636 q 57 556 103 585 l 47 574 l 231 696 q 374 738 297 738 q 535 690 461 738 q 638 563 608 642 l 843 0 l 731 0 l 696 89 m 146 243 q 177 110 146 165 q 261 28 208 56 q 376 0 314 0 q 524 40 451 0 q 649 154 597 79 q 658 186 658 168 q 650 219 658 206 l 585 389 q 532 444 571 428 q 356 488 433 488 q 200 421 254 488 q 146 243 146 354 m 186 1014 l 556 1014 l 556 938 l 186 938 l 186 1014 z "},"Ă":{"ha":1051,"x_min":49,"x_max":1003,"o":"m 726 364 q 704 382 719 379 q 683 383 697 383 q 640 378 658 383 l 607 367 l 469 301 q 339 261 392 261 q 250 325 272 261 q 217 196 233 253 q 192 94 203 144 q 174 0 181 44 l 49 0 l 517 1067 l 533 1067 l 1003 0 l 886 0 l 726 364 m 261 354 q 271 334 258 343 q 296 326 283 325 q 328 336 308 328 q 371 356 347 344 q 410 374 394 367 l 521 426 q 608 449 567 449 q 665 435 642 449 q 713 399 688 422 l 490 908 q 358 613 433 789 q 261 354 283 436 m 347 1235 q 363 1272 347 1258 q 403 1286 378 1286 q 440 1273 426 1286 q 467 1233 453 1260 q 492 1194 481 1207 q 526 1182 504 1182 q 563 1195 550 1182 q 588 1233 575 1208 q 615 1273 601 1260 q 651 1286 628 1286 q 692 1272 676 1286 q 707 1235 707 1258 q 647 1172 707 1188 q 526 1156 588 1156 q 407 1172 467 1156 q 347 1235 347 1188 z "},"ă":{"ha":857,"x_min":42,"x_max":843,"o":"m 696 89 q 543 1 632 32 q 363 -29 454 -29 q 202 1 275 -29 q 85 92 129 31 q 42 243 42 153 q 81 389 42 325 q 186 488 119 453 q 333 524 253 524 q 567 447 453 524 l 538 519 q 461 626 507 589 q 349 663 415 663 q 271 651 315 663 q 160 610 217 636 q 57 556 103 585 l 47 574 l 231 696 q 374 738 297 738 q 535 690 461 738 q 638 563 608 642 l 843 0 l 731 0 l 696 89 m 146 243 q 177 110 146 165 q 261 28 208 56 q 376 0 314 0 q 524 40 451 0 q 649 154 597 79 q 658 186 658 168 q 650 219 658 206 l 585 389 q 532 444 571 428 q 356 488 433 488 q 200 421 254 488 q 146 243 146 354 m 222 963 q 238 1000 222 986 q 278 1014 253 1014 q 315 1001 301 1014 q 342 961 328 988 q 367 922 356 935 q 401 910 379 910 q 438 923 425 910 q 463 961 450 936 q 490 1001 476 988 q 526 1014 503 1014 q 567 1000 551 1014 q 582 963 582 986 q 522 899 582 915 q 401 883 463 883 q 282 899 342 883 q 222 963 222 915 z "},"Ą":{"ha":1051,"x_min":49,"x_max":1003,"o":"m 726 364 q 704 382 719 379 q 683 383 697 383 q 640 378 658 383 l 607 367 l 469 301 q 339 261 392 261 q 250 325 272 261 q 217 196 233 253 q 192 94 203 144 q 174 0 181 44 l 49 0 l 517 1067 l 533 1067 l 1003 0 l 926 0 q 872 -73 894 -28 q 850 -157 850 -118 q 851 -176 850 -169 q 868 -212 856 -200 q 907 -224 881 -224 q 957 -215 926 -224 l 967 -237 q 861 -274 911 -274 q 794 -249 819 -274 q 768 -185 768 -225 q 785 -118 768 -154 q 886 0 814 -61 l 726 364 m 261 354 q 271 334 258 343 q 296 326 283 325 q 328 336 308 328 q 371 356 347 344 q 410 374 394 367 l 521 426 q 608 449 567 449 q 665 435 642 449 q 713 399 688 422 l 490 908 q 358 613 433 789 q 261 354 283 436 z "},"ą":{"ha":857,"x_min":42,"x_max":843,"o":"m 696 89 q 543 1 632 32 q 363 -29 454 -29 q 202 1 275 -29 q 85 92 129 31 q 42 243 42 153 q 81 389 42 325 q 186 488 119 453 q 333 524 253 524 q 567 447 453 524 l 538 519 q 461 626 507 589 q 349 663 415 663 q 271 651 315 663 q 160 610 217 636 q 57 556 103 585 l 47 574 l 231 696 q 374 738 297 738 q 535 690 461 738 q 638 563 608 642 l 843 0 l 771 0 q 717 -73 739 -28 q 694 -157 694 -118 q 696 -176 694 -169 q 713 -212 700 -200 q 751 -224 725 -224 q 801 -215 771 -224 l 811 -237 q 706 -274 756 -274 q 638 -249 664 -274 q 613 -185 613 -225 q 629 -118 613 -154 q 731 0 658 -61 l 696 89 m 146 243 q 177 110 146 165 q 261 28 208 56 q 376 0 314 0 q 524 40 451 0 q 649 154 597 79 q 658 186 658 168 q 650 219 658 206 l 585 389 q 532 444 571 428 q 356 488 433 488 q 200 421 254 488 q 146 243 146 354 z "},"Ć":{"ha":1099,"x_min":42,"x_max":1057,"o":"m 1057 375 q 867 83 994 193 q 554 -28 739 -28 q 274 51 390 -28 q 100 259 158 131 q 42 533 42 388 q 99 799 42 679 q 258 996 156 919 q 494 1089 361 1072 q 575 1093 536 1093 q 787 1043 685 1093 q 1006 865 889 993 l 896 793 q 737 983 819 919 q 547 1047 654 1047 q 394 1019 474 1047 q 200 864 265 976 q 135 607 135 751 q 174 381 135 493 q 273 214 208 288 q 422 99 338 140 q 597 57 506 57 q 756 95 671 57 q 917 208 842 133 q 1038 388 993 283 l 1057 375 m 403 1165 q 458 1213 426 1188 q 592 1333 525 1268 l 664 1269 l 422 1144 l 403 1165 z "},"ć":{"ha":867,"x_min":43,"x_max":832,"o":"m 314 899 q 369 946 338 921 q 503 1067 436 1001 l 575 1003 l 333 878 l 314 899 m 176 292 q 287 104 221 169 q 449 39 353 39 q 483 40 471 39 q 671 117 585 60 q 806 285 757 175 l 832 272 q 693 78 768 147 q 528 -12 618 10 q 432 -26 490 -26 q 220 28 308 -26 q 88 172 132 83 q 43 363 43 261 q 88 553 43 464 q 220 697 132 642 q 432 751 308 751 q 618 702 536 751 q 749 585 700 653 l 656 525 q 403 721 549 721 q 319 707 361 721 q 190 611 231 678 q 149 456 149 544 q 176 292 149 382 z "},"Ĉ":{"ha":1099,"x_min":42,"x_max":1057,"o":"m 1057 375 q 867 83 994 193 q 554 -28 739 -28 q 274 51 390 -28 q 100 259 158 131 q 42 533 42 388 q 99 799 42 679 q 258 996 156 919 q 494 1089 361 1072 q 575 1093 536 1093 q 787 1043 685 1093 q 1006 865 889 993 l 896 793 q 737 983 819 919 q 547 1047 654 1047 q 394 1019 474 1047 q 200 864 265 976 q 135 607 135 751 q 174 381 135 493 q 273 214 208 288 q 422 99 338 140 q 597 57 506 57 q 756 95 671 57 q 917 208 842 133 q 1038 388 993 283 l 1057 375 m 322 1160 q 383 1200 329 1164 l 408 1217 q 556 1333 500 1279 q 703 1217 611 1279 l 728 1200 q 789 1160 782 1164 l 778 1142 l 556 1253 l 333 1142 l 322 1160 z "},"ĉ":{"ha":867,"x_min":43,"x_max":832,"o":"m 189 893 q 250 933 196 897 l 275 950 q 422 1067 367 1013 q 569 950 478 1013 l 594 933 q 656 893 649 897 l 644 875 l 422 986 l 200 875 l 189 893 m 176 292 q 287 104 221 169 q 449 39 353 39 q 483 40 471 39 q 671 117 585 60 q 806 285 757 175 l 832 272 q 693 78 768 147 q 528 -12 618 10 q 432 -26 490 -26 q 220 28 308 -26 q 88 172 132 83 q 43 363 43 261 q 88 553 43 464 q 220 697 132 642 q 432 751 308 751 q 618 702 536 751 q 749 585 700 653 l 656 525 q 403 721 549 721 q 319 707 361 721 q 190 611 231 678 q 149 456 149 544 q 176 292 149 382 z "},"Ċ":{"ha":1099,"x_min":42,"x_max":1057,"o":"m 553 1179 q 542 1174 549 1174 q 531 1179 536 1174 l 465 1244 q 460 1256 460 1253 q 465 1267 460 1258 l 531 1332 q 542 1338 536 1338 q 553 1332 549 1338 l 618 1267 q 625 1256 625 1260 q 618 1244 625 1251 l 553 1179 m 42 533 q 99 799 42 679 q 258 996 156 919 q 494 1089 361 1072 q 575 1093 536 1093 q 787 1043 685 1093 q 1006 865 889 993 l 896 793 q 737 983 819 919 q 547 1047 654 1047 q 394 1019 474 1047 q 200 864 265 976 q 135 607 135 751 q 174 381 135 493 q 273 214 208 288 q 422 99 338 140 q 597 57 506 57 q 756 95 671 57 q 917 208 842 133 q 1038 388 993 283 l 1057 375 q 867 83 994 193 q 554 -28 739 -28 q 274 51 390 -28 q 100 259 158 131 q 42 533 42 388 z "},"ċ":{"ha":867,"x_min":43,"x_max":832,"o":"m 429 861 q 418 856 425 856 q 407 861 413 856 l 342 926 q 336 938 336 935 q 342 949 336 940 l 407 1014 q 418 1019 413 1019 q 429 1014 425 1019 l 494 949 q 501 938 501 942 q 494 926 501 933 l 429 861 m 176 292 q 287 104 221 169 q 449 39 353 39 q 483 40 471 39 q 671 117 585 60 q 806 285 757 175 l 832 272 q 693 78 768 147 q 528 -12 618 10 q 432 -26 490 -26 q 220 28 308 -26 q 88 172 132 83 q 43 363 43 261 q 88 553 43 464 q 220 697 132 642 q 432 751 308 751 q 618 702 536 751 q 749 585 700 653 l 656 525 q 403 721 549 721 q 319 707 361 721 q 190 611 231 678 q 149 456 149 544 q 176 292 149 382 z "},"Č":{"ha":1099,"x_min":42,"x_max":1057,"o":"m 578 1253 l 800 1364 l 811 1346 l 725 1288 q 578 1172 629 1222 q 431 1288 526 1222 l 344 1346 l 356 1364 l 578 1253 m 42 533 q 99 799 42 679 q 258 996 156 919 q 494 1089 361 1072 q 575 1093 536 1093 q 787 1043 685 1093 q 1006 865 889 993 l 896 793 q 737 983 819 919 q 547 1047 654 1047 q 394 1019 474 1047 q 200 864 265 976 q 135 607 135 751 q 174 381 135 493 q 273 214 208 288 q 422 99 338 140 q 597 57 506 57 q 756 95 671 57 q 917 208 842 133 q 1038 388 993 283 l 1057 375 q 867 83 994 193 q 554 -28 739 -28 q 274 51 390 -28 q 100 259 158 131 q 42 533 42 388 z "},"č":{"ha":867,"x_min":43,"x_max":832,"o":"m 413 956 l 635 1067 l 646 1049 l 560 990 q 413 875 464 925 q 265 990 361 925 l 179 1049 l 190 1067 l 413 956 m 176 292 q 287 104 221 169 q 449 39 353 39 q 483 40 471 39 q 671 117 585 60 q 806 285 757 175 l 832 272 q 693 78 768 147 q 528 -12 618 10 q 432 -26 490 -26 q 220 28 308 -26 q 88 172 132 83 q 43 363 43 261 q 88 553 43 464 q 220 697 132 642 q 432 751 308 751 q 618 702 536 751 q 749 585 700 653 l 656 525 q 403 721 549 721 q 319 707 361 721 q 190 611 231 678 q 149 456 149 544 q 176 292 149 382 z "},"Ď":{"ha":1050,"x_min":83,"x_max":1008,"o":"m 478 1253 l 700 1364 l 711 1346 l 625 1288 q 478 1172 529 1222 q 331 1288 426 1222 l 244 1346 l 256 1364 l 478 1253 m 83 1067 l 471 1067 q 747 999 625 1067 q 939 810 869 932 q 1008 533 1008 689 q 939 260 1008 381 q 747 70 869 139 q 471 0 625 1 l 83 0 l 83 1067 m 419 29 q 667 97 557 29 q 838 281 776 165 q 899 531 899 396 q 837 769 899 653 q 665 960 775 886 q 419 1033 556 1033 l 193 1032 l 193 26 l 419 29 z "},"ď":{"ha":965,"x_min":49,"x_max":1025,"o":"m 660 938 q 799 826 765 888 q 839 701 833 764 l 839 0 l 728 0 l 728 106 q 573 19 658 50 q 403 -11 488 -11 q 226 28 306 -11 q 97 149 146 68 q 49 349 49 229 q 94 548 49 464 q 215 676 139 632 q 382 719 290 719 q 563 674 472 719 q 728 540 654 629 l 728 685 q 673 823 728 756 q 536 944 618 890 q 346 1046 451 1000 l 354 1065 l 660 938 m 164 363 q 200 176 164 253 q 296 60 236 99 q 426 21 356 21 q 586 72 508 21 q 717 217 664 122 q 728 275 728 242 l 728 474 q 697 540 728 508 q 590 615 667 571 q 419 667 500 667 q 288 628 346 667 q 197 519 229 589 q 164 363 164 450 m 878 828 l 1017 969 q 1017 988 1025 978 l 946 1057 q 929 1057 940 1068 l 860 988 q 860 969 851 978 l 911 917 l 857 850 l 878 828 z "},"Đ":{"ha":1107,"x_min":0,"x_max":1065,"o":"m 1065 533 q 996 260 1065 381 q 804 70 926 139 q 528 0 682 1 l 140 0 l 140 497 l 0 497 l 0 590 l 140 590 l 140 1067 l 528 1067 q 804 999 682 1067 q 996 810 926 932 q 1065 533 1065 689 m 476 29 q 724 97 614 29 q 894 281 833 165 q 956 531 956 396 q 894 769 956 653 q 722 960 832 886 q 476 1033 613 1033 l 250 1032 l 250 590 l 464 590 l 464 497 l 250 497 l 250 26 l 476 29 z "},"đ":{"ha":1018,"x_min":49,"x_max":1018,"o":"m 660 938 q 799 826 765 888 q 839 701 833 764 l 839 417 l 1018 417 l 1018 324 l 839 324 l 839 0 l 728 0 l 728 106 q 573 19 658 50 q 403 -11 488 -11 q 226 28 306 -11 q 97 149 146 68 q 49 349 49 229 q 94 548 49 464 q 215 676 139 632 q 382 719 290 719 q 563 674 472 719 q 728 540 654 629 l 728 685 q 673 823 728 756 q 536 944 618 890 q 346 1046 451 1000 l 354 1065 l 660 938 m 164 363 q 200 176 164 253 q 296 60 236 99 q 426 21 356 21 q 586 72 508 21 q 717 217 664 122 q 728 275 728 242 l 728 324 l 554 324 l 554 417 l 728 417 l 728 474 q 697 540 728 508 q 590 615 667 571 q 419 667 500 667 q 288 628 346 667 q 197 519 229 589 q 164 363 164 450 z "},"Ē":{"ha":892,"x_min":83,"x_max":836,"o":"m 193 38 q 650 75 419 39 q 836 110 731 86 l 836 0 l 83 0 l 83 1067 l 836 1067 l 836 957 q 650 992 731 981 q 193 1029 446 1024 l 193 542 q 254 608 214 583 q 353 633 294 633 q 426 624 381 633 q 529 593 472 613 q 565 582 535 592 q 619 572 596 572 q 710 611 661 572 l 725 599 q 638 526 686 556 q 536 497 589 497 q 481 507 508 497 l 453 515 q 351 544 386 536 q 288 553 315 553 q 257 549 272 553 q 214 519 232 542 q 193 469 196 496 l 193 38 m 268 1197 l 638 1197 l 638 1121 l 268 1121 l 268 1197 z "},"ē":{"ha":867,"x_min":43,"x_max":832,"o":"m 225 1014 l 594 1014 l 594 938 l 225 938 l 225 1014 m 664 514 q 556 665 621 607 q 406 722 492 722 q 319 707 368 722 q 190 611 231 678 q 149 456 149 544 q 176 290 149 381 l 664 514 m 185 265 q 292 91 224 157 q 456 25 360 25 q 488 26 476 25 q 670 108 585 44 q 806 283 756 172 l 832 271 q 693 77 768 146 q 528 -14 618 8 q 432 -28 490 -28 q 220 27 308 -28 q 88 171 132 82 q 43 361 43 260 q 88 551 43 463 q 220 695 132 640 q 432 750 308 750 q 667 683 574 750 q 799 504 760 615 l 185 265 z "},"Ĕ":{"ha":892,"x_min":83,"x_max":836,"o":"m 193 38 q 650 75 419 39 q 836 110 731 86 l 836 0 l 83 0 l 83 1067 l 836 1067 l 836 957 q 650 992 731 981 q 193 1029 446 1024 l 193 542 q 254 608 214 583 q 353 633 294 633 q 426 624 381 633 q 529 593 472 613 q 565 582 535 592 q 619 572 596 572 q 710 611 661 572 l 725 599 q 638 526 686 556 q 536 497 589 497 q 481 507 508 497 l 453 515 q 351 544 386 536 q 288 553 315 553 q 257 549 272 553 q 214 519 232 542 q 193 469 196 496 l 193 38 m 286 1235 q 301 1272 286 1258 q 342 1286 317 1286 q 378 1273 365 1286 q 406 1233 392 1260 q 431 1194 419 1207 q 465 1182 443 1182 q 501 1195 489 1182 q 526 1233 514 1208 q 553 1273 540 1260 q 590 1286 567 1286 q 631 1272 615 1286 q 646 1235 646 1258 q 586 1172 646 1188 q 465 1156 526 1156 q 346 1172 406 1156 q 286 1235 286 1188 z "},"ĕ":{"ha":867,"x_min":43,"x_max":832,"o":"m 411 910 q 447 923 435 910 q 472 961 460 936 q 499 1001 486 988 q 536 1014 513 1014 q 576 1000 561 1014 q 592 963 592 986 q 532 899 592 915 q 411 883 472 883 q 292 899 351 883 q 232 963 232 915 q 247 1000 232 986 q 288 1014 263 1014 q 324 1001 311 1014 q 351 961 338 988 q 377 922 365 935 q 411 910 389 910 m 664 514 q 556 665 621 607 q 406 722 492 722 q 319 707 368 722 q 190 611 231 678 q 149 456 149 544 q 176 290 149 381 l 664 514 m 185 265 q 292 91 224 157 q 456 25 360 25 q 488 26 476 25 q 670 108 585 44 q 806 283 756 172 l 832 271 q 693 77 768 146 q 528 -14 618 8 q 432 -28 490 -28 q 220 27 308 -28 q 88 171 132 82 q 43 361 43 260 q 88 551 43 463 q 220 695 132 640 q 432 750 308 750 q 667 683 574 750 q 799 504 760 615 l 185 265 z "},"Ė":{"ha":892,"x_min":83,"x_max":836,"o":"m 463 1179 q 451 1174 458 1174 q 440 1179 446 1174 l 375 1244 q 369 1256 369 1253 q 375 1267 369 1258 l 440 1332 q 451 1338 446 1338 q 463 1332 458 1338 l 528 1267 q 535 1256 535 1260 q 528 1244 535 1251 l 463 1179 m 83 1067 l 836 1067 l 836 957 q 650 992 731 981 q 193 1029 446 1024 l 193 542 q 254 608 214 583 q 353 633 294 633 q 426 624 381 633 q 529 593 472 613 q 565 582 535 592 q 619 572 596 572 q 710 611 661 572 l 725 599 q 638 526 686 556 q 536 497 589 497 q 481 507 508 497 l 453 515 q 351 544 386 536 q 288 553 315 553 q 257 549 272 553 q 214 519 232 542 q 193 469 196 496 l 193 38 q 650 75 419 39 q 836 110 731 86 l 836 0 l 83 0 l 83 1067 z "},"ė":{"ha":867,"x_min":43,"x_max":832,"o":"m 429 861 q 418 856 425 856 q 407 861 413 856 l 342 926 q 336 938 336 935 q 342 949 336 940 l 407 1014 q 418 1019 413 1019 q 429 1014 425 1019 l 494 949 q 501 938 501 942 q 494 926 501 933 l 429 861 m 664 514 q 556 665 621 607 q 406 722 492 722 q 319 707 368 722 q 190 611 231 678 q 149 456 149 544 q 176 290 149 381 l 664 514 m 185 265 q 292 91 224 157 q 456 25 360 25 q 488 26 476 25 q 670 108 585 44 q 806 283 756 172 l 832 271 q 693 77 768 146 q 528 -14 618 8 q 432 -28 490 -28 q 220 27 308 -28 q 88 171 132 82 q 43 361 43 260 q 88 551 43 463 q 220 695 132 640 q 432 750 308 750 q 667 683 574 750 q 799 504 760 615 l 185 265 z "},"Ę":{"ha":892,"x_min":83,"x_max":836,"o":"m 735 0 q 681 -73 703 -28 q 658 -157 658 -118 q 660 -176 658 -169 q 676 -212 664 -200 q 715 -224 689 -224 q 765 -215 735 -224 l 775 -237 q 669 -274 719 -274 q 602 -249 628 -274 q 576 -185 576 -225 q 593 -118 576 -154 q 694 0 622 -61 l 83 0 l 83 1067 l 836 1067 l 836 957 q 650 992 731 981 q 193 1029 446 1024 l 193 542 q 254 608 214 583 q 353 633 294 633 q 426 624 381 633 q 529 593 472 613 q 565 582 535 592 q 619 572 596 572 q 710 611 661 572 l 725 599 q 638 526 686 556 q 536 497 589 497 q 481 507 508 497 l 453 515 q 351 544 386 536 q 288 553 315 553 q 257 549 272 553 q 214 519 232 542 q 193 469 196 496 l 193 38 q 650 75 419 39 q 836 110 731 86 l 836 0 l 735 0 z "},"ę":{"ha":867,"x_min":43,"x_max":832,"o":"m 485 0 q 458 -26 458 -26 q 528 -14 499 -25 q 693 77 618 8 q 832 271 768 146 l 806 283 q 670 108 756 172 q 488 26 585 44 q 456 25 476 25 q 292 91 360 25 q 185 265 224 157 l 799 504 q 667 683 760 615 q 432 750 574 750 q 220 695 308 750 q 88 551 132 640 q 43 361 43 463 q 85 175 43 263 q 212 32 128 88 q 414 -28 296 -24 l 432 -28 q 458 -26 450 -28 q 422 -92 436 -57 q 408 -157 408 -126 q 410 -176 408 -171 q 426 -212 414 -200 q 465 -224 439 -224 q 515 -215 485 -224 l 525 -237 q 419 -274 469 -274 q 352 -249 378 -274 q 326 -185 326 -225 q 343 -118 326 -154 q 414 -28 367 -72 q 444 0 428 -14 l 485 0 m 176 290 q 149 456 149 381 q 190 611 149 544 q 319 707 231 678 q 406 722 368 722 q 556 665 492 722 q 664 514 621 607 l 176 290 z "},"Ě":{"ha":892,"x_min":83,"x_max":836,"o":"m 463 1253 l 685 1364 l 696 1346 l 610 1288 q 463 1172 514 1222 q 315 1288 411 1222 l 229 1346 l 240 1364 l 463 1253 m 83 1067 l 836 1067 l 836 957 q 650 992 731 981 q 193 1029 446 1024 l 193 542 q 254 608 214 583 q 353 633 294 633 q 426 624 381 633 q 529 593 472 613 q 565 582 535 592 q 619 572 596 572 q 710 611 661 572 l 725 599 q 638 526 686 556 q 536 497 589 497 q 481 507 508 497 l 453 515 q 351 544 386 536 q 288 553 315 553 q 257 549 272 553 q 214 519 232 542 q 193 469 196 496 l 193 38 q 650 75 419 39 q 836 110 731 86 l 836 0 l 83 0 l 83 1067 z "},"ě":{"ha":867,"x_min":43,"x_max":832,"o":"m 418 956 l 640 1067 l 651 1049 l 565 990 q 418 875 469 925 q 271 990 367 925 l 185 1049 l 196 1067 l 418 956 m 664 514 q 556 665 621 607 q 406 722 492 722 q 319 707 368 722 q 190 611 231 678 q 149 456 149 544 q 176 290 149 381 l 664 514 m 185 265 q 292 91 224 157 q 456 25 360 25 q 488 26 476 25 q 670 108 585 44 q 806 283 756 172 l 832 271 q 693 77 768 146 q 528 -14 618 8 q 432 -28 490 -28 q 220 27 308 -28 q 88 171 132 82 q 43 361 43 260 q 88 551 43 463 q 220 695 132 640 q 432 750 308 750 q 667 683 574 750 q 799 504 760 615 l 185 265 z "},"Ĝ":{"ha":1107,"x_min":49,"x_max":1057,"o":"m 763 567 q 846 590 800 590 q 948 558 899 590 q 1027 474 997 526 q 1057 365 1057 422 q 1035 278 1057 321 l 1033 275 q 834 59 958 144 q 561 -26 710 -26 q 281 53 397 -26 q 107 260 165 132 q 49 535 49 389 q 106 802 49 681 q 265 1000 163 924 q 501 1093 368 1076 q 582 1097 543 1097 q 794 1047 692 1097 q 1013 869 896 997 l 903 797 q 744 988 826 924 q 554 1051 661 1051 q 401 1024 481 1051 q 208 867 272 981 q 143 607 143 754 q 182 381 143 493 q 357 147 236 235 q 625 58 478 58 q 787 94 718 58 q 911 188 856 129 q 957 258 942 219 q 972 339 972 297 q 960 410 972 376 q 924 467 947 443 q 877 501 900 490 q 824 513 854 513 q 647 454 764 513 l 501 381 l 493 400 l 763 567 m 322 1160 q 383 1200 329 1164 l 408 1217 q 556 1333 500 1279 q 703 1217 611 1279 l 728 1200 q 789 1160 782 1164 l 778 1142 l 556 1253 l 333 1142 l 322 1160 z "},"ĝ":{"ha":968,"x_min":29,"x_max":939,"o":"m 661 115 q 785 171 718 171 q 893 124 847 171 q 939 13 939 76 q 888 -112 939 -51 q 728 -215 836 -172 l 240 -444 l 232 -425 q 442 -311 308 -386 q 765 -97 669 -179 q 815 -1 815 -53 q 788 65 815 39 q 721 85 760 90 q 645 51 682 78 q 550 -29 608 24 q 408 -141 469 -103 q 269 -179 346 -179 q 145 -151 200 -179 q 60 -77 90 -124 q 29 25 29 -31 q 72 149 29 89 q 200 257 114 210 q 135 349 157 297 q 113 454 113 400 q 156 599 113 531 q 283 708 199 667 q 489 750 368 750 q 597 738 538 750 q 629 733 617 733 q 681 746 649 733 q 753 775 728 761 l 781 788 l 792 772 l 697 706 l 706 701 q 825 595 783 661 q 867 456 867 529 q 823 311 867 379 q 694 201 779 243 q 489 160 608 160 q 258 214 351 160 q 229 222 244 222 q 197 213 213 222 q 171 188 181 203 q 138 85 138 136 q 162 1 138 39 q 225 -58 186 -36 q 306 -79 264 -79 q 469 -34 385 -79 q 661 115 554 11 m 222 457 q 286 268 222 343 q 489 193 350 193 q 692 267 629 193 q 754 457 754 342 q 691 642 754 569 q 489 715 628 715 q 285 642 349 715 q 222 457 222 569 m 254 893 q 315 933 261 897 l 340 950 q 488 1067 432 1013 q 635 950 543 1013 l 660 933 q 721 893 714 897 l 710 875 l 488 986 l 265 875 l 254 893 z "},"Ğ":{"ha":1107,"x_min":49,"x_max":1057,"o":"m 561 1182 q 597 1195 585 1182 q 622 1233 610 1208 q 649 1273 636 1260 q 686 1286 663 1286 q 726 1272 711 1286 q 742 1235 742 1258 q 682 1172 742 1188 q 561 1156 622 1156 q 442 1172 501 1156 q 382 1235 382 1188 q 397 1272 382 1258 q 438 1286 413 1286 q 474 1273 461 1286 q 501 1233 488 1260 q 527 1194 515 1207 q 561 1182 539 1182 m 49 535 q 106 802 49 681 q 265 1000 163 924 q 501 1093 368 1076 q 582 1097 543 1097 q 794 1047 692 1097 q 1013 869 896 997 l 903 797 q 744 988 826 924 q 554 1051 661 1051 q 401 1024 481 1051 q 208 867 272 981 q 143 607 143 754 q 182 381 143 493 q 357 147 236 235 q 625 58 478 58 q 787 94 718 58 q 911 188 856 129 q 957 258 942 219 q 972 339 972 297 q 960 410 972 376 q 924 467 947 443 q 877 501 900 490 q 824 513 854 513 q 647 454 764 513 l 501 381 l 493 400 l 763 567 q 846 590 800 590 q 948 558 899 590 q 1027 474 997 526 q 1057 365 1057 422 q 1035 278 1057 321 l 1033 275 q 834 59 958 144 q 561 -26 710 -26 q 281 53 397 -26 q 107 260 165 132 q 49 535 49 389 z "},"ğ":{"ha":968,"x_min":29,"x_max":939,"o":"m 496 910 q 532 923 519 910 q 557 961 544 936 q 584 1001 571 988 q 621 1014 597 1014 q 661 1000 646 1014 q 676 963 676 986 q 617 899 676 915 q 496 883 557 883 q 376 899 436 883 q 317 963 317 915 q 332 1000 317 986 q 372 1014 347 1014 q 409 1001 396 1014 q 436 961 422 988 q 462 922 450 935 q 496 910 474 910 m 171 188 q 138 85 138 136 q 162 1 138 39 q 225 -58 186 -36 q 306 -79 264 -79 q 469 -34 385 -79 q 661 115 554 11 q 785 171 718 171 q 893 124 847 171 q 939 13 939 76 q 888 -112 939 -51 q 728 -215 836 -172 l 240 -444 l 232 -425 q 442 -311 308 -386 q 765 -97 669 -179 q 815 -1 815 -53 q 788 65 815 39 q 721 85 760 90 q 645 51 682 78 q 550 -29 608 24 q 408 -141 469 -103 q 269 -179 346 -179 q 145 -151 200 -179 q 60 -77 90 -124 q 29 25 29 -31 q 72 149 29 89 q 200 257 114 210 q 135 349 157 297 q 113 454 113 400 q 156 599 113 531 q 283 708 199 667 q 489 750 368 750 q 597 738 538 750 q 629 733 617 733 q 681 746 649 733 q 753 775 728 761 l 781 788 l 792 772 l 697 706 l 706 701 q 825 595 783 661 q 867 456 867 529 q 823 311 867 379 q 694 201 779 243 q 489 160 608 160 q 258 214 351 160 q 229 222 244 222 q 197 213 213 222 q 171 188 181 203 m 222 457 q 286 268 222 343 q 489 193 350 193 q 692 267 629 193 q 754 457 754 342 q 691 642 754 569 q 489 715 628 715 q 285 642 349 715 q 222 457 222 569 z "},"Ġ":{"ha":1107,"x_min":49,"x_max":1057,"o":"m 565 1179 q 554 1174 561 1174 q 543 1179 549 1174 l 478 1244 q 472 1256 472 1253 q 478 1267 472 1258 l 543 1332 q 554 1338 549 1338 q 565 1332 561 1338 l 631 1267 q 638 1256 638 1260 q 631 1244 638 1251 l 565 1179 m 49 535 q 106 802 49 681 q 265 1000 163 924 q 501 1093 368 1076 q 582 1097 543 1097 q 794 1047 692 1097 q 1013 869 896 997 l 903 797 q 744 988 826 924 q 554 1051 661 1051 q 401 1024 481 1051 q 208 867 272 981 q 143 607 143 754 q 182 381 143 493 q 357 147 236 235 q 625 58 478 58 q 787 94 718 58 q 911 188 856 129 q 957 258 942 219 q 972 339 972 297 q 960 410 972 376 q 924 467 947 443 q 877 501 900 490 q 824 513 854 513 q 647 454 764 513 l 501 381 l 493 400 l 763 567 q 846 590 800 590 q 948 558 899 590 q 1027 474 997 526 q 1057 365 1057 422 q 1035 278 1057 321 l 1033 275 q 834 59 958 144 q 561 -26 710 -26 q 281 53 397 -26 q 107 260 165 132 q 49 535 49 389 z "},"ġ":{"ha":968,"x_min":29,"x_max":939,"o":"m 497 861 q 486 856 493 856 q 475 861 481 856 l 410 926 q 404 938 404 935 q 410 949 404 940 l 475 1014 q 486 1019 481 1019 q 497 1014 493 1019 l 563 949 q 569 938 569 942 q 563 926 569 933 l 497 861 m 171 188 q 138 85 138 136 q 162 1 138 39 q 225 -58 186 -36 q 306 -79 264 -79 q 469 -34 385 -79 q 661 115 554 11 q 785 171 718 171 q 893 124 847 171 q 939 13 939 76 q 888 -112 939 -51 q 728 -215 836 -172 l 240 -444 l 232 -425 q 442 -311 308 -386 q 765 -97 669 -179 q 815 -1 815 -53 q 788 65 815 39 q 721 85 760 90 q 645 51 682 78 q 550 -29 608 24 q 408 -141 469 -103 q 269 -179 346 -179 q 145 -151 200 -179 q 60 -77 90 -124 q 29 25 29 -31 q 72 149 29 89 q 200 257 114 210 q 135 349 157 297 q 113 454 113 400 q 156 599 113 531 q 283 708 199 667 q 489 750 368 750 q 597 738 538 750 q 629 733 617 733 q 681 746 649 733 q 753 775 728 761 l 781 788 l 792 772 l 697 706 l 706 701 q 825 595 783 661 q 867 456 867 529 q 823 311 867 379 q 694 201 779 243 q 489 160 608 160 q 258 214 351 160 q 229 222 244 222 q 197 213 213 222 q 171 188 181 203 m 222 457 q 286 268 222 343 q 489 193 350 193 q 692 267 629 193 q 754 457 754 342 q 691 642 754 569 q 489 715 628 715 q 285 642 349 715 q 222 457 222 569 z "},"Ģ":{"ha":1107,"x_min":49,"x_max":1057,"o":"m 481 -151 q 481 -133 472 -143 l 550 -64 q 567 -64 561 -54 l 638 -133 q 638 -151 646 -143 l 499 -293 l 478 -271 l 532 -204 l 481 -151 m 49 535 q 106 802 49 681 q 265 1000 163 924 q 501 1093 368 1076 q 582 1097 543 1097 q 794 1047 692 1097 q 1013 869 896 997 l 903 797 q 744 988 826 924 q 554 1051 661 1051 q 401 1024 481 1051 q 208 867 272 981 q 143 607 143 754 q 182 381 143 493 q 357 147 236 235 q 625 58 478 58 q 787 94 718 58 q 911 188 856 129 q 957 258 942 219 q 972 339 972 297 q 960 410 972 376 q 924 467 947 443 q 877 501 900 490 q 824 513 854 513 q 647 454 764 513 l 501 381 l 493 400 l 763 567 q 846 590 800 590 q 948 558 899 590 q 1027 474 997 526 q 1057 365 1057 422 q 1035 278 1057 321 l 1033 275 q 834 59 958 144 q 561 -26 710 -26 q 281 53 397 -26 q 107 260 165 132 q 49 535 49 389 z "},"ģ":{"ha":968,"x_min":29,"x_max":939,"o":"m 561 961 q 561 943 569 953 l 492 874 q 475 874 482 864 l 404 943 q 404 961 396 953 l 543 1103 l 564 1081 l 510 1014 l 561 961 m 171 188 q 138 85 138 136 q 162 1 138 39 q 225 -58 186 -36 q 306 -79 264 -79 q 469 -34 385 -79 q 661 115 554 11 q 785 171 718 171 q 893 124 847 171 q 939 13 939 76 q 888 -112 939 -51 q 728 -215 836 -172 l 240 -444 l 232 -425 q 442 -311 308 -386 q 765 -97 669 -179 q 815 -1 815 -53 q 788 65 815 39 q 721 85 760 90 q 645 51 682 78 q 550 -29 608 24 q 408 -141 469 -103 q 269 -179 346 -179 q 145 -151 200 -179 q 60 -77 90 -124 q 29 25 29 -31 q 72 149 29 89 q 200 257 114 210 q 135 349 157 297 q 113 454 113 400 q 156 599 113 531 q 283 708 199 667 q 489 750 368 750 q 597 738 538 750 q 629 733 617 733 q 681 746 649 733 q 753 775 728 761 l 781 788 l 792 772 l 697 706 l 706 701 q 825 595 783 661 q 867 456 867 529 q 823 311 867 379 q 694 201 779 243 q 489 160 608 160 q 258 214 351 160 q 229 222 244 222 q 197 213 213 222 q 171 188 181 203 m 222 457 q 286 268 222 343 q 489 193 350 193 q 692 267 629 193 q 754 457 754 342 q 691 642 754 569 q 489 715 628 715 q 285 642 349 715 q 222 457 222 569 z "},"Ĥ":{"ha":947,"x_min":83,"x_max":864,"o":"m 240 1160 q 301 1200 247 1164 l 326 1217 q 474 1333 418 1279 q 621 1217 529 1279 l 646 1200 q 707 1160 700 1164 l 696 1142 l 474 1253 l 251 1142 l 240 1160 m 83 1067 l 193 1067 l 193 532 q 201 512 193 521 q 219 503 208 503 q 295 522 247 503 q 517 617 343 540 q 543 628 531 622 q 565 638 556 633 q 635 653 600 653 q 701 638 669 653 q 754 594 733 622 l 754 1067 l 864 1067 l 864 0 l 754 0 l 754 535 q 721 574 754 567 l 704 575 q 635 562 674 575 q 497 506 597 549 l 358 446 q 283 428 318 428 q 193 476 228 428 l 193 0 l 83 0 l 83 1067 z "},"ĥ":{"ha":793,"x_min":69,"x_max":738,"o":"m 183 1160 q 244 1200 190 1164 l 269 1217 q 417 1333 361 1279 q 564 1217 472 1279 l 589 1200 q 650 1160 643 1164 l 639 1142 l 417 1253 l 194 1142 l 183 1160 m 69 701 q 110 826 75 764 q 249 938 144 888 l 554 1065 l 563 1046 q 371 944 453 999 q 235 824 289 890 q 181 685 181 757 l 181 578 q 453 703 264 619 q 554 726 503 726 q 679 683 626 726 q 736 563 732 639 q 738 514 738 546 l 736 418 l 736 0 l 625 0 l 625 519 q 591 627 625 588 q 497 667 557 667 q 449 661 471 667 q 214 571 365 640 q 181 521 183 557 l 181 0 l 69 0 l 69 701 z "},"Ħ":{"ha":946,"x_min":14,"x_max":932,"o":"m 14 833 l 82 833 l 82 1067 l 192 1067 l 192 833 l 753 833 l 753 1067 l 863 1067 l 863 833 l 932 833 l 932 765 l 863 765 l 863 0 l 753 0 l 753 535 q 719 574 753 567 l 703 575 q 634 562 672 575 q 496 506 596 549 l 357 446 q 282 428 317 428 q 192 476 226 428 l 192 0 l 82 0 l 82 765 l 14 765 l 14 833 m 192 532 q 199 512 192 521 q 218 503 207 503 q 294 522 246 503 q 515 617 342 540 q 542 628 529 622 q 564 638 554 633 q 633 653 599 653 q 700 638 668 653 q 753 594 732 622 l 753 765 l 192 765 l 192 532 z "},"ħ":{"ha":793,"x_min":14,"x_max":738,"o":"m 14 888 l 168 888 q 249 938 203 915 l 554 1065 l 563 1046 q 371 944 453 999 q 296 888 333 921 l 551 888 l 551 819 l 232 819 q 181 685 181 753 l 181 578 q 453 703 264 619 q 554 726 503 726 q 679 683 626 726 q 736 563 732 639 q 738 514 738 546 l 736 418 l 736 0 l 625 0 l 625 519 q 591 627 625 588 q 497 667 557 667 q 449 661 471 667 q 214 571 365 640 q 181 521 183 557 l 181 0 l 69 0 l 69 701 q 80 761 72 733 q 107 819 88 789 l 14 819 l 14 888 z "},"Ĩ":{"ha":404,"x_min":-97,"x_max":501,"o":"m 232 1228 q 142 1253 181 1244 q 65 1263 103 1263 q -81 1208 -17 1263 l -97 1219 q -4 1303 -51 1275 q 100 1332 43 1332 q 183 1318 140 1332 q 302 1285 265 1294 q 374 1276 339 1276 q 485 1321 440 1276 l 501 1308 q 326 1208 421 1208 q 275 1215 297 1208 l 232 1228 m 149 1067 l 258 1067 l 258 0 l 149 0 l 149 1067 z "},"ĩ":{"ha":382,"x_min":-56,"x_max":438,"o":"m 131 0 l 131 722 l 242 722 l 242 0 l 131 0 m -56 871 q 20 954 -19 926 q 107 982 60 982 q 175 969 138 982 q 267 938 232 947 q 331 928 301 928 q 424 972 385 928 l 438 960 q 371 886 406 914 q 294 858 336 858 q 251 867 275 858 l 217 879 q 140 905 171 896 q 79 914 110 914 q -42 860 11 914 l -56 871 z "},"Ī":{"ha":342,"x_min":-14,"x_max":356,"o":"m -14 1199 l 356 1199 l 356 1122 l -14 1122 l -14 1199 m 108 1067 l 218 1067 l 218 0 l 108 0 l 108 1067 z "},"ī":{"ha":342,"x_min":-14,"x_max":356,"o":"m -14 1025 l 356 1025 l 356 949 l -14 949 l -14 1025 m 115 722 l 226 722 l 226 0 l 115 0 l 115 722 z "},"Į":{"ha":365,"x_min":83,"x_max":282,"o":"m 242 0 q 188 -73 210 -28 q 165 -157 165 -118 q 167 -176 165 -169 q 183 -212 171 -200 q 222 -224 196 -224 q 272 -215 242 -224 l 282 -237 q 176 -274 226 -274 q 109 -249 135 -274 q 83 -185 83 -225 q 100 -118 83 -154 q 201 0 129 -61 l 133 0 l 133 1067 l 243 1067 l 243 0 l 242 0 z "},"į":{"ha":346,"x_min":69,"x_max":276,"o":"m 228 0 q 174 -73 196 -28 q 151 -157 151 -118 q 153 -176 151 -169 q 169 -212 157 -200 q 208 -224 182 -224 q 258 -215 228 -224 l 268 -237 q 163 -274 213 -274 q 95 -249 121 -274 q 69 -185 69 -225 q 86 -118 69 -154 q 188 0 115 -61 l 117 0 l 117 722 l 228 722 l 228 0 m 78 996 q 71 1007 71 1000 q 78 1018 71 1014 l 168 1065 q 179 1065 174 1067 l 269 1018 q 276 1007 276 1015 q 269 996 276 1000 l 179 947 q 168 947 174 946 l 78 996 z "},"İ":{"ha":357,"x_min":96,"x_max":261,"o":"m 122 0 l 122 1067 l 232 1067 l 232 0 l 122 0 m 101 1244 q 96 1256 96 1253 q 101 1267 96 1258 l 167 1332 q 178 1338 172 1338 q 189 1332 185 1338 l 254 1267 q 261 1256 261 1260 q 254 1244 261 1251 l 189 1179 q 178 1174 185 1174 q 167 1179 172 1174 l 101 1244 z "},"ı":{"ha":361,"x_min":125,"x_max":236,"o":"m 125 0 l 125 721 l 236 721 l 236 0 l 125 0 z "},"Ĳ":{"ha":922,"x_min":132,"x_max":839,"o":"m 132 0 l 132 1067 l 242 1067 l 242 0 l 132 0 m 294 728 q 486 836 399 781 q 638 950 572 890 q 728 1067 704 1010 l 839 1067 l 839 -58 q 799 -183 833 -121 q 660 -294 765 -244 l 304 -444 l 296 -425 q 511 -315 419 -372 q 666 -187 604 -257 q 728 -42 728 -117 l 728 906 q 549 813 633 846 l 303 708 l 294 728 z "},"ĳ":{"ha":664,"x_min":11,"x_max":601,"o":"m 108 0 l 108 722 l 219 722 l 219 0 l 108 0 m 11 -425 q 226 -315 135 -372 q 381 -187 319 -257 q 443 -42 443 -117 l 443 722 l 554 722 l 554 -58 q 515 -183 549 -121 q 375 -294 481 -244 l 19 -444 l 11 -425 m 69 996 q 63 1007 63 1000 q 69 1018 63 1014 l 160 1065 q 171 1065 165 1067 l 261 1018 q 268 1007 268 1015 q 261 996 268 1000 l 171 947 q 160 947 165 946 l 69 996 m 403 994 q 396 1006 396 999 q 403 1017 396 1013 l 493 1064 q 504 1064 499 1065 l 594 1017 q 601 1006 601 1014 q 594 994 601 999 l 504 946 q 493 946 499 944 l 403 994 z "},"Ĵ":{"ha":628,"x_min":0,"x_max":721,"o":"m 254 1160 q 315 1200 261 1164 l 340 1217 q 488 1333 432 1279 q 635 1217 543 1279 l 660 1200 q 721 1160 714 1164 l 710 1142 l 488 1253 l 265 1142 l 254 1160 m 0 728 q 192 836 104 781 q 344 950 278 890 q 433 1067 410 1010 l 544 1067 l 544 -58 q 505 -183 539 -121 q 365 -294 471 -244 l 10 -444 l 1 -425 q 217 -315 125 -372 q 372 -187 310 -257 q 433 -42 433 -117 l 433 906 q 254 813 339 846 l 8 708 l 0 728 z "},"ĵ":{"ha":339,"x_min":-319,"x_max":400,"o":"m 224 722 l 224 -58 q 184 -183 218 -121 q 44 -294 150 -244 l -311 -444 l -319 -425 q -104 -315 -196 -372 q 51 -187 -11 -257 q 113 -42 113 -117 l 113 722 l 224 722 m -67 893 q -6 933 -60 897 l 19 950 q 167 1067 111 1013 q 314 950 222 1013 l 339 933 q 400 893 393 897 l 389 875 l 167 986 l -56 875 l -67 893 z "},"Ķ":{"ha":1000,"x_min":83,"x_max":1125,"o":"m 678 426 q 768 263 714 378 q 860 91 819 160 q 966 -50 900 22 q 1125 -178 1032 -122 l 1108 -199 q 829 -14 933 -119 q 636 272 725 92 q 552 403 603 343 q 444 493 501 464 q 350 517 394 517 q 263 485 299 517 l 193 422 l 193 0 l 83 0 l 83 1067 l 193 1067 l 193 482 q 525 817 336 625 l 599 892 q 769 1067 693 986 l 896 1067 l 340 556 q 418 567 375 567 q 559 529 492 567 q 678 426 626 492 m 467 -204 l 415 -151 q 415 -133 407 -143 l 485 -64 q 501 -64 496 -54 l 572 -133 q 572 -151 581 -143 l 433 -293 l 413 -271 l 467 -204 z "},"ķ":{"ha":749,"x_min":75,"x_max":735,"o":"m 599 0 l 283 392 l 186 344 l 186 0 l 75 0 l 75 701 q 115 826 81 764 q 254 938 150 888 l 560 1065 l 568 1046 q 376 944 458 999 q 240 824 294 890 q 186 685 186 757 l 186 386 l 460 514 q 499 540 483 524 q 515 575 515 556 q 503 608 515 592 l 439 679 q 408 706 421 697 q 372 722 394 715 l 469 722 q 532 708 501 722 q 583 669 563 694 l 622 622 q 635 589 635 608 q 626 560 635 574 q 604 540 618 547 l 382 433 l 735 0 l 599 0 m 350 -204 l 299 -151 q 299 -133 290 -143 l 368 -64 q 385 -64 379 -54 l 456 -133 q 456 -151 464 -143 l 317 -293 l 296 -271 l 350 -204 z "},"ĸ":{"ha":749,"x_min":0,"x_max":0,"o":""},"Ĺ":{"ha":885,"x_min":90,"x_max":829,"o":"m 133 1165 q 189 1213 157 1188 q 322 1333 256 1268 l 394 1269 l 153 1144 l 133 1165 m 90 1067 l 200 1067 l 200 56 q 650 85 401 57 q 829 110 749 96 l 829 0 l 90 0 l 90 1067 z "},"ĺ":{"ha":335,"x_min":76,"x_max":467,"o":"m 133 1165 q 189 1213 157 1188 q 322 1333 256 1268 l 394 1269 l 153 1144 l 133 1165 m 76 724 q 108 851 76 779 q 253 976 140 922 l 458 1064 l 467 1044 q 417 1022 464 1043 q 296 953 369 1000 q 225 876 260 931 q 188 733 190 822 l 188 0 l 76 0 l 76 724 z "},"Ļ":{"ha":885,"x_min":90,"x_max":829,"o":"m 369 -151 q 369 -133 361 -143 l 439 -64 q 456 -64 450 -54 l 526 -133 q 526 -151 535 -143 l 388 -293 l 367 -271 l 421 -204 l 369 -151 m 90 1067 l 200 1067 l 200 56 q 650 85 401 57 q 829 110 749 96 l 829 0 l 90 0 l 90 1067 z "},"ļ":{"ha":335,"x_min":46,"x_max":467,"o":"m 54 -151 q 54 -133 46 -143 l 124 -64 q 140 -64 135 -54 l 211 -133 q 211 -151 219 -143 l 72 -293 l 51 -271 l 106 -204 l 54 -151 m 76 724 q 108 851 76 779 q 253 976 140 922 l 458 1064 l 467 1044 q 417 1022 464 1043 q 296 953 369 1000 q 225 876 260 931 q 188 733 190 822 l 188 0 l 76 0 l 76 724 z "},"Ľ":{"ha":885,"x_min":90,"x_max":829,"o":"m 351 1253 l 574 1364 l 585 1346 l 499 1288 q 351 1172 403 1222 q 204 1288 300 1222 l 118 1346 l 129 1364 l 351 1253 m 90 1067 l 200 1067 l 200 56 q 650 85 401 57 q 829 110 749 96 l 829 0 l 90 0 l 90 1067 z "},"ľ":{"ha":335,"x_min":-31,"x_max":467,"o":"m 203 1253 l 425 1364 l 436 1346 l 350 1288 q 203 1172 254 1222 q 56 1288 151 1222 l -31 1346 l -19 1364 l 203 1253 m 76 724 q 108 851 76 779 q 253 976 140 922 l 458 1064 l 467 1044 q 417 1022 464 1043 q 296 953 369 1000 q 225 876 260 931 q 188 733 190 822 l 188 0 l 76 0 l 76 724 z "},"Ŀ":{"ha":885,"x_min":90,"x_max":829,"o":"m 200 56 q 650 85 401 57 q 829 110 749 96 l 829 0 l 90 0 l 90 1067 l 200 1067 l 200 56 m 425 732 q 425 750 417 740 l 494 819 q 513 819 504 829 l 583 750 q 583 732 592 740 l 513 661 q 494 661 504 653 l 425 732 z "},"ŀ":{"ha":335,"x_min":76,"x_max":467,"o":"m 76 724 q 108 851 76 779 q 253 976 140 922 l 458 1064 l 467 1044 q 417 1022 464 1043 q 296 953 369 1000 q 225 876 260 931 q 188 733 190 822 l 188 0 l 76 0 l 76 724 m 235 732 q 235 750 226 740 l 304 819 q 322 819 314 829 l 393 750 q 393 732 401 740 l 322 661 q 304 661 314 653 l 235 732 z "},"Ł":{"ha":1058,"x_min":-14,"x_max":1003,"o":"m 643 721 l 653 701 l 374 565 l 374 56 q 824 85 575 57 q 1003 110 922 96 l 1003 0 l 264 0 l 264 513 l 164 464 q 108 403 108 435 q 121 369 108 389 l 182 306 q 213 278 200 288 q 249 263 226 269 l 151 263 q 89 276 119 263 q 38 315 58 290 l -1 363 q -14 396 -14 378 q -6 424 -14 411 q 17 444 3 438 l 264 553 l 264 1067 l 374 1067 l 374 601 l 643 721 z "},"ł":{"ha":597,"x_min":-14,"x_max":653,"o":"m 374 567 l 374 0 l 263 0 l 263 513 l 164 464 q 108 403 108 435 q 121 369 108 389 l 182 306 q 213 278 200 288 q 249 263 226 269 l 151 263 q 89 276 119 263 q 38 315 58 290 l -1 363 q -14 396 -14 378 q -6 424 -14 411 q 17 444 3 438 l 263 554 l 263 724 q 294 851 263 779 q 439 976 326 922 l 644 1064 l 653 1044 q 603 1022 650 1043 q 482 953 556 1000 q 411 876 446 931 q 374 733 376 822 l 374 603 l 643 721 l 653 701 l 374 567 z "},"Ń":{"ha":1064,"x_min":83,"x_max":981,"o":"m 486 1165 q 542 1213 510 1188 q 675 1333 608 1268 l 747 1269 l 506 1144 l 486 1165 m 83 1035 l 176 1079 q 239 1094 210 1094 q 282 1086 261 1094 q 328 1058 303 1078 q 443 923 392 1010 q 531 740 494 836 q 617 494 568 643 q 697 265 664 350 q 769 126 731 181 q 826 73 783 106 q 892 40 868 40 q 919 82 919 40 q 885 836 919 503 q 851 1067 871 974 l 981 1067 l 981 25 l 896 -14 q 832 -29 858 -29 q 753 -4 790 -29 q 675 75 717 21 q 589 234 628 136 q 501 485 550 332 q 395 776 439 671 q 293 946 351 882 q 232 996 269 972 q 171 1019 194 1019 q 143 983 143 1019 q 178 219 143 521 q 213 0 192 92 l 83 0 l 83 1035 z "},"ń":{"ha":799,"x_min":69,"x_max":736,"o":"m 625 0 l 625 519 q 504 657 625 657 q 377 632 443 657 q 214 563 311 607 q 181 510 181 547 l 181 0 l 69 0 l 69 722 l 181 722 l 181 578 q 453 703 264 619 q 554 726 503 726 q 679 683 626 726 q 736 563 732 639 l 736 0 l 625 0 m 324 899 q 379 946 347 921 q 513 1067 446 1001 l 585 1003 l 343 878 l 324 899 z "},"Ņ":{"ha":1064,"x_min":83,"x_max":981,"o":"m 442 -151 q 442 -133 433 -143 l 511 -64 q 528 -64 522 -54 l 599 -133 q 599 -151 607 -143 l 460 -293 l 439 -271 l 493 -204 l 442 -151 m 83 1035 l 176 1079 q 239 1094 210 1094 q 282 1086 261 1094 q 328 1058 303 1078 q 443 923 392 1010 q 531 740 494 836 q 617 494 568 643 q 697 265 664 350 q 769 126 731 181 q 826 73 783 106 q 892 40 868 40 q 919 82 919 40 q 885 836 919 503 q 851 1067 871 974 l 981 1067 l 981 25 l 896 -14 q 832 -29 858 -29 q 753 -4 790 -29 q 675 75 717 21 q 589 234 628 136 q 501 485 550 332 q 395 776 439 671 q 293 946 351 882 q 232 996 269 972 q 171 1019 194 1019 q 143 983 143 1019 q 178 219 143 521 q 213 0 192 92 l 83 0 l 83 1035 z "},"ņ":{"ha":799,"x_min":69,"x_max":736,"o":"m 625 0 l 625 519 q 504 657 625 657 q 377 632 443 657 q 214 563 311 607 q 181 510 181 547 l 181 0 l 69 0 l 69 722 l 181 722 l 181 578 q 453 703 264 619 q 554 726 503 726 q 679 683 626 726 q 736 563 732 639 l 736 0 l 625 0 m 372 -204 l 321 -151 q 321 -133 313 -143 l 390 -64 q 407 -64 401 -54 l 478 -133 q 478 -151 486 -143 l 339 -293 l 318 -271 l 372 -204 z "},"Ň":{"ha":1064,"x_min":83,"x_max":981,"o":"m 556 1253 l 778 1364 l 789 1346 l 703 1288 q 556 1172 607 1222 q 408 1288 504 1222 l 322 1346 l 333 1364 l 556 1253 m 83 1035 l 176 1079 q 239 1094 210 1094 q 282 1086 261 1094 q 328 1058 303 1078 q 443 923 392 1010 q 531 740 494 836 q 617 494 568 643 q 697 265 664 350 q 769 126 731 181 q 826 73 783 106 q 892 40 868 40 q 919 82 919 40 q 885 836 919 503 q 851 1067 871 974 l 981 1067 l 981 25 l 896 -14 q 832 -29 858 -29 q 753 -4 790 -29 q 675 75 717 21 q 589 234 628 136 q 501 485 550 332 q 395 776 439 671 q 293 946 351 882 q 232 996 269 972 q 171 1019 194 1019 q 143 983 143 1019 q 178 219 143 521 q 213 0 192 92 l 83 0 l 83 1035 z "},"ň":{"ha":799,"x_min":69,"x_max":736,"o":"m 625 0 l 625 519 q 504 657 625 657 q 377 632 443 657 q 214 563 311 607 q 181 510 181 547 l 181 0 l 69 0 l 69 722 l 181 722 l 181 578 q 453 703 264 619 q 554 726 503 726 q 679 683 626 726 q 736 563 732 639 l 736 0 l 625 0 m 175 1067 l 397 956 l 619 1067 l 631 1049 l 544 990 q 397 875 449 925 q 250 990 346 925 l 164 1049 l 175 1067 z "},"ŉ":{"ha":799,"x_min":-24,"x_max":736,"o":"m 625 0 l 625 519 q 504 657 625 657 q 377 632 443 657 q 214 563 311 607 q 181 510 181 547 l 181 0 l 69 0 l 69 722 l 181 722 l 181 578 q 453 703 264 619 q 554 726 503 726 q 679 683 626 726 q 736 563 732 639 l 736 0 l 625 0 m 36 917 l -15 969 q -15 988 -24 978 l 54 1057 q 71 1057 65 1068 l 142 988 q 142 969 150 978 l 3 828 l -18 850 l 36 917 z "},"Ō":{"ha":1111,"x_min":42,"x_max":1069,"o":"m 350 1199 l 719 1199 l 719 1122 l 350 1122 l 350 1199 m 42 533 q 100 808 42 679 q 274 1015 158 936 q 554 1094 390 1094 q 835 1015 719 1094 q 1010 808 951 936 q 1069 533 1069 679 q 1010 259 1069 388 q 835 51 951 131 q 554 -28 719 -28 q 274 51 390 -28 q 100 259 158 131 q 42 533 42 388 m 172 394 q 343 122 239 218 q 582 25 447 25 q 721 49 651 25 q 912 199 850 92 q 974 447 974 307 q 935 676 974 563 q 773 940 882 836 q 524 1044 664 1044 q 397 1022 463 1044 q 201 869 267 979 q 135 614 135 758 q 172 394 135 501 z "},"ō":{"ha":865,"x_min":43,"x_max":822,"o":"m 432 750 q 644 695 556 750 q 778 551 733 640 q 822 361 822 463 q 778 171 822 260 q 644 27 733 82 q 432 -28 556 -28 q 220 27 308 -28 q 88 171 132 82 q 43 361 43 260 q 88 551 43 463 q 220 695 132 640 q 432 750 308 750 m 181 276 q 292 80 221 158 q 463 1 364 1 q 549 17 500 1 q 722 264 722 75 q 689 446 722 343 q 578 644 649 565 q 408 722 508 722 q 321 707 363 722 q 190 610 231 676 q 149 453 149 543 q 181 276 149 369 m 225 1014 l 594 1014 l 594 938 l 225 938 l 225 1014 z "},"Ŏ":{"ha":1111,"x_min":42,"x_max":1069,"o":"m 542 1182 q 578 1195 565 1182 q 603 1233 590 1208 q 630 1273 617 1260 q 667 1286 643 1286 q 707 1272 692 1286 q 722 1235 722 1258 q 663 1172 722 1188 q 542 1156 603 1156 q 422 1172 482 1156 q 363 1235 363 1188 q 378 1272 363 1258 q 418 1286 393 1286 q 455 1273 442 1286 q 482 1233 468 1260 q 508 1194 496 1207 q 542 1182 519 1182 m 42 533 q 100 808 42 679 q 274 1015 158 936 q 554 1094 390 1094 q 835 1015 719 1094 q 1010 808 951 936 q 1069 533 1069 679 q 1010 259 1069 388 q 835 51 951 131 q 554 -28 719 -28 q 274 51 390 -28 q 100 259 158 131 q 42 533 42 388 m 172 394 q 343 122 239 218 q 582 25 447 25 q 721 49 651 25 q 912 199 850 92 q 974 447 974 307 q 935 676 974 563 q 773 940 882 836 q 524 1044 664 1044 q 397 1022 463 1044 q 201 869 267 979 q 135 614 135 758 q 172 394 135 501 z "},"ŏ":{"ha":865,"x_min":43,"x_max":822,"o":"m 432 750 q 644 695 556 750 q 778 551 733 640 q 822 361 822 463 q 778 171 822 260 q 644 27 733 82 q 432 -28 556 -28 q 220 27 308 -28 q 88 171 132 82 q 43 361 43 260 q 88 551 43 463 q 220 695 132 640 q 432 750 308 750 m 181 276 q 292 80 221 158 q 463 1 364 1 q 549 17 500 1 q 722 264 722 75 q 689 446 722 343 q 578 644 649 565 q 408 722 508 722 q 321 707 363 722 q 190 610 231 676 q 149 453 149 543 q 181 276 149 369 m 246 963 q 261 1000 246 986 q 301 1014 276 1014 q 338 1001 325 1014 q 365 961 351 988 q 391 922 379 935 q 425 910 403 910 q 461 923 449 910 q 486 961 474 936 q 513 1001 500 988 q 550 1014 526 1014 q 590 1000 575 1014 q 606 963 606 986 q 546 899 606 915 q 425 883 486 883 q 306 899 365 883 q 246 963 246 915 z "},"Ő":{"ha":1111,"x_min":42,"x_max":1069,"o":"m 554 1094 q 835 1015 719 1094 q 1010 808 951 936 q 1069 533 1069 679 q 1010 259 1069 388 q 835 51 951 131 q 554 -28 719 -28 q 274 51 390 -28 q 100 259 158 131 q 42 533 42 388 q 100 808 42 679 q 274 1015 158 936 q 554 1094 390 1094 m 172 394 q 343 122 239 218 q 582 25 447 25 q 721 49 651 25 q 912 199 850 92 q 974 447 974 307 q 935 676 974 563 q 773 940 882 836 q 524 1044 664 1044 q 397 1022 463 1044 q 201 869 267 979 q 135 614 135 758 q 172 394 135 501 m 358 1165 q 414 1213 382 1188 q 547 1333 481 1268 l 619 1269 l 378 1144 l 358 1165 m 568 1165 q 624 1213 592 1188 q 757 1333 690 1268 l 829 1269 l 588 1144 l 568 1165 z "},"ő":{"ha":865,"x_min":43,"x_max":822,"o":"m 225 899 q 281 946 249 921 q 414 1067 347 1001 l 486 1003 l 244 878 l 225 899 m 181 276 q 292 80 221 158 q 463 1 364 1 q 549 17 500 1 q 722 264 722 75 q 689 446 722 343 q 578 644 649 565 q 408 722 508 722 q 321 707 363 722 q 190 610 231 676 q 149 453 149 543 q 181 276 149 369 m 432 -28 q 220 27 308 -28 q 88 171 132 82 q 43 361 43 260 q 88 551 43 463 q 220 695 132 640 q 432 750 308 750 q 644 695 556 750 q 778 551 733 640 q 822 361 822 463 q 778 171 822 260 q 644 27 733 82 q 432 -28 556 -28 m 435 899 q 490 946 458 921 q 624 1067 557 1001 l 696 1003 l 454 878 l 435 899 z "},"Œ":{"ha":1599,"x_min":42,"x_max":1543,"o":"m 900 542 q 956 604 919 583 q 1056 632 1000 632 q 1133 624 1090 632 q 1236 593 1179 613 q 1272 582 1242 592 q 1326 572 1303 572 q 1417 611 1368 572 l 1432 599 q 1344 526 1393 556 q 1243 497 1296 497 q 1188 507 1215 497 q 1107 531 1165 514 l 1069 540 q 996 551 1022 551 q 967 549 975 551 l 964 549 q 921 519 939 542 q 900 469 903 496 l 900 38 q 1357 75 1126 39 q 1543 110 1438 86 l 1543 0 l 790 0 l 790 25 q 554 -28 685 -28 q 274 51 390 -28 q 100 259 158 131 q 42 533 42 388 q 100 808 42 679 q 274 1015 158 936 q 554 1094 390 1094 q 790 1042 685 1094 l 790 1067 l 1543 1067 l 1543 957 q 1357 992 1438 981 q 900 1029 1153 1024 l 900 542 m 172 394 q 343 122 239 218 q 582 25 447 25 q 721 49 651 25 l 722 49 q 772 93 754 61 q 790 175 790 125 l 790 863 q 776 923 790 894 q 736 971 763 951 q 525 1044 639 1044 q 397 1022 463 1044 q 201 869 267 979 q 135 614 135 758 q 172 394 135 501 z "},"œ":{"ha":1540,"x_min":43,"x_max":1506,"o":"m 1479 285 q 1344 110 1429 174 q 1161 28 1258 46 q 1129 26 1150 26 q 965 92 1033 26 q 858 267 897 158 l 1472 506 q 1340 684 1433 617 q 1106 751 1247 751 q 902 701 988 751 q 769 568 817 651 q 635 702 721 653 q 432 751 550 751 q 220 697 308 751 q 88 553 132 642 q 43 363 43 464 q 88 172 43 261 q 220 28 132 83 q 432 -26 308 -26 q 635 24 550 -26 q 769 158 721 74 q 902 24 817 74 q 1106 -26 988 -26 q 1201 -12 1164 -26 q 1367 78 1292 10 q 1506 272 1442 147 l 1479 285 m 181 278 q 149 454 149 371 q 190 611 149 544 q 321 708 231 678 q 408 724 363 724 q 578 645 508 724 q 689 447 649 567 q 718 318 713 383 q 721 264 721 300 q 549 18 721 74 q 463 3 500 3 q 292 81 364 3 q 181 278 221 160 m 850 292 q 822 457 822 382 q 863 613 822 546 q 993 708 904 679 q 1079 724 1042 724 q 1230 666 1165 724 q 1338 515 1294 608 l 850 292 z "},"Ŕ":{"ha":992,"x_min":83,"x_max":1117,"o":"m 669 429 q 760 265 706 381 q 851 94 811 163 q 958 -47 892 25 q 1117 -175 1024 -119 l 1100 -196 q 821 -11 925 -117 q 628 275 717 94 q 538 406 586 361 q 425 469 489 451 q 260 492 361 488 l 193 492 l 193 0 l 83 0 l 83 1068 l 361 1068 q 574 1053 481 1068 q 741 974 668 1038 q 814 781 814 910 q 772 644 814 703 q 662 550 731 585 q 513 507 593 515 q 601 487 564 504 q 669 429 639 469 m 193 585 q 206 539 193 551 q 250 526 219 526 q 541 559 440 525 q 675 648 642 593 q 708 778 708 703 q 615 981 708 928 q 371 1033 522 1033 q 257 1029 311 1033 q 193 1026 213 1026 l 193 585 m 349 1165 q 404 1213 372 1188 q 538 1333 471 1268 l 610 1269 l 368 1144 l 349 1165 z "},"ŕ":{"ha":535,"x_min":63,"x_max":535,"o":"m 119 899 q 175 946 143 921 q 308 1067 242 1001 l 381 1003 l 139 878 l 119 899 m 63 722 l 174 722 l 174 585 q 263 687 213 638 q 342 736 314 736 q 388 722 368 736 q 435 676 407 707 q 478 634 458 649 q 521 619 497 619 l 535 622 q 492 588 496 590 q 429 561 453 561 q 415 564 424 561 q 385 581 399 568 q 353 615 372 593 q 317 651 331 640 q 289 660 304 661 q 240 632 267 657 q 193 574 213 607 q 174 517 174 542 l 174 0 l 63 0 l 63 722 z "},"Ŗ":{"ha":992,"x_min":83,"x_max":1117,"o":"m 433 -293 l 572 -151 q 572 -133 581 -143 l 501 -64 q 485 -64 496 -54 l 415 -133 q 415 -151 407 -143 l 467 -204 l 413 -271 l 433 -293 m 193 0 l 193 492 l 260 492 q 425 469 361 488 q 538 406 489 451 q 628 275 586 361 q 821 -11 717 94 q 1100 -196 925 -117 l 1117 -175 q 958 -47 1024 -119 q 851 94 892 25 q 760 265 811 163 q 669 429 706 381 q 601 487 639 469 q 513 507 564 504 q 662 550 593 515 q 772 644 731 585 q 814 781 814 703 q 741 974 814 910 q 574 1053 668 1038 q 361 1068 481 1068 l 83 1068 l 83 0 l 193 0 m 193 1026 q 257 1029 213 1026 q 371 1033 311 1033 q 615 981 522 1033 q 708 778 708 928 q 675 648 708 703 q 541 559 642 593 q 250 526 440 525 q 206 539 219 526 q 193 585 193 551 l 193 1026 z "},"ŗ":{"ha":535,"x_min":32,"x_max":535,"o":"m 40 -151 q 40 -133 32 -143 l 110 -64 q 126 -64 121 -54 l 197 -133 q 197 -151 206 -143 l 58 -293 l 38 -271 l 92 -204 l 40 -151 m 63 722 l 174 722 l 174 585 q 263 687 213 638 q 342 736 314 736 q 388 722 368 736 q 435 676 407 707 q 478 634 458 649 q 521 619 497 619 l 535 622 q 492 588 496 590 q 429 561 453 561 q 415 564 424 561 q 385 581 399 568 q 353 615 372 593 q 317 651 331 640 q 289 660 304 661 q 240 632 267 657 q 193 574 213 607 q 174 517 174 542 l 174 0 l 63 0 l 63 722 z "},"Ř":{"ha":992,"x_min":83,"x_max":1117,"o":"m 669 429 q 760 265 706 381 q 851 94 811 163 q 958 -47 892 25 q 1117 -175 1024 -119 l 1100 -196 q 821 -11 925 -117 q 628 275 717 94 q 538 406 586 361 q 425 469 489 451 q 260 492 361 488 l 193 492 l 193 0 l 83 0 l 83 1068 l 361 1068 q 574 1053 481 1068 q 741 974 668 1038 q 814 781 814 910 q 772 644 814 703 q 662 550 731 585 q 513 507 593 515 q 601 487 564 504 q 669 429 639 469 m 193 1364 l 415 1253 l 638 1364 l 649 1346 l 563 1288 q 415 1172 467 1222 q 268 1288 364 1222 l 182 1346 l 193 1364 m 193 585 q 206 539 193 551 q 250 526 219 526 q 541 559 440 525 q 675 648 642 593 q 708 778 708 703 q 615 981 708 928 q 371 1033 522 1033 q 257 1029 311 1033 q 193 1026 213 1026 l 193 585 z "},"ř":{"ha":535,"x_min":47,"x_max":535,"o":"m 281 956 l 503 1067 l 514 1049 l 428 990 q 281 875 332 925 q 133 990 229 925 l 47 1049 l 58 1067 l 281 956 m 63 722 l 174 722 l 174 585 q 263 687 213 638 q 342 736 314 736 q 388 722 368 736 q 435 676 407 707 q 478 634 458 649 q 521 619 497 619 l 535 622 q 492 588 496 590 q 429 561 453 561 q 415 564 424 561 q 385 581 399 568 q 353 615 372 593 q 317 651 331 640 q 289 660 304 661 q 240 632 267 657 q 193 574 213 607 q 174 517 174 542 l 174 0 l 63 0 l 63 722 z "},"Ś":{"ha":1015,"x_min":56,"x_max":960,"o":"m 960 289 q 894 106 960 178 q 731 2 828 35 q 542 -31 635 -31 q 250 48 381 -31 q 56 283 119 126 l 82 297 q 195 160 122 218 q 358 71 268 101 q 536 40 447 40 q 753 108 667 40 q 840 304 840 175 q 801 422 840 379 q 703 483 761 464 q 544 519 644 501 l 493 529 l 440 538 q 274 570 343 550 q 151 641 204 590 q 99 783 99 692 q 165 954 100 885 q 328 1058 229 1024 q 535 1092 428 1092 q 763 1027 656 1092 q 946 850 871 963 l 843 788 q 694 988 779 921 q 499 1054 610 1054 q 364 1028 432 1054 q 250 948 296 1001 q 204 817 204 894 q 247 705 204 744 q 353 650 289 665 q 529 619 417 635 q 753 577 668 601 q 899 485 839 553 q 960 289 960 417 m 443 1169 q 499 1217 467 1192 q 632 1338 565 1272 l 704 1274 l 463 1149 l 443 1169 z "},"ś":{"ha":782,"x_min":35,"x_max":743,"o":"m 310 899 q 365 946 333 921 q 499 1067 432 1001 l 571 1003 l 329 878 l 310 899 m 58 203 q 220 65 118 103 q 417 28 322 28 q 517 47 468 28 q 597 103 565 65 q 628 196 628 142 q 552 307 628 274 q 376 347 476 340 l 346 350 q 205 369 261 357 q 108 419 149 382 q 67 528 67 456 q 154 683 67 626 q 364 749 242 739 q 413 751 397 751 q 599 702 517 751 q 729 583 681 653 l 636 524 q 385 721 529 721 q 318 711 360 721 q 219 644 256 692 q 183 539 183 597 q 213 474 183 496 q 286 442 242 451 q 408 426 331 433 q 580 402 513 418 q 695 338 647 386 q 743 194 743 289 q 691 69 743 119 q 563 -5 639 18 q 415 -28 488 -28 q 186 26 289 -28 q 35 190 83 81 l 58 203 z "},"Ŝ":{"ha":1015,"x_min":56,"x_max":960,"o":"m 267 1160 q 328 1200 274 1164 l 353 1217 q 500 1333 444 1279 q 647 1217 556 1279 l 672 1200 q 733 1160 726 1164 l 722 1142 l 500 1253 l 278 1142 l 267 1160 m 82 297 q 195 160 122 218 q 358 71 268 101 q 536 40 447 40 q 753 108 667 40 q 840 304 840 175 q 801 422 840 379 q 703 483 761 464 q 544 519 644 501 l 493 529 l 440 538 q 274 570 343 550 q 151 641 204 590 q 99 783 99 692 q 165 954 100 885 q 328 1058 229 1024 q 535 1092 428 1092 q 763 1027 656 1092 q 946 850 871 963 l 843 788 q 694 988 779 921 q 499 1054 610 1054 q 364 1028 432 1054 q 250 948 296 1001 q 204 817 204 894 q 247 705 204 744 q 353 650 289 665 q 529 619 417 635 q 753 577 668 601 q 899 485 839 553 q 960 289 960 417 q 894 106 960 178 q 731 2 828 35 q 542 -31 635 -31 q 250 48 381 -31 q 56 283 119 126 l 82 297 z "},"ŝ":{"ha":782,"x_min":35,"x_max":743,"o":"m 149 893 q 210 933 156 897 l 235 950 q 382 1067 326 1013 q 529 950 438 1013 l 554 933 q 615 893 608 897 l 604 875 l 382 986 l 160 875 l 149 893 m 58 203 q 220 65 118 103 q 417 28 322 28 q 517 47 468 28 q 597 103 565 65 q 628 196 628 142 q 552 307 628 274 q 376 347 476 340 l 346 350 q 205 369 261 357 q 108 419 149 382 q 67 528 67 456 q 154 683 67 626 q 364 749 242 739 q 413 751 397 751 q 599 702 517 751 q 729 583 681 653 l 636 524 q 385 721 529 721 q 318 711 360 721 q 219 644 256 692 q 183 539 183 597 q 213 474 183 496 q 286 442 242 451 q 408 426 331 433 q 580 402 513 418 q 695 338 647 386 q 743 194 743 289 q 691 69 743 119 q 563 -5 639 18 q 415 -28 488 -28 q 186 26 289 -28 q 35 190 83 81 l 58 203 z "},"Ş":{"ha":1015,"x_min":56,"x_max":960,"o":"m 960 289 q 899 113 960 183 q 749 8 839 43 q 568 -31 660 -26 q 533 -81 558 -64 q 506 -101 508 -99 q 597 -124 563 -97 q 631 -196 631 -150 q 599 -267 631 -240 q 519 -293 567 -293 q 469 -283 499 -293 q 429 -267 440 -274 l 440 -243 q 514 -264 463 -254 q 562 -247 542 -267 q 582 -196 582 -228 q 562 -143 582 -164 q 510 -122 542 -122 q 488 -124 497 -122 q 478 -122 485 -125 q 475 -104 468 -117 q 500 -29 492 -75 q 233 58 351 -19 q 56 283 115 136 l 82 297 q 195 160 122 218 q 358 71 268 101 q 536 40 447 40 q 753 108 667 40 q 840 304 840 175 q 801 422 840 379 q 703 483 761 464 q 544 519 644 501 l 493 529 l 440 538 q 274 570 343 550 q 151 641 204 590 q 99 783 99 692 q 165 954 100 885 q 328 1058 229 1024 q 535 1092 428 1092 q 763 1027 656 1092 q 946 850 871 963 l 843 788 q 694 988 779 921 q 499 1054 610 1054 q 364 1028 432 1054 q 250 948 296 1001 q 204 817 204 894 q 247 705 204 744 q 353 650 289 665 q 529 619 417 635 q 753 577 668 601 q 899 485 839 553 q 960 289 960 417 z "},"ş":{"ha":782,"x_min":35,"x_max":743,"o":"m 183 539 q 213 474 183 496 q 286 442 242 451 q 408 426 331 433 q 580 402 513 418 q 695 338 647 386 q 743 194 743 289 q 694 72 743 121 q 574 -1 646 22 q 431 -28 501 -25 q 395 -81 421 -62 q 367 -101 369 -100 q 458 -124 424 -97 q 492 -196 492 -150 q 460 -267 492 -240 q 381 -293 428 -293 q 331 -283 360 -293 q 290 -267 301 -274 l 301 -243 q 375 -264 324 -254 q 423 -247 403 -267 q 443 -196 443 -228 q 423 -143 443 -164 q 371 -122 403 -122 q 349 -124 358 -122 q 339 -122 346 -125 q 336 -104 329 -117 q 363 -25 356 -72 q 165 38 253 -15 q 35 190 78 92 l 58 203 q 220 65 118 103 q 417 28 322 28 q 517 47 468 28 q 597 103 565 65 q 628 196 628 142 q 552 307 628 274 q 376 347 476 340 l 346 350 q 205 369 261 357 q 108 419 149 382 q 67 528 67 456 q 154 683 67 626 q 364 749 242 739 q 413 751 397 751 q 599 702 517 751 q 729 583 681 653 l 636 524 q 385 721 529 721 q 318 711 360 721 q 219 644 256 692 q 183 539 183 597 z "},"Š":{"ha":1015,"x_min":56,"x_max":960,"o":"m 511 1253 l 733 1364 l 744 1346 l 658 1288 q 511 1172 563 1222 q 364 1288 460 1222 l 278 1346 l 289 1364 l 511 1253 m 82 297 q 195 160 122 218 q 358 71 268 101 q 536 40 447 40 q 753 108 667 40 q 840 304 840 175 q 801 422 840 379 q 703 483 761 464 q 544 519 644 501 l 493 529 l 440 538 q 274 570 343 550 q 151 641 204 590 q 99 783 99 692 q 165 954 100 885 q 328 1058 229 1024 q 535 1092 428 1092 q 763 1027 656 1092 q 946 850 871 963 l 843 788 q 694 988 779 921 q 499 1054 610 1054 q 364 1028 432 1054 q 250 948 296 1001 q 204 817 204 894 q 247 705 204 744 q 353 650 289 665 q 529 619 417 635 q 753 577 668 601 q 899 485 839 553 q 960 289 960 417 q 894 106 960 178 q 731 2 828 35 q 542 -31 635 -31 q 250 48 381 -31 q 56 283 119 126 l 82 297 z "},"š":{"ha":782,"x_min":35,"x_max":743,"o":"m 401 956 l 624 1067 l 635 1049 l 549 990 q 401 875 453 925 q 254 990 350 925 l 168 1049 l 179 1067 l 401 956 m 58 203 q 220 65 118 103 q 417 28 322 28 q 517 47 468 28 q 597 103 565 65 q 628 196 628 142 q 552 307 628 274 q 376 347 476 340 l 346 350 q 205 369 261 357 q 108 419 149 382 q 67 528 67 456 q 154 683 67 626 q 364 749 242 739 q 413 751 397 751 q 599 702 517 751 q 729 583 681 653 l 636 524 q 385 721 529 721 q 318 711 360 721 q 219 644 256 692 q 183 539 183 597 q 213 474 183 496 q 286 442 242 451 q 408 426 331 433 q 580 402 513 418 q 695 338 647 386 q 743 194 743 289 q 691 69 743 119 q 563 -5 639 18 q 415 -28 488 -28 q 186 26 289 -28 q 35 190 83 81 l 58 203 z "},"Ţ":{"ha":992,"x_min":21,"x_max":971,"o":"m 444 1013 q 132 978 253 999 q 21 956 97 972 l 21 1067 l 971 1067 l 971 956 q 861 978 893 972 q 556 1013 746 999 l 556 0 q 503 -79 543 -58 q 461 -101 463 -100 q 552 -124 518 -97 q 586 -196 586 -150 q 554 -267 586 -240 q 475 -293 522 -293 q 425 -283 454 -293 q 385 -267 396 -274 l 396 -243 q 469 -264 418 -254 q 517 -247 497 -267 q 538 -196 538 -228 q 517 -143 538 -164 q 465 -122 497 -122 q 443 -124 453 -122 q 433 -122 440 -125 q 431 -104 424 -117 q 444 -86 432 -103 q 457 -42 457 -69 q 444 0 457 -24 l 444 1013 z "},"ţ":{"ha":604,"x_min":49,"x_max":576,"o":"m 576 56 q 503 25 542 40 l 432 -6 q 329 -28 383 -28 q 299 -26 308 -28 q 248 -83 281 -67 q 214 -101 215 -100 q 305 -124 271 -97 q 339 -196 339 -150 q 307 -267 339 -240 q 228 -293 275 -293 q 178 -283 207 -293 q 138 -267 149 -274 l 149 -243 q 222 -264 171 -254 q 270 -247 250 -267 q 290 -196 290 -228 q 270 -143 290 -164 q 218 -122 250 -122 q 196 -124 206 -122 q 186 -122 193 -125 q 183 -104 176 -117 q 200 -89 185 -103 q 215 -46 215 -75 q 185 32 215 -12 q 144 136 146 75 q 142 199 142 178 l 143 281 l 143 639 l 49 639 l 49 722 l 143 722 q 174 853 143 778 q 308 976 204 929 l 514 1064 l 522 1044 q 469 1019 494 1033 q 351 953 400 983 q 283 874 317 932 q 250 722 250 817 l 522 722 l 522 639 l 272 639 q 251 631 260 639 q 243 610 243 622 l 243 179 q 278 66 243 111 q 375 21 314 21 q 419 26 399 21 q 499 48 451 33 q 569 74 547 63 l 576 56 z "},"Ť":{"ha":992,"x_min":21,"x_max":971,"o":"m 503 1253 l 725 1364 l 736 1346 l 650 1288 q 503 1172 554 1222 q 356 1288 451 1222 l 269 1346 l 281 1364 l 503 1253 m 21 1067 l 971 1067 l 971 956 q 861 978 893 972 q 556 1013 746 999 l 556 0 l 444 0 l 444 1013 q 132 978 253 999 q 21 956 97 972 l 21 1067 z "},"ť":{"ha":650,"x_min":49,"x_max":724,"o":"m 558 926 q 558 944 550 935 l 628 1014 q 644 1014 639 1025 l 715 944 q 715 926 724 935 l 576 785 l 556 807 l 610 874 l 558 926 m 49 722 l 143 722 q 174 853 143 778 q 308 976 204 929 l 514 1064 l 522 1044 q 469 1019 494 1033 q 351 953 400 983 q 283 874 317 932 q 250 722 250 817 l 522 722 l 522 639 l 272 639 q 251 631 260 639 q 243 610 243 622 l 243 179 q 278 66 243 111 q 375 21 314 21 q 419 26 399 21 q 499 48 451 33 q 569 74 547 63 l 576 56 q 503 25 542 40 l 432 -6 q 331 -29 382 -29 q 203 15 257 -29 q 144 136 149 60 q 142 199 142 178 l 143 281 l 143 639 l 49 639 l 49 722 z "},"Ŧ":{"ha":992,"x_min":21,"x_max":971,"o":"m 163 724 l 444 724 l 444 1013 q 132 978 253 999 q 21 956 97 972 l 21 1067 l 971 1067 l 971 956 q 861 978 893 972 q 556 1013 746 999 l 556 724 l 832 724 l 832 654 l 556 654 l 556 0 l 444 0 l 444 654 l 163 654 l 163 724 z "},"ŧ":{"ha":604,"x_min":49,"x_max":576,"o":"m 49 521 l 143 521 l 143 639 l 49 639 l 49 722 l 143 722 q 174 853 143 778 q 308 976 204 929 l 514 1064 l 522 1044 q 469 1019 494 1033 q 351 953 400 983 q 283 874 317 932 q 250 722 250 817 l 522 722 l 522 639 l 272 639 q 251 631 260 639 q 243 610 243 622 l 243 521 l 522 521 l 522 451 l 243 451 l 243 179 q 278 66 243 111 q 375 21 314 21 q 419 26 399 21 q 499 48 451 33 q 569 74 547 63 l 576 56 q 503 25 542 40 l 432 -6 q 331 -29 382 -29 q 203 15 257 -29 q 144 136 149 60 q 142 199 142 178 l 143 281 l 143 451 l 49 451 l 49 521 z "},"Ũ":{"ha":1043,"x_min":49,"x_max":994,"o":"m 531 1228 q 440 1253 479 1244 q 364 1263 401 1263 q 218 1208 282 1263 l 201 1219 q 294 1303 247 1275 q 399 1332 342 1332 q 482 1318 439 1332 q 601 1285 564 1294 q 672 1276 638 1276 q 783 1321 739 1276 l 800 1308 q 625 1208 719 1208 q 574 1215 596 1208 l 531 1228 m 49 346 q 117 574 49 465 q 335 767 185 682 q 371 808 371 790 q 365 825 371 819 l 92 1067 l 257 1067 l 468 875 q 485 842 485 858 q 458 806 485 822 l 356 735 q 210 570 257 660 q 164 385 164 481 q 210 199 164 286 q 333 59 256 111 q 497 7 410 7 q 681 51 590 7 q 828 174 771 96 q 886 347 886 251 q 870 447 886 361 q 824 681 854 532 q 775 929 794 831 l 749 1067 l 863 1067 q 972 543 950 661 q 994 390 994 425 q 933 165 994 260 q 758 22 871 71 q 497 -28 646 -28 q 262 23 364 -28 q 104 160 160 74 q 49 346 49 246 z "},"ũ":{"ha":747,"x_min":63,"x_max":678,"o":"m 676 0 l 567 0 l 567 140 q 553 131 560 135 q 543 125 547 128 q 347 8 440 51 q 246 -14 301 -14 q 156 8 199 -14 q 88 69 114 29 q 63 160 63 108 l 63 722 l 172 722 l 172 203 q 207 90 172 135 q 301 46 242 46 q 351 54 325 46 q 539 149 422 76 q 559 169 551 157 q 567 197 567 182 l 567 722 l 676 722 l 676 0 m 79 871 q 172 955 125 926 q 276 983 219 983 q 360 969 317 983 q 478 937 442 946 q 550 928 515 928 q 661 972 617 928 l 678 960 q 503 860 597 860 q 451 867 474 860 l 408 879 q 318 905 357 896 q 242 914 279 914 q 96 860 160 914 l 79 871 z "},"Ū":{"ha":1043,"x_min":49,"x_max":994,"o":"m 863 1067 q 972 543 950 661 q 994 390 994 425 q 933 165 994 260 q 758 22 871 71 q 497 -28 646 -28 q 262 23 364 -28 q 104 160 160 74 q 49 346 49 246 q 117 574 49 465 q 335 767 185 682 q 371 808 371 790 q 365 825 371 819 l 92 1067 l 257 1067 l 468 875 q 485 842 485 858 q 458 806 485 822 l 356 735 q 210 570 257 660 q 164 385 164 481 q 210 199 164 286 q 333 59 256 111 q 497 7 410 7 q 681 51 590 7 q 828 174 771 96 q 886 347 886 251 q 870 447 886 361 q 824 681 854 532 q 775 929 794 831 l 749 1067 l 863 1067 m 325 1197 l 694 1197 l 694 1121 l 325 1121 l 325 1197 z "},"ū":{"ha":746,"x_min":63,"x_max":676,"o":"m 186 1025 l 556 1025 l 556 949 l 186 949 l 186 1025 m 63 722 l 172 722 l 172 203 q 207 90 172 135 q 301 46 242 46 q 351 54 325 46 q 539 149 422 76 q 559 169 551 157 q 567 197 567 182 l 567 722 l 676 722 l 676 0 l 567 0 l 567 140 q 553 131 560 135 q 543 125 547 128 q 347 8 440 51 q 246 -14 301 -14 q 156 8 199 -14 q 88 69 114 29 q 63 160 63 108 l 63 722 z "},"Ŭ":{"ha":1043,"x_min":49,"x_max":994,"o":"m 532 1182 q 568 1195 556 1182 q 593 1233 581 1208 q 620 1273 607 1260 q 657 1286 633 1286 q 697 1272 682 1286 q 713 1235 713 1258 q 653 1172 713 1188 q 532 1156 593 1156 q 413 1172 472 1156 q 353 1235 353 1188 q 368 1272 353 1258 q 408 1286 383 1286 q 445 1273 432 1286 q 472 1233 458 1260 q 498 1194 486 1207 q 532 1182 510 1182 m 49 346 q 117 574 49 465 q 335 767 185 682 q 371 808 371 790 q 365 825 371 819 l 92 1067 l 257 1067 l 468 875 q 485 842 485 858 q 458 806 485 822 l 356 735 q 210 570 257 660 q 164 385 164 481 q 210 199 164 286 q 333 59 256 111 q 497 7 410 7 q 681 51 590 7 q 828 174 771 96 q 886 347 886 251 q 870 447 886 361 q 824 681 854 532 q 775 929 794 831 l 749 1067 l 863 1067 q 972 543 950 661 q 994 390 994 425 q 933 165 994 260 q 758 22 871 71 q 497 -28 646 -28 q 262 23 364 -28 q 104 160 160 74 q 49 346 49 246 z "},"ŭ":{"ha":746,"x_min":63,"x_max":676,"o":"m 367 906 q 403 919 390 906 q 428 957 415 932 q 455 997 442 983 q 492 1010 468 1010 q 532 996 517 1010 q 547 958 547 982 q 488 895 547 911 q 367 879 428 879 q 247 895 307 879 q 188 958 188 911 q 203 996 188 982 q 243 1010 218 1010 q 280 997 267 1010 q 307 957 293 983 q 333 918 321 931 q 367 906 344 906 m 63 722 l 172 722 l 172 203 q 207 90 172 135 q 301 46 242 46 q 351 54 325 46 q 539 149 422 76 q 559 169 551 157 q 567 197 567 182 l 567 722 l 676 722 l 676 0 l 567 0 l 567 140 q 553 131 560 135 q 543 125 547 128 q 347 8 440 51 q 246 -14 301 -14 q 156 8 199 -14 q 88 69 114 29 q 63 160 63 108 l 63 722 z "},"Ů":{"ha":1043,"x_min":49,"x_max":994,"o":"m 432 1240 q 460 1307 432 1279 q 525 1335 488 1335 q 592 1307 564 1335 q 619 1240 619 1279 q 592 1175 619 1203 q 525 1147 564 1147 q 460 1175 488 1147 q 432 1240 432 1203 m 49 346 q 117 574 49 465 q 335 767 185 682 q 371 808 371 790 q 365 825 371 819 l 92 1067 l 257 1067 l 468 875 q 485 842 485 858 q 458 806 485 822 l 356 735 q 210 570 257 660 q 164 385 164 481 q 210 199 164 286 q 333 59 256 111 q 497 7 410 7 q 681 51 590 7 q 828 174 771 96 q 886 347 886 251 q 870 447 886 361 q 824 681 854 532 q 775 929 794 831 l 749 1067 l 863 1067 q 972 543 950 661 q 994 390 994 425 q 933 165 994 260 q 758 22 871 71 q 497 -28 646 -28 q 262 23 364 -28 q 104 160 160 74 q 49 346 49 246 m 482 1213 q 508 1187 492 1196 q 539 1178 524 1178 q 563 1185 554 1178 q 582 1222 582 1196 q 567 1269 582 1246 q 514 1304 544 1304 q 480 1291 492 1304 q 468 1257 468 1278 q 482 1213 468 1232 z "},"ů":{"ha":746,"x_min":63,"x_max":676,"o":"m 281 972 q 308 1039 281 1011 q 374 1067 336 1067 q 440 1039 413 1067 q 468 972 468 1011 q 440 907 468 935 q 374 879 413 879 q 308 907 336 879 q 281 972 281 935 m 63 722 l 172 722 l 172 203 q 207 90 172 135 q 301 46 242 46 q 351 54 325 46 q 539 149 422 76 q 559 169 551 157 q 567 197 567 182 l 567 722 l 676 722 l 676 0 l 567 0 l 567 140 q 553 131 560 135 q 543 125 547 128 q 347 8 440 51 q 246 -14 301 -14 q 156 8 199 -14 q 88 69 114 29 q 63 160 63 108 l 63 722 m 331 944 q 356 919 340 928 q 388 910 372 910 q 411 917 403 910 q 431 954 431 928 q 415 1001 431 978 q 363 1036 393 1036 q 328 1023 340 1036 q 317 989 317 1010 q 331 944 317 964 z "},"Ű":{"ha":1043,"x_min":49,"x_max":994,"o":"m 356 1165 q 411 1213 379 1188 q 544 1333 478 1268 l 617 1269 l 375 1144 l 356 1165 m 49 346 q 117 574 49 465 q 335 767 185 682 q 371 808 371 790 q 365 825 371 819 l 92 1067 l 257 1067 l 468 875 q 485 842 485 858 q 458 806 485 822 l 356 735 q 210 570 257 660 q 164 385 164 481 q 210 199 164 286 q 333 59 256 111 q 497 7 410 7 q 681 51 590 7 q 828 174 771 96 q 886 347 886 251 q 870 447 886 361 q 824 681 854 532 q 775 929 794 831 l 749 1067 l 863 1067 q 972 543 950 661 q 994 390 994 425 q 933 165 994 260 q 758 22 871 71 q 497 -28 646 -28 q 262 23 364 -28 q 104 160 160 74 q 49 346 49 246 m 565 1165 q 621 1213 589 1188 q 754 1333 688 1268 l 826 1269 l 585 1144 l 565 1165 z "},"ű":{"ha":746,"x_min":63,"x_max":676,"o":"m 193 899 q 249 946 217 921 q 382 1067 315 1001 l 454 1003 l 213 878 l 193 899 m 63 722 l 172 722 l 172 203 q 207 90 172 135 q 301 46 242 46 q 351 54 325 46 q 539 149 422 76 q 559 169 551 157 q 567 197 567 182 l 567 722 l 676 722 l 676 0 l 567 0 l 567 140 q 553 131 560 135 q 543 125 547 128 q 347 8 440 51 q 246 -14 301 -14 q 156 8 199 -14 q 88 69 114 29 q 63 160 63 108 l 63 722 m 403 899 q 458 946 426 921 q 592 1067 525 1001 l 664 1003 l 422 878 l 403 899 z "},"Ų":{"ha":1043,"x_min":49,"x_max":994,"o":"m 863 1067 q 972 543 950 661 q 994 390 994 425 q 938 174 994 265 q 778 31 881 82 q 539 -26 675 -19 q 501 -91 515 -56 q 488 -157 488 -126 q 489 -176 488 -171 q 506 -212 493 -200 q 544 -224 518 -224 q 594 -215 564 -224 l 604 -237 q 499 -274 549 -274 q 431 -249 457 -274 q 406 -185 406 -225 q 422 -118 406 -154 q 493 -28 446 -72 q 260 24 361 -28 q 103 160 158 75 q 49 346 49 246 q 117 574 49 465 q 335 767 185 682 q 371 808 371 790 q 365 825 371 819 l 92 1067 l 257 1067 l 468 875 q 485 842 485 858 q 458 806 485 822 l 356 735 q 210 570 257 660 q 164 385 164 481 q 210 199 164 286 q 333 59 256 111 q 497 7 410 7 q 681 51 590 7 q 828 174 771 96 q 886 347 886 251 q 870 447 886 361 q 824 681 854 532 q 775 929 794 831 l 749 1067 l 863 1067 z "},"ų":{"ha":746,"x_min":63,"x_max":676,"o":"m 607 0 q 553 -73 575 -28 q 531 -157 531 -118 q 532 -176 531 -169 q 549 -212 536 -200 q 588 -224 561 -224 q 638 -215 607 -224 l 647 -237 q 542 -274 592 -274 q 474 -249 500 -274 q 449 -185 449 -225 q 465 -118 449 -154 q 567 0 494 -61 l 567 140 q 553 131 560 135 q 543 125 547 128 q 347 8 440 51 q 246 -14 301 -14 q 156 8 199 -14 q 88 69 114 29 q 63 160 63 108 l 63 722 l 172 722 l 172 203 q 207 90 172 135 q 301 46 242 46 q 351 54 325 46 q 539 149 422 76 q 559 169 551 157 q 567 197 567 182 l 567 722 l 676 722 l 676 0 l 607 0 z "},"Ŵ":{"ha":1411,"x_min":49,"x_max":1369,"o":"m 446 1190 q 507 1231 453 1194 l 532 1247 q 679 1364 624 1310 q 826 1247 735 1310 l 851 1231 q 913 1190 906 1194 l 901 1172 l 679 1283 l 457 1172 l 446 1190 m 179 1067 l 507 111 q 519 97 511 101 q 533 92 526 92 q 556 106 547 92 l 782 475 l 576 1067 l 697 1067 l 1029 111 q 1041 98 1033 103 q 1056 93 1049 93 q 1078 107 1069 93 l 1207 328 q 1258 514 1258 415 q 1242 618 1258 568 l 1079 1067 l 1201 1067 l 1353 642 q 1369 549 1369 596 q 1318 386 1369 464 l 1049 0 l 954 0 l 810 397 l 532 0 l 428 0 l 49 1067 l 179 1067 z "},"ŵ":{"ha":1061,"x_min":49,"x_max":1004,"o":"m 283 893 q 344 933 290 897 l 369 950 q 517 1067 461 1013 q 664 950 572 1013 l 689 933 q 750 893 743 897 l 739 875 l 517 986 l 294 875 l 283 893 m 172 722 l 385 101 q 398 85 388 93 q 419 78 408 78 q 444 93 435 78 l 576 257 l 411 722 l 535 722 l 747 101 q 760 85 750 92 q 782 78 769 78 q 808 93 799 78 l 911 226 q 926 279 926 254 q 922 310 926 293 l 775 722 l 899 722 l 993 450 q 1004 385 1004 417 q 985 297 1004 340 l 786 0 l 668 0 l 585 235 l 424 0 l 306 0 l 49 722 l 172 722 z "},"Ŷ":{"ha":985,"x_min":42,"x_max":943,"o":"m 260 1190 q 321 1231 267 1194 l 346 1247 q 493 1364 438 1310 q 640 1247 549 1310 l 665 1231 q 726 1190 719 1194 l 715 1172 l 493 1283 l 271 1172 l 260 1190 m 185 1068 q 345 751 261 890 q 493 539 429 613 q 641 751 557 613 q 801 1068 725 890 l 943 1068 l 582 560 q 549 478 549 514 l 549 0 l 436 0 l 436 478 q 403 560 436 514 l 42 1068 l 185 1068 z "},"ŷ":{"ha":746,"x_min":63,"x_max":676,"o":"m 139 893 q 200 933 146 897 l 225 950 q 372 1067 317 1013 q 519 950 428 1013 l 544 933 q 606 893 599 897 l 594 875 l 372 986 l 150 875 l 139 893 m 64 160 q 63 207 63 176 l 64 303 l 64 722 l 175 722 l 175 203 q 208 93 175 136 q 300 50 242 50 q 351 58 325 50 q 440 94 389 69 q 539 149 490 119 q 558 169 551 156 q 565 197 565 182 l 565 722 l 676 722 l 676 -58 q 637 -183 671 -121 q 497 -294 603 -244 l 142 -444 l 133 -425 q 349 -315 257 -372 q 503 -187 442 -257 q 565 -42 565 -117 l 565 140 q 347 19 468 75 q 247 -3 301 -3 q 121 40 174 -3 q 64 160 68 83 z "},"Ÿ":{"ha":985,"x_min":42,"x_max":943,"o":"m 335 1176 q 324 1171 331 1171 q 313 1176 318 1171 l 247 1242 q 242 1253 242 1250 q 247 1264 242 1256 l 313 1329 q 324 1335 318 1335 q 335 1329 331 1335 l 400 1264 q 407 1253 407 1257 q 400 1242 407 1249 l 335 1176 m 185 1068 q 345 751 261 890 q 493 539 429 613 q 641 751 557 613 q 801 1068 725 890 l 943 1068 l 582 560 q 549 478 549 514 l 549 0 l 436 0 l 436 478 q 403 560 436 514 l 42 1068 l 185 1068 m 579 1242 q 574 1253 574 1250 q 579 1264 574 1256 l 644 1329 q 656 1335 650 1335 q 667 1329 663 1335 l 732 1264 q 739 1253 739 1257 q 732 1242 739 1249 l 667 1176 q 656 1171 663 1171 q 644 1176 650 1171 l 579 1242 z "},"Ź":{"ha":1054,"x_min":42,"x_max":1013,"o":"m 433 1165 q 489 1213 457 1188 q 622 1333 556 1268 l 694 1269 l 453 1144 l 433 1165 m 42 0 q 97 211 42 119 q 231 365 153 303 q 433 504 310 426 q 590 611 549 578 q 789 817 708 704 q 869 1018 869 931 q 283 982 479 1001 q 49 957 158 969 l 49 1068 l 1000 1068 q 951 854 1000 942 q 832 713 901 767 q 650 596 763 660 l 610 572 q 426 438 531 528 q 244 242 321 349 q 167 47 167 136 q 758 85 468 57 q 1013 111 917 99 l 1013 0 l 42 0 z "},"ź":{"ha":778,"x_min":56,"x_max":722,"o":"m 324 899 q 379 946 347 921 q 513 1067 446 1001 l 585 1003 l 343 878 l 324 899 m 56 0 q 94 153 56 89 q 187 257 133 217 q 326 349 240 297 q 436 419 408 396 q 553 551 510 479 q 596 679 596 622 q 225 639 392 665 q 196 633 206 636 q 69 611 118 622 l 69 722 l 722 722 q 692 576 722 633 q 617 487 661 519 q 503 417 574 454 l 449 388 q 335 299 399 360 q 227 169 272 239 q 182 42 182 99 q 560 82 349 50 l 721 111 l 721 0 l 56 0 z "},"Ż":{"ha":1054,"x_min":42,"x_max":1013,"o":"m 610 572 q 426 438 531 528 q 244 242 321 349 q 167 47 167 136 q 758 85 468 57 q 1013 111 917 99 l 1013 0 l 42 0 q 97 211 42 119 q 231 365 153 303 q 433 504 310 426 q 590 611 549 578 q 789 817 708 704 q 869 1018 869 931 q 283 982 479 1001 q 49 957 158 969 l 49 1068 l 1000 1068 q 951 854 1000 942 q 832 713 901 767 q 650 596 763 660 l 610 572 m 436 1244 q 431 1256 431 1253 q 436 1267 431 1258 l 501 1332 q 513 1338 507 1338 q 524 1332 519 1338 l 589 1267 q 596 1256 596 1260 q 589 1244 596 1251 l 524 1179 q 513 1174 519 1174 q 501 1179 507 1174 l 436 1244 z "},"ż":{"ha":778,"x_min":56,"x_max":722,"o":"m 407 861 q 396 856 403 856 q 385 861 390 856 l 319 926 q 314 938 314 935 q 319 949 314 940 l 385 1014 q 396 1019 390 1019 q 407 1014 403 1019 l 472 949 q 479 938 479 942 q 472 926 479 933 l 407 861 m 56 0 q 94 153 56 89 q 187 257 133 217 q 326 349 240 297 q 436 419 408 396 q 553 551 510 479 q 596 679 596 622 q 225 639 392 665 q 196 633 206 636 q 69 611 118 622 l 69 722 l 722 722 q 692 576 722 633 q 617 487 661 519 q 503 417 574 454 l 449 388 q 335 299 399 360 q 227 169 272 239 q 182 42 182 99 q 560 82 349 50 l 721 111 l 721 0 l 56 0 z "},"Ž":{"ha":1054,"x_min":42,"x_max":1013,"o":"m 525 1253 l 747 1364 l 758 1346 l 672 1288 q 525 1172 576 1222 q 378 1288 474 1222 l 292 1346 l 303 1364 l 525 1253 m 42 0 q 97 211 42 119 q 231 365 153 303 q 433 504 310 426 q 590 611 549 578 q 789 817 708 704 q 869 1018 869 931 q 283 982 479 1001 q 49 957 158 969 l 49 1068 l 1000 1068 q 951 854 1000 942 q 832 713 901 767 q 650 596 763 660 l 610 572 q 426 438 531 528 q 244 242 321 349 q 167 47 167 136 q 758 85 468 57 q 1013 111 917 99 l 1013 0 l 42 0 z "},"ž":{"ha":778,"x_min":56,"x_max":722,"o":"m 411 956 l 633 1067 l 644 1049 l 558 990 q 411 875 463 925 q 264 990 360 925 l 178 1049 l 189 1067 l 411 956 m 56 0 q 94 153 56 89 q 187 257 133 217 q 326 349 240 297 q 436 419 408 396 q 553 551 510 479 q 596 679 596 622 q 225 639 392 665 q 196 633 206 636 q 69 611 118 622 l 69 722 l 722 722 q 692 576 722 633 q 617 487 661 519 q 503 417 574 454 l 449 388 q 335 299 399 360 q 227 169 272 239 q 182 42 182 99 q 560 82 349 50 l 721 111 l 721 0 l 56 0 z "},"ƒ":{"ha":682,"x_min":97,"x_max":585,"o":"m 425 640 q 426 -22 425 47 q 426 -97 426 -92 q 338 -356 426 -265 q 97 -446 249 -446 l 97 -425 q 228 -380 179 -425 q 295 -272 276 -335 q 314 -147 314 -208 l 314 640 l 154 640 l 154 725 l 314 725 q 310 838 314 800 q 281 886 306 875 l 218 917 q 194 953 192 926 q 242 1004 194 978 q 346 1049 289 1031 q 415 1068 403 1068 q 472 1053 444 1068 q 557 1000 499 1039 l 547 985 q 479 1006 508 1006 q 447 999 465 1006 l 289 928 q 282 917 282 924 q 289 907 282 910 l 360 872 q 406 826 389 857 q 425 758 424 794 l 425 725 l 585 725 l 585 640 l 425 640 z "},"ǉ":{"ha":633,"x_min":-21,"x_max":571,"o":"m 522 721 l 522 -58 q 483 -183 517 -121 q 343 -294 449 -244 l -12 -444 l -21 -425 q 194 -315 103 -372 q 349 -187 288 -257 q 411 -42 411 -117 l 411 721 l 522 721 m 78 724 q 110 851 78 779 q 254 976 142 922 l 457 1063 q 468 1065 465 1065 q 479 1063 474 1065 l 564 1018 q 571 1007 571 1015 q 564 996 571 1000 l 474 947 q 463 947 468 946 l 414 974 q 375 983 396 983 q 336 974 354 983 q 269 931 293 951 q 189 733 194 858 l 189 0 l 78 0 l 78 724 z "},"Ș":{"ha":1015,"x_min":56,"x_max":960,"o":"m 960 289 q 894 106 960 178 q 731 2 828 35 q 542 -31 635 -31 q 250 48 381 -31 q 56 283 119 126 l 82 297 q 195 160 122 218 q 358 71 268 101 q 536 40 447 40 q 753 108 667 40 q 840 304 840 175 q 801 422 840 379 q 703 483 761 464 q 544 519 644 501 l 493 529 l 440 538 q 274 570 343 550 q 151 641 204 590 q 99 783 99 692 q 165 954 100 885 q 328 1058 229 1024 q 535 1092 428 1092 q 763 1027 656 1092 q 946 850 871 963 l 843 788 q 694 988 779 921 q 499 1054 610 1054 q 364 1028 432 1054 q 250 948 296 1001 q 204 817 204 894 q 247 705 204 744 q 353 650 289 665 q 529 619 417 635 q 753 577 668 601 q 899 485 839 553 q 960 289 960 417 m 511 -204 l 460 -151 q 460 -133 451 -143 l 529 -64 q 546 -64 540 -54 l 617 -133 q 617 -151 625 -143 l 478 -293 l 457 -271 l 511 -204 z "},"ș":{"ha":782,"x_min":35,"x_max":743,"o":"m 331 -151 q 331 -133 322 -143 l 400 -64 q 417 -64 411 -54 l 488 -133 q 488 -151 496 -143 l 349 -293 l 328 -271 l 382 -204 l 331 -151 m 58 203 q 220 65 118 103 q 417 28 322 28 q 517 47 468 28 q 597 103 565 65 q 628 196 628 142 q 552 307 628 274 q 376 347 476 340 l 346 350 q 205 369 261 357 q 108 419 149 382 q 67 528 67 456 q 154 683 67 626 q 364 749 242 739 q 413 751 397 751 q 599 702 517 751 q 729 583 681 653 l 636 524 q 385 721 529 721 q 318 711 360 721 q 219 644 256 692 q 183 539 183 597 q 213 474 183 496 q 286 442 242 451 q 408 426 331 433 q 580 402 513 418 q 695 338 647 386 q 743 194 743 289 q 691 69 743 119 q 563 -5 639 18 q 415 -28 488 -28 q 186 26 289 -28 q 35 190 83 81 l 58 203 z "},"Ț":{"ha":992,"x_min":21,"x_max":971,"o":"m 444 1013 q 132 978 253 999 q 21 956 97 972 l 21 1067 l 971 1067 l 971 956 q 861 978 893 972 q 556 1013 746 999 l 556 0 l 444 0 l 444 1013 m 472 -204 l 421 -151 q 421 -133 413 -143 l 490 -64 q 507 -64 501 -54 l 578 -133 q 578 -151 586 -143 l 439 -293 l 418 -271 l 472 -204 z "},"ț":{"ha":1157,"x_min":49,"x_max":576,"o":"m 178 -151 q 178 -133 169 -143 l 247 -64 q 264 -64 258 -54 l 335 -133 q 335 -151 343 -143 l 196 -293 l 175 -271 l 229 -204 l 178 -151 m 49 722 l 143 722 q 174 853 143 778 q 308 976 204 929 l 514 1064 l 522 1044 q 469 1019 494 1033 q 351 953 400 983 q 283 874 317 932 q 250 722 250 817 l 522 722 l 522 639 l 272 639 q 251 631 260 639 q 243 610 243 622 l 243 179 q 278 66 243 111 q 375 21 314 21 q 419 26 399 21 q 499 48 451 33 q 569 74 547 63 l 576 56 q 503 25 542 40 l 432 -6 q 331 -29 382 -29 q 203 15 257 -29 q 144 136 149 60 q 142 199 142 178 l 143 281 l 143 639 l 49 639 l 49 722 z "},"ˆ":{"ha":633,"x_min":83,"x_max":550,"o":"m 83 1160 q 144 1200 90 1164 l 169 1217 q 317 1333 261 1279 q 464 1217 372 1279 l 489 1200 q 550 1160 543 1164 l 539 1142 l 317 1253 l 94 1142 l 83 1160 z "},"ˇ":{"ha":633,"x_min":83,"x_max":550,"o":"m 317 1253 l 539 1364 l 550 1346 l 464 1288 q 317 1172 368 1222 q 169 1288 265 1222 l 83 1346 l 94 1364 l 317 1253 z "},"˘":{"ha":471,"x_min":56,"x_max":415,"o":"m 235 1182 q 271 1195 258 1182 q 296 1233 283 1208 q 323 1273 310 1260 q 360 1286 336 1286 q 400 1272 385 1286 q 415 1235 415 1258 q 356 1172 415 1188 q 235 1156 296 1156 q 115 1172 175 1156 q 56 1235 56 1188 q 71 1272 56 1258 q 111 1286 86 1286 q 148 1273 135 1286 q 175 1233 161 1260 q 201 1194 189 1207 q 235 1182 213 1182 z "},"˙":{"ha":306,"x_min":65,"x_max":240,"o":"m 74 979 q 74 997 65 988 l 143 1067 q 161 1067 153 1076 l 232 997 q 232 979 240 988 l 161 908 q 143 908 153 900 l 74 979 z "},"˚":{"ha":326,"x_min":69,"x_max":257,"o":"m 69 972 q 97 1039 69 1011 q 163 1067 125 1067 q 229 1039 201 1067 q 257 972 257 1011 q 229 907 257 935 q 163 879 201 879 q 97 907 125 879 q 69 972 69 935 m 119 944 q 145 919 129 928 q 176 910 161 910 q 200 917 192 910 q 219 954 219 928 q 204 1001 219 978 q 151 1036 182 1036 q 117 1023 129 1036 q 106 989 106 1010 q 119 944 106 964 z "},"˛":{"ha":349,"x_min":71,"x_max":279,"o":"m 279 -268 q 174 -294 229 -294 q 99 -272 128 -294 q 71 -203 71 -249 q 197 -29 71 -118 l 240 -28 q 180 -88 208 -51 q 143 -154 151 -125 q 135 -199 135 -179 q 201 -256 135 -256 q 268 -244 228 -256 l 279 -268 z "},"˜":{"ha":793,"x_min":97,"x_max":696,"o":"m 426 879 q 336 905 375 896 q 260 914 297 914 q 114 860 178 914 l 97 871 q 190 955 143 926 q 294 983 238 983 q 378 969 335 983 q 497 937 460 946 q 568 928 533 928 q 679 972 635 928 l 696 960 q 521 860 615 860 q 469 867 492 860 l 426 879 z "},"˝":{"ha":682,"x_min":83,"x_max":599,"o":"m 83 949 q 160 1006 133 985 q 308 1140 253 1078 l 383 1081 l 96 931 l 83 949 m 299 949 q 375 1006 349 985 q 524 1140 468 1078 l 599 1081 l 311 931 l 299 949 z "},"μ":{"ha":753,"x_min":69,"x_max":683,"o":"m 179 722 l 179 203 q 214 90 179 135 q 308 46 249 46 q 358 54 332 46 q 546 149 429 76 q 566 169 558 157 q 574 197 574 182 l 574 722 l 683 722 l 683 0 l 574 0 l 574 140 q 560 131 567 135 q 550 125 554 128 q 354 8 447 51 q 253 -14 308 -14 q 178 0 215 -14 l 178 -443 l 69 -443 l 69 722 l 179 722 z "},"с":{"ha":1629,"x_min":50,"x_max":1590,"o":"m 811 240 q 842 268 826 268 q 870 248 857 268 q 891 210 883 228 q 900 189 899 193 q 1041 22 956 74 q 1263 -31 1126 -31 q 1410 -8 1335 -31 q 1538 66 1486 15 q 1590 192 1590 117 q 1542 335 1590 286 q 1427 399 1494 383 q 1256 424 1360 415 q 1133 440 1178 431 q 1060 471 1089 449 q 1031 536 1031 493 q 1067 642 1031 594 q 1165 708 1103 689 q 1232 718 1207 718 q 1483 521 1376 718 l 1576 581 q 1446 699 1528 650 q 1260 749 1364 749 q 1211 746 1244 749 q 1001 680 1089 736 q 914 525 914 624 q 955 416 914 453 q 1052 367 996 379 q 1193 347 1108 354 l 1224 344 q 1399 304 1324 338 q 1475 193 1475 271 q 1444 101 1475 139 q 1364 44 1413 63 q 1264 25 1315 25 q 1102 49 1167 25 q 992 122 1038 72 q 904 256 946 171 q 844 308 876 308 q 786 261 813 308 q 658 97 728 150 q 494 26 588 43 q 463 25 483 25 q 299 91 367 25 q 192 265 231 157 l 806 504 q 674 683 767 615 q 439 750 581 750 q 227 695 315 750 q 94 551 139 640 q 50 361 50 463 q 94 171 50 260 q 227 27 139 82 q 439 -28 315 -28 q 535 -14 497 -28 q 811 240 697 26 m 183 290 q 156 456 156 381 q 197 611 156 544 q 326 707 238 678 q 413 722 375 722 q 563 665 499 722 q 671 514 628 607 l 183 290 z "},"ა":{"ha":865,"x_min":42,"x_max":824,"o":"m 818 369 q 824 325 824 342 q 770 163 824 246 q 630 27 717 81 q 451 -26 543 -26 q 323 4 403 -26 q 165 94 243 35 q 42 239 88 154 l 154 304 q 248 150 193 217 q 363 47 303 83 q 474 11 422 11 q 600 48 547 11 q 680 144 653 85 q 707 269 707 203 q 682 388 707 333 q 622 465 663 429 q 519 547 582 501 l 486 571 q 366 707 410 629 q 322 911 322 785 l 361 911 q 391 791 361 843 q 454 709 421 739 q 557 625 488 679 q 622 581 572 613 q 751 483 703 529 q 818 369 800 436 z "},"ბ":{"ha":863,"x_min":42,"x_max":821,"o":"m 179 276 q 292 80 221 158 q 461 1 363 1 q 547 17 497 1 q 680 112 639 47 q 721 264 721 176 q 688 446 721 346 q 578 643 650 564 q 406 722 506 722 q 319 707 369 722 q 188 610 229 676 q 147 454 147 543 q 179 276 147 372 m 42 363 q 76 530 42 450 q 178 666 110 610 q 340 742 246 722 q 467 864 357 825 q 483 879 483 871 q 478 888 483 885 q 465 892 474 892 q 422 881 451 892 q 361 857 393 871 q 269 820 306 833 q 206 807 232 807 q 159 827 179 807 q 139 874 139 847 q 163 928 139 903 q 319 1051 225 993 q 558 1160 413 1108 l 564 1151 q 412 1071 475 1113 q 319 996 349 1029 q 294 943 289 963 q 381 913 303 913 q 429 914 408 913 q 464 917 450 915 q 529 921 500 921 q 569 911 564 921 q 572 901 572 906 q 546 871 572 885 q 486 838 506 851 q 458 805 467 825 q 451 750 450 785 q 652 690 568 746 q 778 548 736 635 q 821 363 821 461 q 777 173 821 263 q 645 28 733 83 q 431 -28 557 -28 q 219 27 307 -28 q 86 172 131 82 q 42 363 42 261 z "},"გ":{"ha":863,"x_min":42,"x_max":821,"o":"m 179 235 q 292 38 221 117 q 461 -40 363 -40 q 547 -25 497 -40 q 680 70 639 6 q 721 222 721 135 q 688 404 721 304 q 578 601 650 522 q 406 681 506 681 q 354 675 393 681 l 346 672 l 346 672 q 319 665 340 671 q 188 568 229 635 q 147 413 147 501 q 179 235 147 331 m 42 321 q 83 503 42 421 q 198 639 124 586 q 369 706 272 692 q 505 745 449 724 q 571 800 561 767 q 576 832 576 822 q 533 906 576 879 q 431 933 489 933 q 359 917 386 933 q 275 850 332 901 l 207 790 l 129 839 q 275 935 219 910 q 379 960 331 960 q 518 934 453 960 q 622 870 583 908 q 661 794 661 832 q 658 778 661 789 q 510 703 644 731 q 666 636 596 686 q 778 505 736 586 q 821 321 821 424 q 777 131 821 221 q 645 -14 733 42 q 431 -69 557 -69 q 219 -15 307 -69 q 86 130 131 40 q 42 321 42 219 z "},"დ":{"ha":1319,"x_min":42,"x_max":1278,"o":"m 543 597 q 489 824 540 739 q 328 910 438 910 q 203 830 236 910 q 167 635 171 750 q 165 511 165 601 q 167 364 165 414 q 206 177 171 253 q 319 101 242 101 q 383 114 343 101 q 507 156 424 126 q 667 208 607 190 q 767 226 726 226 q 876 181 832 226 q 921 68 921 135 q 867 -48 921 7 q 710 -146 814 -103 l 254 -333 l 246 -314 l 303 -286 q 577 -142 468 -203 q 747 -28 686 -82 q 797 64 797 14 q 769 124 797 101 q 703 140 742 146 q 532 96 649 132 q 388 56 444 69 q 283 43 332 43 q 135 92 194 43 q 56 228 75 142 q 42 446 42 292 q 49 690 42 551 q 98 810 51 750 q 221 907 144 869 q 383 944 297 944 q 597 799 526 944 q 724 915 643 872 q 917 958 806 958 q 1117 910 1035 958 q 1238 781 1199 861 q 1278 610 1278 701 q 1239 438 1278 518 q 1119 309 1200 358 q 917 260 1038 260 q 717 307 800 260 q 590 431 633 354 q 543 597 546 508 m 675 533 q 783 356 715 426 q 946 286 851 286 q 1115 355 1053 286 q 1178 533 1178 424 q 1150 685 1178 610 q 893 933 1064 933 q 810 919 861 933 q 684 832 724 892 q 644 692 644 772 q 675 533 644 622 z "},"ე":{"ha":774,"x_min":42,"x_max":732,"o":"m 189 -226 q 404 -117 315 -175 q 559 11 497 -60 q 621 157 621 82 l 621 643 q 594 783 621 721 q 528 878 568 844 q 447 913 488 913 q 359 883 400 913 q 242 778 318 853 q 135 676 190 726 l 42 736 q 253 894 171 842 q 386 946 336 946 q 553 897 474 946 q 681 776 632 847 q 732 644 729 704 l 732 140 q 690 14 728 75 q 553 -96 653 -47 l 197 -246 l 189 -226 z "},"ვ":{"ha":832,"x_min":42,"x_max":790,"o":"m 679 272 q 664 350 679 308 q 610 422 649 392 q 504 453 571 453 q 374 426 444 453 l 374 490 q 538 549 461 508 q 642 661 615 590 q 653 714 653 690 q 619 810 653 764 q 538 883 586 856 q 447 911 489 911 q 359 881 400 911 q 242 776 318 851 q 135 675 190 725 l 42 735 q 253 892 171 840 q 386 944 336 944 q 556 900 471 944 q 697 790 642 856 q 753 668 753 725 q 746 633 753 651 q 702 567 731 592 q 639 528 674 542 q 535 494 604 514 q 497 485 510 489 q 579 497 542 497 q 733 432 676 497 q 790 271 790 367 l 790 150 q 749 24 786 85 q 611 -86 711 -37 l 256 -236 l 247 -217 q 463 -107 374 -165 q 617 21 556 -50 q 679 167 679 92 l 679 272 z "},"ზ":{"ha":1165,"x_min":14,"x_max":1124,"o":"m 1008 307 q 978 458 1010 390 q 888 565 946 526 q 753 604 829 604 q 582 557 671 604 q 475 486 508 517 q 444 424 444 457 l 444 278 q 487 138 444 201 q 596 37 529 74 q 731 0 663 0 q 870 36 808 0 q 969 141 932 72 q 1008 307 1006 210 m 14 688 q 60 822 14 763 q 176 915 106 882 q 318 949 247 949 q 456 925 390 949 q 565 853 522 901 q 607 733 607 806 l 607 613 l 606 611 q 790 656 699 656 q 957 615 881 656 q 1078 496 1033 575 q 1124 307 1124 417 q 1066 122 1124 197 q 918 9 1008 46 q 728 -28 828 -28 q 539 5 629 -28 q 391 106 449 38 q 333 281 333 175 l 333 428 q 272 419 308 419 q 89 486 164 419 q 14 688 14 553 m 113 692 q 160 539 113 593 q 288 485 207 485 q 386 508 335 485 q 476 565 438 532 q 496 608 496 585 l 496 760 q 467 842 496 807 q 394 894 439 876 q 303 913 350 913 q 206 884 249 913 q 138 806 163 856 q 113 692 113 756 m 449 490 l 444 488 l 444 486 l 449 490 m 496 539 l 496 540 l 490 533 l 496 539 z "},"თ":{"ha":1428,"x_min":42,"x_max":1386,"o":"m 160 351 q 271 100 199 200 q 453 0 343 0 q 499 6 472 0 q 546 19 525 11 q 707 340 707 96 q 678 568 707 444 q 573 820 642 719 q 403 921 504 921 q 202 812 267 921 q 138 542 138 703 q 160 351 138 447 m 42 517 q 139 828 42 710 q 425 946 236 946 q 609 894 532 946 q 733 751 686 843 q 870 891 786 835 q 1022 947 954 947 q 1156 899 1083 947 q 1282 774 1229 850 q 1342 617 1335 697 q 1347 485 1347 531 q 1276 99 1347 244 q 1228 14 1253 51 q 1224 3 1224 8 q 1231 -8 1224 -1 l 1386 -140 l 1242 -140 l 1140 -53 q 1125 -24 1125 -40 q 1139 6 1125 -15 q 1217 185 1194 81 q 1239 422 1239 290 q 1231 638 1239 501 q 1203 756 1228 690 q 1133 871 1179 822 q 1022 919 1088 919 q 913 878 968 919 q 823 767 857 836 q 790 624 789 699 l 793 529 q 796 461 796 485 q 755 223 796 335 q 631 42 714 111 q 425 -28 547 -28 q 222 31 308 -28 q 88 186 135 89 q 42 394 42 283 l 42 517 z "},"ი":{"ha":981,"x_min":69,"x_max":939,"o":"m 783 638 q 738 783 783 718 q 622 883 693 847 q 478 919 550 919 q 354 883 425 919 q 232 781 283 846 q 181 638 181 717 l 181 0 l 69 0 l 69 617 q 148 790 69 715 q 326 906 226 864 q 478 947 425 947 q 647 907 547 947 q 821 791 747 867 q 894 617 894 715 l 894 560 q 883 294 894 404 q 829 99 871 183 q 781 14 806 51 q 776 3 776 8 q 783 -8 776 -1 l 939 -140 l 794 -140 l 693 -53 q 678 -24 678 -40 q 692 6 678 -15 q 767 183 747 79 q 786 425 786 286 l 785 536 q 783 638 783 571 z "},"კ":{"ha":626,"x_min":42,"x_max":585,"o":"m 371 944 q 432 865 390 918 q 518 747 490 792 q 546 663 546 703 q 540 633 546 646 q 462 548 521 579 q 292 485 403 517 q 374 497 336 497 q 528 432 471 497 q 585 271 585 367 l 585 150 q 543 24 581 85 q 406 -86 506 -37 l 50 -236 l 42 -217 q 257 -107 168 -165 q 412 21 350 -50 q 474 167 474 92 l 474 272 q 458 350 474 308 q 404 422 443 392 q 299 453 365 453 q 198 427 272 453 q 82 382 124 401 l 82 446 q 295 532 181 472 q 436 661 410 592 q 446 708 446 682 q 433 769 446 739 q 393 842 419 800 q 347 931 360 900 l 371 944 z "},"ლ":{"ha":851,"x_min":42,"x_max":810,"o":"m 649 581 q 538 818 603 726 q 369 910 474 910 q 260 866 304 910 q 192 759 215 822 q 167 635 169 696 q 165 497 165 601 q 167 336 165 386 q 205 174 169 232 q 319 115 240 115 q 383 131 360 115 q 454 200 406 147 l 532 282 q 656 338 586 338 q 765 292 721 338 q 810 179 810 246 q 756 56 810 115 q 599 -49 703 -3 l 143 -250 l 135 -231 q 421 -76 276 -160 q 636 69 565 7 q 686 165 686 111 q 658 231 686 206 q 592 251 631 257 q 516 215 549 244 q 438 129 483 185 q 360 44 393 72 q 283 15 326 15 q 135 65 194 15 q 56 200 75 114 q 42 432 42 264 q 49 690 42 551 q 108 809 51 750 q 251 906 164 868 q 425 944 338 944 q 560 917 500 944 q 676 820 619 889 q 790 631 732 751 l 649 581 z "},"მ":{"ha":874,"x_min":42,"x_max":832,"o":"m 721 629 q 681 782 721 715 q 582 885 640 849 q 474 922 524 922 q 376 900 418 922 q 244 810 335 878 l 171 754 l 78 814 q 276 924 197 893 q 413 956 354 956 q 597 915 499 956 q 764 804 696 875 q 832 646 832 733 l 832 319 q 774 133 832 207 q 627 25 717 60 q 438 -10 538 -10 q 247 30 338 -10 q 99 151 157 69 q 42 349 42 232 q 87 551 42 467 q 208 678 132 635 q 375 721 285 721 q 558 675 467 721 q 721 540 649 629 l 721 629 m 157 358 q 193 176 157 253 q 292 59 229 99 q 435 19 356 19 q 569 59 503 19 q 678 167 636 99 q 721 317 721 235 l 721 474 q 690 540 721 510 q 583 615 657 574 q 413 667 494 667 q 280 626 338 667 q 190 516 222 586 q 157 358 157 446 z "},"ნ":{"ha":874,"x_min":42,"x_max":832,"o":"m 153 540 q 316 675 225 629 q 499 721 407 721 q 665 678 589 721 q 787 551 742 635 q 832 349 832 467 q 774 151 832 232 q 626 30 717 69 q 436 -10 536 -10 q 247 25 336 -10 q 99 133 157 60 q 42 319 42 207 l 42 646 q 101 815 42 746 q 251 917 161 883 q 429 951 340 951 q 799 915 496 951 l 799 756 q 688 813 776 767 q 510 897 571 872 q 400 922 450 922 q 219 844 286 922 q 153 629 153 765 l 153 540 m 153 317 q 195 167 153 235 q 304 59 238 99 q 439 19 371 19 q 578 58 517 19 q 677 170 640 96 q 717 349 714 244 q 686 510 718 438 q 596 625 654 583 q 461 667 538 667 q 290 615 379 667 q 183 540 217 574 q 153 474 153 510 l 153 317 z "},"ო":{"ha":1335,"x_min":42,"x_max":1293,"o":"m 586 635 q 563 753 586 685 q 492 870 539 821 q 381 919 446 919 q 272 882 325 919 q 186 779 219 844 q 153 638 153 714 l 153 0 l 42 0 l 42 617 q 97 787 42 711 q 233 905 153 863 q 381 947 313 947 q 517 895 443 947 q 638 767 590 843 q 774 897 689 847 q 929 947 858 947 q 1063 899 990 947 q 1189 774 1136 850 q 1249 617 1242 697 q 1254 485 1254 531 q 1183 99 1254 244 q 1135 14 1160 51 q 1131 3 1131 8 q 1138 -8 1131 -1 l 1293 -140 l 1149 -140 l 1047 -53 q 1032 -24 1032 -40 q 1046 6 1032 -15 q 1124 185 1101 81 q 1146 422 1146 290 q 1138 638 1146 501 q 1110 756 1135 690 q 1040 871 1086 822 q 929 919 994 919 q 821 878 875 919 q 732 767 767 836 q 697 624 697 699 l 697 290 l 586 290 l 586 635 z "},"პ":{"ha":911,"x_min":42,"x_max":869,"o":"m 606 550 q 644 553 633 553 q 759 517 707 553 q 840 428 811 482 q 869 326 869 375 l 869 260 q 796 96 869 161 q 624 1 722 31 q 451 -29 525 -29 q 296 1 394 -29 q 119 97 197 32 q 42 260 42 163 l 42 299 q 74 411 42 364 q 196 501 107 458 l 204 483 q 161 410 169 442 q 153 321 153 379 l 153 239 q 203 106 153 161 q 325 25 254 51 q 451 -1 396 -1 q 597 24 528 -1 q 710 104 665 50 q 757 239 756 158 l 758 294 q 717 445 761 390 q 554 500 672 500 q 367 475 449 500 l 367 539 q 599 603 507 550 q 689 733 690 656 q 651 805 689 775 q 533 874 613 835 q 433 928 471 904 q 366 987 394 953 q 335 1067 338 1021 l 358 1067 q 392 1007 364 1032 q 458 965 421 982 q 565 921 496 947 q 686 871 640 893 q 764 814 732 849 q 796 732 796 779 q 606 553 796 585 l 606 550 z "},"ჟ":{"ha":906,"x_min":42,"x_max":864,"o":"m 383 788 q 470 909 421 868 q 569 950 519 950 q 681 926 614 950 q 799 860 747 903 q 858 765 850 818 q 864 660 864 722 l 864 63 q 794 -57 864 13 q 615 -179 725 -126 l 301 -329 l 293 -310 q 494 -206 386 -272 q 677 -62 601 -139 q 753 79 753 14 l 753 657 l 753 764 q 730 849 753 813 q 675 903 707 885 q 618 922 643 922 q 475 788 528 922 l 511 621 l 525 560 q 532 506 532 518 q 494 401 532 451 q 397 319 457 350 q 276 288 338 288 q 165 314 219 288 q 76 386 110 340 q 42 488 42 432 q 68 579 42 538 q 163 663 100 629 q 178 679 178 674 q 175 688 178 682 l 60 788 l 174 788 l 265 707 q 271 694 271 701 q 260 678 271 685 l 215 649 q 135 503 135 596 q 175 384 135 422 q 276 346 215 346 q 355 364 317 346 q 417 415 393 382 q 442 488 442 447 q 433 535 442 497 l 410 656 l 383 788 z "},"რ":{"ha":767,"x_min":42,"x_max":725,"o":"m 613 0 l 613 519 q 579 630 613 588 q 488 672 546 672 q 352 621 446 672 q 179 518 258 569 q 160 498 167 511 q 153 469 153 485 l 153 0 l 42 0 l 42 614 q 221 850 51 768 l 576 1000 l 585 981 q 368 871 461 929 q 215 744 276 815 q 153 597 153 674 l 153 526 q 377 666 274 607 q 542 725 481 725 q 667 683 614 725 q 725 563 719 642 l 725 0 l 613 0 z "},"ს":{"ha":874,"x_min":42,"x_max":832,"o":"m 832 307 q 774 138 832 210 q 625 28 717 65 q 436 -10 533 -10 q 247 25 336 -10 q 99 133 157 60 q 42 319 42 207 l 42 701 q 47 798 42 758 q 78 882 51 838 q 163 951 104 926 l 251 990 l 260 972 q 185 898 208 938 q 158 814 163 858 q 153 685 153 769 l 153 317 q 195 167 153 235 q 304 59 238 99 q 439 19 371 19 q 580 58 517 19 q 680 165 643 96 q 717 322 717 235 q 676 471 717 406 q 563 594 636 536 q 540 631 540 611 q 554 661 540 646 q 608 711 578 689 q 707 781 638 733 l 717 764 q 638 698 667 731 q 606 643 610 665 l 606 639 q 621 617 606 626 q 656 590 653 593 q 747 517 713 550 q 807 432 782 483 q 832 307 832 381 z "},"ტ":{"ha":883,"x_min":42,"x_max":842,"o":"m 426 779 q 265 703 340 763 q 175 554 190 644 l 136 332 q 133 293 133 319 q 172 164 133 224 q 267 66 211 104 q 371 19 324 28 q 426 14 407 14 q 606 72 526 14 q 704 232 686 129 l 743 454 q 747 503 747 479 q 714 632 747 572 q 624 731 681 692 q 504 782 568 771 q 453 783 485 786 l 451 771 l 451 751 l 454 715 q 471 538 461 615 q 504 392 481 461 l 374 392 q 408 556 394 446 q 426 751 422 667 l 426 771 l 426 779 m 42 485 q 110 651 42 578 q 270 765 179 724 q 422 814 361 807 q 407 888 417 854 q 374 988 397 921 l 504 988 q 471 888 481 921 q 456 814 461 854 q 620 767 529 808 q 776 653 711 726 q 842 485 842 579 l 842 301 q 771 131 842 203 q 603 22 700 58 q 438 -15 507 -15 q 288 22 385 -15 q 117 131 192 60 q 42 301 42 203 l 42 485 z "},"უ":{"ha":844,"x_min":-28,"x_max":803,"o":"m 692 764 q 669 849 692 813 q 614 903 646 885 q 557 922 582 922 q 472 885 519 922 q 390 788 424 849 q 356 656 356 726 l 356 336 l 247 336 l 247 617 q 244 760 247 693 q 207 899 239 847 q 82 950 175 950 q -28 935 32 950 l -28 1022 q 201 946 121 1022 q 315 764 281 869 q 390 897 340 843 q 508 950 440 950 q 619 926 553 950 q 738 860 686 903 q 797 765 789 818 q 803 660 803 722 l 803 63 q 733 -57 803 13 q 554 -179 664 -126 l 240 -329 l 232 -310 q 433 -206 325 -272 q 616 -62 540 -139 q 692 79 692 14 l 692 657 l 692 764 z "},"ფ":{"ha":1315,"x_min":42,"x_max":1282,"o":"m 776 597 q 730 431 774 508 q 603 307 686 354 q 403 260 519 260 q 201 309 282 260 q 81 438 119 358 q 42 610 42 518 q 81 781 42 701 q 203 910 121 861 q 403 958 285 958 q 603 911 519 958 q 732 783 688 864 q 856 903 782 863 q 1006 944 929 944 q 1212 858 1142 944 q 1272 606 1282 771 q 1169 424 1265 493 q 944 318 1072 356 q 1024 331 989 331 q 1135 301 1088 331 q 1209 226 1183 272 q 1235 132 1235 181 l 1235 38 q 1197 -91 1235 -26 q 1056 -199 1158 -156 l 700 -349 l 692 -329 q 907 -219 818 -278 q 1062 -92 1000 -162 q 1124 54 1124 -21 l 1124 133 q 1108 192 1124 156 q 1053 257 1093 228 q 949 286 1014 286 q 818 260 889 286 l 818 324 q 965 381 890 339 q 1091 483 1039 424 q 1150 606 1143 543 q 1153 650 1153 633 q 1108 835 1153 756 q 978 915 1064 915 q 825 829 871 915 q 776 597 779 743 m 169 685 q 142 533 142 610 q 204 355 142 424 q 374 286 267 286 q 536 356 468 286 q 644 533 604 426 q 675 692 675 622 q 635 832 675 772 q 510 919 596 892 q 426 933 458 933 q 169 685 256 933 z "},"ქ":{"ha":767,"x_min":40,"x_max":725,"o":"m 182 -315 q 397 -206 308 -264 q 552 -78 490 -149 q 614 68 614 -7 l 614 474 q 607 502 614 489 q 588 522 600 515 q 415 625 508 574 q 279 676 321 676 q 188 634 221 676 q 154 524 154 592 l 154 296 l 43 296 l 43 424 q 42 494 43 471 q 43 567 40 519 q 101 688 49 646 q 225 729 153 729 q 390 670 286 729 q 614 531 493 611 l 614 918 q 496 858 575 894 q 346 797 417 822 l 321 825 q 482 917 390 854 q 619 1040 574 981 l 725 1040 l 725 51 q 687 -77 725 -12 q 546 -185 649 -142 l 190 -335 l 182 -315 z "},"ღ":{"ha":1204,"x_min":42,"x_max":1163,"o":"m 1019 367 q 1057 581 1057 457 q 1007 820 1057 719 q 865 921 957 921 q 715 871 765 921 q 649 740 664 821 q 635 533 635 660 l 635 394 l 543 394 l 543 597 q 490 824 543 738 q 328 910 438 910 q 203 830 236 910 q 167 635 171 750 q 165 511 165 601 q 167 364 165 414 q 206 177 171 253 q 319 101 242 101 q 383 114 343 101 q 507 156 424 126 q 667 208 607 190 q 767 226 726 226 q 876 181 832 226 q 921 68 921 135 q 867 -48 921 7 q 710 -146 814 -103 l 254 -333 l 246 -314 l 303 -286 q 577 -142 468 -203 q 747 -28 686 -82 q 797 64 797 14 q 769 124 797 101 q 703 140 742 146 q 532 96 649 132 q 388 56 444 69 q 283 43 332 43 q 135 92 194 43 q 56 228 75 142 q 42 446 42 292 q 49 690 42 551 q 98 810 51 750 q 221 907 144 869 q 383 944 297 944 q 597 799 526 944 q 710 909 643 872 q 889 946 778 946 q 1098 850 1033 946 q 1163 617 1163 754 q 1145 472 1163 542 q 1101 367 1128 403 l 1019 367 z "},"ყ":{"ha":739,"x_min":42,"x_max":697,"o":"m 154 921 l 154 374 q 188 263 154 306 q 279 221 221 221 q 411 265 322 221 q 560 347 500 308 q 579 367 572 354 q 586 396 586 381 l 586 921 l 697 921 l 697 57 q 658 -72 697 -7 q 518 -179 619 -136 l 163 -329 l 154 -310 q 371 -200 278 -258 q 524 -74 463 -144 q 586 74 586 -3 l 586 339 q 390 222 492 275 q 225 168 288 168 q 101 210 153 168 q 43 331 49 251 q 42 382 42 347 q 42 440 42 397 q 43 921 43 482 l 154 921 z "},"შ":{"ha":1196,"x_min":0,"x_max":1154,"o":"m 1043 713 q 1035 815 1043 782 q 999 876 1028 847 q 957 911 975 900 q 915 922 939 922 q 838 876 878 922 q 819 853 825 863 q 811 829 813 844 l 811 821 l 811 779 l 760 779 l 761 814 l 760 814 l 761 817 l 761 847 q 738 913 761 886 q 574 976 685 976 q 458 961 522 976 q 294 938 360 938 q 158 963 224 938 q 0 1047 93 989 l 3 1065 q 193 1004 107 1004 q 331 1026 242 1004 q 526 1058 444 1053 q 694 1013 624 1065 q 794 886 764 960 q 878 944 826 926 q 918 951 899 951 q 1019 920 968 951 q 1108 828 1071 889 q 1154 646 1154 753 l 1154 319 q 1097 133 1154 207 q 949 25 1039 60 q 760 -10 860 -10 q 569 30 660 -10 q 422 151 479 69 q 364 349 364 232 q 409 551 364 467 q 531 678 454 635 q 697 721 607 721 q 880 675 789 721 q 1043 540 971 629 l 1043 713 m 479 358 q 515 176 479 253 q 615 59 551 99 q 757 19 678 19 q 892 59 825 19 q 1001 167 958 99 q 1043 317 1043 235 l 1043 474 q 1013 540 1043 510 q 906 615 979 574 q 735 667 817 667 q 602 626 660 667 q 512 516 544 586 q 479 358 479 446 z "},"ჩ":{"ha":767,"x_min":42,"x_max":725,"o":"m 613 0 l 613 367 q 579 477 613 435 q 488 519 546 519 q 352 468 446 519 q 179 365 258 417 q 160 345 167 358 q 153 317 153 332 l 153 0 l 42 0 l 42 613 q 81 758 42 692 q 221 876 119 825 q 369 930 281 907 q 529 953 457 953 q 665 881 654 953 q 667 856 667 872 q 638 742 667 800 q 542 572 610 683 q 667 531 614 572 q 725 410 719 489 l 725 0 l 613 0 m 153 374 q 522 571 418 554 l 540 646 q 562 742 556 707 q 569 828 568 778 q 546 906 571 879 q 478 933 521 933 q 368 897 424 933 q 256 820 299 856 q 183 729 213 785 q 153 597 153 674 l 153 374 z "},"ც":{"ha":911,"x_min":42,"x_max":869,"o":"m 869 258 q 795 84 869 160 q 621 -32 721 8 q 451 -72 521 -72 q 299 -31 399 -72 q 120 85 199 11 q 42 258 42 160 l 42 646 q 58 767 42 718 q 119 862 75 817 q 251 963 164 907 l 260 944 q 176 814 199 875 q 153 668 153 753 l 153 238 q 204 94 153 158 q 327 -8 256 29 q 451 -44 399 -44 q 594 -8 524 -44 q 710 92 664 28 q 757 238 756 157 l 758 300 q 744 378 760 336 q 690 450 729 419 q 583 481 650 481 q 483 455 557 481 q 367 410 408 429 l 367 474 q 492 520 418 488 q 632 597 567 553 q 721 689 697 642 q 736 751 736 718 q 716 828 736 790 q 654 924 696 865 q 585 1032 608 989 q 563 1125 563 1075 q 571 1178 563 1151 l 594 1178 q 590 1144 590 1161 q 622 1047 590 1096 q 715 919 653 997 q 806 801 775 849 q 836 708 836 753 q 825 661 836 686 q 740 575 800 608 q 576 513 681 542 q 658 525 621 525 q 813 460 756 525 q 869 299 869 394 l 869 258 z "},"ძ":{"ha":874,"x_min":42,"x_max":832,"o":"m 157 358 q 193 176 157 253 q 292 59 229 99 q 435 19 356 19 q 569 59 503 19 q 678 167 636 99 q 721 317 721 235 l 721 474 q 690 540 721 510 q 583 615 657 574 q 413 667 494 667 q 280 626 338 667 q 190 516 222 586 q 157 358 157 446 m 42 349 q 87 551 42 467 q 208 678 132 635 q 375 721 285 721 q 558 675 467 721 q 721 540 649 629 l 721 685 q 679 824 721 764 q 531 951 638 885 q 481 982 514 963 l 492 1004 l 653 938 q 794 831 756 894 q 832 701 832 767 l 832 319 q 774 133 832 207 q 627 25 717 60 q 438 -10 538 -10 q 247 30 338 -10 q 99 151 157 69 q 42 349 42 232 z "},"წ":{"ha":1238,"x_min":42,"x_max":1196,"o":"m 153 540 q 316 675 225 629 q 499 721 407 721 q 665 678 589 721 q 787 551 742 635 q 832 349 832 467 q 774 151 832 232 q 626 30 717 69 q 436 -10 536 -10 q 247 25 336 -10 q 99 133 157 60 q 42 319 42 207 l 42 646 q 88 828 42 753 q 176 920 125 889 q 278 951 228 951 q 318 944 297 951 q 406 894 381 921 q 507 1015 439 965 q 669 1058 575 1065 q 865 1026 751 1053 q 1003 1004 954 1004 q 1193 1065 1089 1004 l 1196 1047 q 1038 963 1103 989 q 901 938 972 938 q 738 961 836 938 q 622 976 674 976 q 458 913 511 976 q 435 847 435 886 l 435 825 q 435 814 438 821 l 436 779 l 385 779 l 385 821 l 385 832 q 349 912 381 888 q 281 936 318 936 q 217 897 246 936 q 170 788 188 858 q 153 629 153 718 l 153 540 m 153 317 q 195 167 153 235 q 304 59 238 99 q 439 19 371 19 q 578 58 517 19 q 677 170 640 96 q 717 349 714 244 q 686 510 718 438 q 596 625 654 583 q 461 667 538 667 q 290 615 379 667 q 183 540 217 574 q 153 474 153 510 l 153 317 z "},"ჭ":{"ha":986,"x_min":42,"x_max":944,"o":"m 108 -303 q 324 -193 235 -251 q 478 -65 417 -136 q 540 81 540 6 l 540 422 q 406 283 482 339 q 256 228 329 228 q 147 260 196 228 q 70 348 99 293 q 42 465 42 403 q 108 640 42 564 q 227 722 157 696 q 360 755 297 749 q 540 765 424 761 l 540 990 l 651 992 l 651 776 q 823 838 756 793 q 932 956 890 883 l 944 933 q 813 754 890 822 q 651 664 736 686 l 651 64 q 613 -65 651 0 q 472 -172 575 -129 l 117 -322 l 108 -303 m 133 478 q 146 346 133 408 q 256 257 165 257 q 401 327 322 257 q 532 486 481 397 l 540 503 l 540 654 q 504 660 515 657 q 424 682 479 665 q 338 706 369 699 q 276 714 307 714 q 167 654 201 714 q 133 478 133 597 z "},"ხ":{"ha":874,"x_min":42,"x_max":832,"o":"m 717 349 q 686 510 718 438 q 596 625 654 583 q 461 667 538 667 q 290 615 379 667 q 183 540 217 574 q 153 474 153 510 l 153 317 q 195 167 153 235 q 304 59 238 99 q 439 19 371 19 q 578 58 517 19 q 677 170 640 96 q 717 349 714 244 m 42 701 q 47 798 42 758 q 78 882 51 838 q 163 951 104 926 l 251 990 l 260 972 q 185 898 208 938 q 158 814 163 858 q 153 685 153 769 l 153 540 q 316 675 225 629 q 499 721 407 721 q 665 678 589 721 q 787 551 742 635 q 832 349 832 467 q 774 151 832 232 q 626 30 717 69 q 436 -10 536 -10 q 247 25 336 -10 q 99 133 157 60 q 42 319 42 207 l 42 701 z "},"ჯ":{"ha":719,"x_min":42,"x_max":678,"o":"m 42 756 q 147 728 96 736 q 274 717 199 721 q 262 833 269 788 q 235 933 254 878 l 365 933 q 338 833 346 878 q 326 717 331 788 q 453 728 401 721 q 558 756 504 736 l 558 631 q 454 657 504 650 q 326 669 404 664 q 335 494 326 593 q 405 546 363 525 q 489 567 447 567 q 631 509 585 567 q 678 354 678 451 l 678 39 q 639 -85 678 -22 q 499 -197 600 -149 l 143 -347 l 135 -328 q 350 -219 257 -276 q 505 -90 443 -161 q 567 56 567 -19 l 567 356 q 541 480 567 419 q 453 540 515 540 q 375 495 400 540 q 350 383 350 450 q 354 324 350 353 l 265 324 q 274 669 268 567 q 146 657 196 664 q 42 631 96 650 l 42 756 z "},"ჰ":{"ha":911,"x_min":42,"x_max":869,"o":"m 365 736 q 596 767 504 736 q 688 854 688 799 q 653 906 688 888 q 547 943 618 924 q 440 981 481 964 q 368 1028 399 997 q 333 1107 338 1060 l 357 1107 q 419 1032 365 1056 q 578 986 474 1008 q 693 957 650 971 q 765 918 736 943 q 794 854 794 893 q 769 783 794 807 q 706 749 743 758 q 603 733 668 740 l 560 728 q 811 547 811 713 q 765 453 811 486 q 622 397 718 419 q 752 367 696 394 q 839 300 808 339 q 869 229 869 261 l 869 176 q 796 63 869 110 q 623 -6 722 17 q 451 -29 524 -29 q 294 -6 390 -29 q 119 72 197 17 q 42 218 42 128 l 42 243 q 79 347 42 301 q 182 418 117 392 l 190 400 q 160 347 168 376 q 153 265 153 318 l 153 197 q 203 82 153 126 q 323 18 254 38 q 451 -1 392 -1 q 596 19 526 -1 q 710 78 665 39 q 757 171 756 117 l 758 211 q 729 292 760 256 q 639 351 699 329 q 496 374 579 374 q 365 361 436 374 l 365 425 l 401 425 q 533 429 476 425 q 644 457 589 433 q 700 532 700 481 q 680 628 700 596 q 617 672 660 660 q 458 694 547 694 q 365 686 414 694 l 365 736 z "},"Ẁ":{"ha":1411,"x_min":49,"x_max":1369,"o":"m 453 1269 l 525 1333 q 658 1213 592 1268 q 714 1165 690 1188 l 694 1144 l 453 1269 m 179 1067 l 507 111 q 519 97 511 101 q 533 92 526 92 q 556 106 547 92 l 782 475 l 576 1067 l 697 1067 l 1029 111 q 1041 98 1033 103 q 1056 93 1049 93 q 1078 107 1069 93 l 1207 328 q 1258 514 1258 415 q 1242 618 1258 568 l 1079 1067 l 1201 1067 l 1353 642 q 1369 549 1369 596 q 1318 386 1369 464 l 1049 0 l 954 0 l 810 397 l 532 0 l 428 0 l 49 1067 l 179 1067 z "},"ẁ":{"ha":1061,"x_min":49,"x_max":1004,"o":"m 272 1003 l 344 1067 q 478 946 411 1001 q 533 899 510 921 l 514 878 l 272 1003 m 172 722 l 385 101 q 398 85 388 93 q 419 78 408 78 q 444 93 435 78 l 576 257 l 411 722 l 535 722 l 747 101 q 760 85 750 92 q 782 78 769 78 q 808 93 799 78 l 911 226 q 926 279 926 254 q 922 310 926 293 l 775 722 l 899 722 l 993 450 q 1004 385 1004 417 q 985 297 1004 340 l 786 0 l 668 0 l 585 235 l 424 0 l 306 0 l 49 722 l 172 722 z "}}}
